<svg width="417" height="187" viewBox="0 0 417 187" fill="none" xmlns="http://www.w3.org/2000/svg">
<path d="M21.64 3.58C30.64 3.58 37.72 8.32 40.72 16.3H35.8C33.46 10.9 28.36 7.42 21.64 7.42C12.34 7.42 5.2 14.14 5.2 25C5.2 35.86 12.34 42.64 21.64 42.64C30.46 42.64 36.94 36.7 37.6 27.16H19.96V23.74H42.04V26.8C41.38 37.9 33.1 46.42 21.64 46.42C9.88 46.42 0.88 37.6 0.88 25C0.88 12.46 9.88 3.58 21.64 3.58ZM61.9136 16.36C55.9736 16.36 50.7536 20.2 50.2736 27.82H73.3136C73.4936 20.2 67.9736 16.36 61.9136 16.36ZM77.0936 35.62C75.5936 41.8 70.3136 46.48 62.0936 46.48C52.7936 46.48 46.0136 40 46.0136 29.62C46.0136 19.18 52.6736 12.76 62.0936 12.76C71.6936 12.76 77.5736 19.6 77.5736 27.94C77.5736 29.26 77.5736 30.1 77.4536 31.24H50.2736C50.6336 38.92 55.9736 42.94 62.0936 42.94C67.6736 42.94 71.4536 40 72.6536 35.62H77.0936ZM83.4578 46V1.6H87.6578V46H83.4578ZM109.349 16.36C103.409 16.36 98.1887 20.2 97.7087 27.82H120.749C120.929 20.2 115.409 16.36 109.349 16.36ZM124.529 35.62C123.029 41.8 117.749 46.48 109.529 46.48C100.229 46.48 93.4487 40 93.4487 29.62C93.4487 19.18 100.109 12.76 109.529 12.76C119.129 12.76 125.009 19.6 125.009 27.94C125.009 29.26 125.009 30.1 124.889 31.24H97.7087C98.0687 38.92 103.409 42.94 109.529 42.94C115.109 42.94 118.889 40 120.089 35.62H124.529ZM128.973 29.62C128.973 19.24 135.633 12.76 144.873 12.76C153.093 12.76 158.433 17.14 159.933 23.92H155.433C154.353 19.24 150.393 16.36 144.873 16.36C138.453 16.36 133.233 20.74 133.233 29.62C133.233 38.5 138.453 42.94 144.873 42.94C150.393 42.94 154.293 40.12 155.433 35.32H159.933C158.433 41.86 153.093 46.48 144.873 46.48C135.633 46.48 128.973 40 128.973 29.62ZM179.87 16.36C173.93 16.36 168.71 20.2 168.23 27.82H191.27C191.45 20.2 185.93 16.36 179.87 16.36ZM195.05 35.62C193.55 41.8 188.27 46.48 180.05 46.48C170.75 46.48 163.97 40 163.97 29.62C163.97 19.18 170.63 12.76 180.05 12.76C189.65 12.76 195.53 19.6 195.53 27.94C195.53 29.26 195.53 30.1 195.41 31.24H168.23C168.59 38.92 173.93 42.94 180.05 42.94C185.63 42.94 189.41 40 190.61 35.62H195.05ZM199.494 29.56C199.494 19.3 206.154 12.76 215.154 12.76C221.634 12.76 226.254 16.24 228.114 20.38V13.24H232.314V46.84C232.314 56.02 226.014 62.08 217.014 62.08C208.554 62.08 202.674 57.76 201.354 50.92H205.494C206.874 55.36 211.014 58.42 217.014 58.42C223.254 58.42 228.114 54.28 228.114 46.84V38.74C226.194 42.94 221.634 46.48 215.154 46.48C206.154 46.48 199.494 39.82 199.494 29.56ZM228.114 29.62C228.114 21.46 222.654 16.42 215.934 16.42C209.034 16.42 203.754 21.22 203.754 29.56C203.754 37.84 209.034 42.82 215.934 42.82C222.654 42.82 228.114 37.78 228.114 29.62ZM225.114 2.26C225.114 6.28 222.354 9.64 216.954 9.64C211.554 9.64 208.854 6.28 208.854 2.26V1.48H211.494C211.494 4.54 213.114 6.28 216.954 6.28C220.794 6.28 222.414 4.54 222.414 1.48H225.114V2.26ZM240.102 46V13.24H244.302V46H240.102ZM242.202 7.06C240.522 7.06 239.142 5.74 239.142 3.94C239.142 2.14 240.522 0.879998 242.202 0.879998C243.882 0.879998 245.262 2.14 245.262 3.94C245.262 5.74 243.882 7.06 242.202 7.06ZM276.553 46V27.28C276.553 20.02 272.593 16.3 266.593 16.3C260.473 16.3 256.213 20.14 256.213 28.12V46H252.013V13.24H256.213V18.82C258.313 14.74 262.513 12.64 267.373 12.64C274.813 12.64 280.693 17.2 280.693 26.8V46H276.553ZM2.8 116V74.06H7V116H2.8ZM4.84 70.58C3.34 70.58 2.08 69.32 2.08 67.82C2.08 66.32 3.34 65.06 4.84 65.06C6.34 65.06 7.6 66.32 7.6 67.82C7.6 69.32 6.34 70.58 4.84 70.58ZM39.2509 116V97.28C39.2509 90.02 35.2909 86.3 29.2909 86.3C23.1709 86.3 18.9109 90.14 18.9109 98.12V116H14.7109V83.24H18.9109V88.82C21.0109 84.74 25.2109 82.64 30.0709 82.64C37.5109 82.64 43.3909 87.2 43.3909 96.8V116H39.2509ZM73.5597 107.3C73.5597 112.34 69.3597 116.12 63.1197 116.48V120.02C67.7997 119.9 70.7997 121.88 70.7997 125.6C70.7997 129.2 67.9797 131.48 63.7797 131.48H57.7797V128.66H62.9397C65.9397 128.66 67.2597 127.64 67.2597 125.6C67.2597 123.74 65.9397 122.72 62.9397 122.72H60.1797V116.36C53.8197 115.76 49.4397 112.22 48.9597 106.76H53.2797C53.6397 110.36 56.7597 112.94 62.0997 112.94C66.7797 112.94 69.4197 110.42 69.4197 107.3C69.4197 99.2 49.7397 103.94 49.7397 91.64C49.7397 86.78 54.3597 82.76 61.2597 82.76C68.2797 82.76 72.8997 86.48 73.2597 92.78H69.0597C68.8197 89.12 66.1197 86.36 61.1397 86.36C56.7597 86.36 53.9997 88.7 53.9997 91.58C53.9997 100.46 73.3797 95.72 73.5597 107.3ZM77.7456 99.56C77.7456 89.3 84.4056 82.76 93.4056 82.76C100.006 82.76 104.506 86.3 106.366 90.44V83.24H110.566V116H106.366V108.74C104.446 112.94 99.8856 116.48 93.3456 116.48C84.4056 116.48 77.7456 109.82 77.7456 99.56ZM106.366 99.62C106.366 91.46 100.906 86.42 94.1856 86.42C87.2856 86.42 82.0056 91.22 82.0056 99.56C82.0056 107.84 87.2856 112.82 94.1856 112.82C100.906 112.82 106.366 107.78 106.366 99.62ZM116.434 99.56C116.434 89.3 123.094 82.76 132.094 82.76C138.694 82.76 143.194 86.3 145.054 90.44V83.24H149.254V116H145.054V108.74C143.134 112.94 138.574 116.48 132.034 116.48C123.094 116.48 116.434 109.82 116.434 99.56ZM145.054 99.62C145.054 91.46 139.594 86.42 132.874 86.42C125.974 86.42 120.694 91.22 120.694 99.56C120.694 107.84 125.974 112.82 132.874 112.82C139.594 112.82 145.054 107.78 145.054 99.62ZM179.722 107.3C179.722 112.58 175.102 116.48 168.322 116.48C160.882 116.48 155.662 112.76 155.122 106.76H159.442C159.802 110.36 162.922 112.94 168.262 112.94C172.942 112.94 175.582 110.42 175.582 107.3C175.582 99.2 155.902 103.94 155.902 91.64C155.902 86.78 160.522 82.76 167.422 82.76C174.442 82.76 179.062 86.48 179.422 92.78H175.222C174.982 89.12 172.282 86.36 167.302 86.36C162.922 86.36 160.162 88.7 160.162 91.58C160.162 100.46 179.542 95.72 179.722 107.3ZM185.828 116V83.24H190.028V116H185.828ZM192.459 124.76L196.899 109.04H201.579L195.399 124.76H192.459ZM218.395 95.06C218.395 82.58 227.935 73.76 239.695 73.76C248.395 73.76 255.895 78.14 259.075 86.3H250.855C248.635 81.86 244.675 79.76 239.695 79.76C231.415 79.76 225.415 85.64 225.415 95.06C225.415 104.48 231.415 110.42 239.695 110.42C244.675 110.42 248.635 108.32 250.855 103.88H259.075C256.135 111.38 249.595 115.64 241.795 116.3V118.88C246.235 118.88 249.595 121.04 249.595 125.18C249.595 129.26 246.235 131.72 241.975 131.72H234.055V127.4H240.595C242.695 127.4 243.955 126.98 243.955 125.18C243.955 123.38 242.695 122.96 240.595 122.96H237.295V116.24C226.675 115.16 218.395 106.76 218.395 95.06ZM279.201 88.16C274.581 88.16 270.861 91.28 270.141 96.5H288.441C288.321 91.4 284.301 88.16 279.201 88.16ZM294.681 106.16C292.821 111.92 287.601 116.54 279.501 116.54C270.021 116.54 263.001 109.82 263.001 99.44C263.001 89.06 269.721 82.4 279.501 82.4C288.921 82.4 295.581 88.94 295.581 98.66C295.581 99.8 295.521 100.88 295.341 102.02H270.081C270.561 107.48 274.461 110.78 279.501 110.78C283.701 110.78 286.041 108.74 287.301 106.16H294.681ZM296.613 82.94H303.933L313.293 109.88L322.653 82.94H329.913L317.313 116H309.153L296.613 82.94ZM340.123 98.6V116H333.283V82.94H340.123V87.74C342.043 84.44 345.343 82.4 350.023 82.4V89.48H348.283C343.243 89.48 340.123 91.58 340.123 98.6ZM368.43 88.16C363.81 88.16 360.09 91.28 359.37 96.5H377.67C377.55 91.4 373.53 88.16 368.43 88.16ZM383.91 106.16C382.05 111.92 376.83 116.54 368.73 116.54C359.25 116.54 352.23 109.82 352.23 99.44C352.23 89.06 358.95 82.4 368.73 82.4C378.15 82.4 384.81 88.94 384.81 98.66C384.81 99.8 384.75 100.88 384.57 102.02H359.31C359.79 107.48 363.69 110.78 368.73 110.78C372.93 110.78 375.27 108.74 376.53 106.16H383.91ZM16.12 144.3C29.5 144.3 38.26 152.4 38.26 165.3C38.26 178.14 29.5 186 16.12 186H2.5V144.3H16.12ZM9.34 180.42H16.12C25.96 180.42 31.24 174.78 31.24 165.3C31.24 155.76 25.96 149.88 16.12 149.88H9.34V180.42ZM74.7391 169.44C74.7391 179.82 67.0591 186.54 57.5791 186.54C48.1591 186.54 41.0191 179.82 41.0191 169.44C41.0191 159.06 48.4591 152.4 57.8791 152.4C67.2991 152.4 74.7391 159.06 74.7391 169.44ZM47.9791 169.44C47.9791 176.94 52.4191 180.6 57.5791 180.6C62.6791 180.6 67.7191 176.94 67.7191 169.44C67.7191 161.94 62.8591 158.34 57.7591 158.34C52.5991 158.34 47.9791 161.94 47.9791 169.44ZM104.361 176.76C104.361 182.34 99.5008 186.54 91.7008 186.54C83.7808 186.54 78.2008 181.86 77.9008 175.86H84.9808C85.2208 178.56 87.8008 180.78 91.5808 180.78C95.5408 180.78 97.6408 179.1 97.6408 176.82C97.6408 170.34 78.4408 174.06 78.4408 161.94C78.4408 156.66 83.3608 152.4 91.1608 152.4C98.6608 152.4 103.581 156.42 103.941 163.02H97.1008C96.8608 160.14 94.6408 158.16 90.9208 158.16C87.2608 158.16 85.3408 159.66 85.3408 161.88C85.3408 168.54 104.001 164.82 104.361 176.76ZM111.032 176.82V158.52H107.132V152.94H111.032V144.72H117.932V152.94H125.972V158.52H117.932V176.82C117.932 179.28 118.892 180.3 121.772 180.3H125.972V186H120.572C114.692 186 111.032 183.54 111.032 176.82ZM160.416 152.94V186H153.576V182.04C151.416 184.86 147.696 186.48 143.796 186.48C136.056 186.48 130.176 181.62 130.176 172.38V152.94H136.956V171.36C136.956 177.42 140.256 180.54 145.236 180.54C150.276 180.54 153.576 177.42 153.576 171.36V152.94H160.416ZM209.567 186L206.567 177.48H189.107L186.107 186H178.967L193.907 144.24H201.827L216.767 186H209.567ZM204.647 171.9L197.867 152.52L191.027 171.9H204.647ZM219.182 169.32C219.182 159.12 226.082 152.4 234.842 152.4C239.162 152.4 243.722 154.44 246.242 157.56V141.6H253.142V186H246.242V181.02C244.142 184.02 240.182 186.54 234.782 186.54C226.082 186.54 219.182 179.52 219.182 169.32ZM246.242 169.44C246.242 162.36 241.382 158.34 236.222 158.34C231.122 158.34 226.202 162.18 226.202 169.32C226.202 176.46 231.122 180.6 236.222 180.6C241.382 180.6 246.242 176.58 246.242 169.44ZM260.327 186V152.94H267.167V186H260.327ZM321.207 186V167.52C321.207 161.46 317.907 158.34 312.927 158.34C307.887 158.34 304.587 161.46 304.587 167.52V186H297.807V167.52C297.807 161.46 294.507 158.34 289.527 158.34C284.487 158.34 281.187 161.46 281.187 167.52V186H274.347V152.94H281.187V156.72C283.407 154.02 287.007 152.4 290.967 152.4C296.187 152.4 300.567 154.62 302.847 158.94C304.887 154.92 309.567 152.4 314.367 152.4C322.107 152.4 327.987 157.26 327.987 166.5V186H321.207ZM334.891 186V141.6H341.731V186H334.891ZM346.631 169.32C346.631 159.12 353.531 152.4 362.231 152.4C367.811 152.4 371.651 155.04 373.691 157.74V152.94H380.591V186H373.691V181.08C371.591 183.9 367.631 186.54 362.111 186.54C353.531 186.54 346.631 179.52 346.631 169.32ZM373.691 169.44C373.691 162.36 368.831 158.34 363.671 158.34C358.571 158.34 353.651 162.18 353.651 169.32C353.651 176.46 358.571 180.6 363.671 180.6C368.831 180.6 373.691 176.58 373.691 169.44ZM394.615 168.6V186H387.775V152.94H394.615V157.74C396.535 154.44 399.835 152.4 404.515 152.4V159.48H402.775C397.735 159.48 394.615 161.58 394.615 168.6ZM416.082 182.04C416.082 184.5 414.162 186.42 411.762 186.42C409.302 186.42 407.382 184.5 407.382 182.04C407.382 179.58 409.302 177.66 411.762 177.66C414.162 177.66 416.082 179.58 416.082 182.04Z" fill="url(#paint0_linear_0_60)"/>
<defs>
<linearGradient id="paint0_linear_0_60" x1="-2" y1="4" x2="392" y2="177" gradientUnits="userSpaceOnUse">
<stop stop-color="#252525"/>
<stop offset="1" stop-color="#585858"/>
</linearGradient>
</defs>
</svg>
