<svg width="518" height="74" viewBox="0 0 518 74" fill="none" xmlns="http://www.w3.org/2000/svg">
<path d="M6.698 0.981C9.248 0.981 11.254 2.324 12.104 4.585H10.71C10.047 3.055 8.602 2.069 6.698 2.069C4.063 2.069 2.04 3.973 2.04 7.05C2.04 10.127 4.063 12.048 6.698 12.048C9.197 12.048 11.033 10.365 11.22 7.662H6.222V6.693H12.478V7.56C12.291 10.705 9.945 13.119 6.698 13.119C3.366 13.119 0.816 10.62 0.816 7.05C0.816 3.497 3.366 0.981 6.698 0.981ZM18.2789 4.602C16.5959 4.602 15.1169 5.69 14.9809 7.849H21.5089C21.5599 5.69 19.9959 4.602 18.2789 4.602ZM22.5799 10.059C22.1549 11.81 20.6589 13.136 18.3299 13.136C15.6949 13.136 13.7739 11.3 13.7739 8.359C13.7739 5.401 15.6609 3.582 18.3299 3.582C21.0499 3.582 22.7159 5.52 22.7159 7.883C22.7159 8.257 22.7159 8.495 22.6819 8.818H14.9809C15.0829 10.994 16.5959 12.133 18.3299 12.133C19.9109 12.133 20.9819 11.3 21.3219 10.059H22.5799ZM24.009 8.359C24.009 5.418 25.896 3.582 28.514 3.582C30.843 3.582 32.356 4.823 32.781 6.744H31.506C31.2 5.418 30.078 4.602 28.514 4.602C26.695 4.602 25.216 5.843 25.216 8.359C25.216 10.875 26.695 12.133 28.514 12.133C30.078 12.133 31.183 11.334 31.506 9.974H32.781C32.373 11.725 31.013 12.983 28.905 13.119V14.139C30.231 14.105 31.081 14.666 31.081 15.72C31.081 16.74 30.282 17.386 29.092 17.386H27.392V16.587H28.854C29.704 16.587 30.078 16.298 30.078 15.72C30.078 15.193 29.704 14.904 28.854 14.904H28.072V13.119C25.692 12.915 24.009 11.13 24.009 8.359ZM48.2048 13V7.696C48.2048 5.639 47.1338 4.585 45.4848 4.585C43.8018 4.585 42.6118 5.707 42.6118 7.968V13H41.4388V7.696C41.4388 5.639 40.3508 4.585 38.7018 4.585C37.0018 4.585 35.8288 5.707 35.8288 7.968V13H34.6388V3.718H35.8288V5.316C36.4238 4.143 37.5968 3.548 38.9058 3.548C40.4528 3.548 41.7788 4.279 42.3398 5.826C42.8498 4.313 44.2098 3.548 45.6888 3.548C47.7458 3.548 49.3778 4.84 49.3778 7.56V13H48.2048ZM51.6807 13V3.718H52.8707V13H51.6807ZM52.2757 1.967C51.7997 1.967 51.4087 1.593 51.4087 1.083C51.4087 0.573 51.7997 0.215999 52.2757 0.215999C52.7517 0.215999 53.1427 0.573 53.1427 1.083C53.1427 1.593 52.7517 1.967 52.2757 1.967ZM61.6514 10.535C61.6514 11.963 60.4614 13.034 58.6934 13.136V14.139C60.0194 14.105 60.8694 14.666 60.8694 15.72C60.8694 16.74 60.0704 17.386 58.8804 17.386H57.1804V16.587H58.6424C59.4924 16.587 59.8664 16.298 59.8664 15.72C59.8664 15.193 59.4924 14.904 58.6424 14.904H57.8604V13.102C56.0584 12.932 54.8174 11.929 54.6814 10.382H55.9054C56.0074 11.402 56.8914 12.133 58.4044 12.133C59.7304 12.133 60.4784 11.419 60.4784 10.535C60.4784 8.24 54.9024 9.583 54.9024 6.098C54.9024 4.721 56.2114 3.582 58.1664 3.582C60.1554 3.582 61.4644 4.636 61.5664 6.421H60.3764C60.3084 5.384 59.5434 4.602 58.1324 4.602C56.8914 4.602 56.1094 5.265 56.1094 6.081C56.1094 8.597 61.6004 7.254 61.6514 10.535ZM63.8914 10.484V4.721H62.5994V3.718H63.8914V1.389H65.0984V3.718H67.6484V4.721H65.0984V10.484C65.0984 11.623 65.4894 11.98 66.5604 11.98H67.6484V13H66.3734C64.7584 13 63.8914 12.337 63.8914 10.484ZM73.232 4.602C71.549 4.602 70.07 5.69 69.934 7.849H76.462C76.513 5.69 74.949 4.602 73.232 4.602ZM77.533 10.059C77.108 11.81 75.612 13.136 73.283 13.136C70.648 13.136 68.727 11.3 68.727 8.359C68.727 5.401 70.614 3.582 73.283 3.582C76.003 3.582 77.669 5.52 77.669 7.883C77.669 8.257 77.669 8.495 77.635 8.818H69.934C70.036 10.994 71.549 12.133 73.283 12.133C74.864 12.133 75.935 11.3 76.275 10.059H77.533ZM86.4592 13V7.696C86.4592 5.639 85.3372 4.585 83.6372 4.585C81.9032 4.585 80.6962 5.673 80.6962 7.934V13H79.5062V3.718H80.6962V5.299C81.2912 4.143 82.4812 3.548 83.8582 3.548C85.9662 3.548 87.6322 4.84 87.6322 7.56V13H86.4592ZM95.4221 5.775C96.0001 4.551 97.2921 3.582 99.1111 3.582C101.661 3.582 103.531 5.435 103.531 8.342C103.531 11.249 101.644 13.136 99.1111 13.136C97.2581 13.136 95.9831 12.167 95.4221 10.96V13H94.2491V0.42H95.4221V5.775ZM102.324 8.342C102.324 5.979 100.828 4.619 98.8731 4.619C96.9861 4.619 95.4221 6.047 95.4221 8.359C95.4221 10.671 96.9861 12.099 98.8731 12.099C100.828 12.099 102.324 10.688 102.324 8.342ZM113.422 3.718V13H112.232V11.368C111.671 12.541 110.447 13.153 109.07 13.153C106.962 13.153 105.296 11.861 105.296 9.141V3.718H106.469V9.005C106.469 11.062 107.591 12.116 109.291 12.116C111.025 12.116 112.232 11.028 112.232 8.767V3.718H113.422ZM115.255 8.342C115.255 5.435 117.142 3.582 119.692 3.582C121.528 3.582 122.837 4.568 123.364 5.741V3.718H124.554V13.238C124.554 15.839 122.769 17.556 120.219 17.556C117.822 17.556 116.156 16.332 115.782 14.394H116.955C117.346 15.652 118.519 16.519 120.219 16.519C121.987 16.519 123.364 15.346 123.364 13.238V10.943C122.82 12.133 121.528 13.136 119.692 13.136C117.142 13.136 115.255 11.249 115.255 8.342ZM123.364 8.359C123.364 6.047 121.817 4.619 119.913 4.619C117.958 4.619 116.462 5.979 116.462 8.342C116.462 10.688 117.958 12.099 119.913 12.099C121.817 12.099 123.364 10.671 123.364 8.359ZM134.971 3.718V13H133.781V11.368C133.22 12.541 131.996 13.153 130.619 13.153C128.511 13.153 126.845 11.861 126.845 9.141V3.718H128.018V9.005C128.018 11.062 129.14 12.116 130.84 12.116C132.574 12.116 133.781 11.028 133.781 8.767V3.718H134.971ZM129.667 2.409C129.225 2.409 128.885 2.052 128.885 1.627C128.885 1.202 129.225 0.844999 129.667 0.844999C130.092 0.844999 130.449 1.202 130.449 1.627C130.449 2.052 130.092 2.409 129.667 2.409ZM132.285 2.409C131.843 2.409 131.503 2.052 131.503 1.627C131.503 1.202 131.843 0.844999 132.285 0.844999C132.71 0.844999 133.05 1.202 133.05 1.627C133.05 2.052 132.71 2.409 132.285 2.409ZM144.301 13V7.696C144.301 5.639 143.179 4.585 141.479 4.585C139.745 4.585 138.538 5.673 138.538 7.934V13H137.348V3.718H138.538V5.299C139.133 4.143 140.323 3.548 141.7 3.548C143.808 3.548 145.474 4.84 145.474 7.56V13H144.301ZM151.727 4.602C150.044 4.602 148.565 5.69 148.429 7.849H154.957C155.008 5.69 153.444 4.602 151.727 4.602ZM156.028 10.059C155.603 11.81 154.107 13.136 151.778 13.136C149.143 13.136 147.222 11.3 147.222 8.359C147.222 5.401 149.109 3.582 151.778 3.582C154.498 3.582 156.164 5.52 156.164 7.883C156.164 8.257 156.164 8.495 156.13 8.818H148.429C148.531 10.994 150.044 12.133 151.778 12.133C153.359 12.133 154.43 11.3 154.77 10.059H156.028ZM170.367 3.718V13H169.177V11.368C168.616 12.541 167.392 13.153 166.015 13.153C163.907 13.153 162.241 11.861 162.241 9.141V3.718H163.414V9.005C163.414 11.062 164.536 12.116 166.236 12.116C167.97 12.116 169.177 11.028 169.177 8.767V3.718H170.367ZM178.15 3.718V4.704L173.373 12.014H178.235V13H172.013V12.014L176.79 4.704H172.098V3.718H178.15ZM179.364 8.342C179.364 5.435 181.251 3.582 183.801 3.582C185.671 3.582 186.946 4.585 187.473 5.758V3.718H188.663V13H187.473V10.943C186.929 12.133 185.637 13.136 183.784 13.136C181.251 13.136 179.364 11.249 179.364 8.342ZM187.473 8.359C187.473 6.047 185.926 4.619 184.022 4.619C182.067 4.619 180.571 5.979 180.571 8.342C180.571 10.688 182.067 12.099 184.022 12.099C185.926 12.099 187.473 10.671 187.473 8.359ZM197.992 13V7.696C197.992 5.639 196.87 4.585 195.17 4.585C193.436 4.585 192.229 5.673 192.229 7.934V13H191.039V3.718H192.229V5.299C192.824 4.143 194.014 3.548 195.391 3.548C197.499 3.548 199.165 4.84 199.165 7.56V13H197.992ZM200.913 8.342C200.913 5.435 202.8 3.582 205.35 3.582C207.22 3.582 208.495 4.585 209.022 5.758V3.718H210.212V13H209.022V10.943C208.478 12.133 207.186 13.136 205.333 13.136C202.8 13.136 200.913 11.249 200.913 8.342ZM209.022 8.359C209.022 6.047 207.475 4.619 205.571 4.619C203.616 4.619 202.12 5.979 202.12 8.342C202.12 10.688 203.616 12.099 205.571 12.099C207.475 12.099 209.022 10.671 209.022 8.359ZM219.542 13V7.696C219.542 5.639 218.42 4.585 216.72 4.585C214.986 4.585 213.779 5.673 213.779 7.934V13H212.589V3.718H213.779V5.299C214.374 4.143 215.564 3.548 216.941 3.548C219.049 3.548 220.715 4.84 220.715 7.56V13H219.542ZM227.332 13V0.42H228.522V7.866L232.262 3.718H233.928L229.525 8.342L233.962 13H232.347L228.522 8.835V13H227.332ZM243.898 8.359C243.898 11.3 241.841 13.136 239.223 13.136C236.605 13.136 234.616 11.3 234.616 8.359C234.616 5.401 236.656 3.582 239.257 3.582C241.875 3.582 243.898 5.401 243.898 8.359ZM235.823 8.359C235.823 10.909 237.455 12.099 239.223 12.099C240.974 12.099 242.674 10.909 242.674 8.359C242.674 5.809 241.008 4.619 239.24 4.619C237.472 4.619 235.823 5.809 235.823 8.359ZM237.982 2.324C237.54 2.324 237.2 1.967 237.2 1.542C237.2 1.117 237.54 0.76 237.982 0.76C238.407 0.76 238.764 1.117 238.764 1.542C238.764 1.967 238.407 2.324 237.982 2.324ZM240.6 2.324C240.158 2.324 239.818 1.967 239.818 1.542C239.818 1.117 240.158 0.76 240.6 0.76C241.025 0.76 241.365 1.117 241.365 1.542C241.365 1.967 241.025 2.324 240.6 2.324ZM245.727 13V0.42H246.917V7.866L250.657 3.718H252.323L247.92 8.342L252.357 13H250.742L246.917 8.835V13H245.727ZM253.555 13V0.42H254.745V13H253.555ZM265.141 3.718V13H263.951V11.368C263.39 12.541 262.166 13.153 260.789 13.153C258.681 13.153 257.015 11.861 257.015 9.141V3.718H258.188V9.005C258.188 11.062 259.31 12.116 261.01 12.116C262.744 12.116 263.951 11.028 263.951 8.767V3.718H265.141ZM259.837 2.409C259.395 2.409 259.055 2.052 259.055 1.627C259.055 1.202 259.395 0.844999 259.837 0.844999C260.262 0.844999 260.619 1.202 260.619 1.627C260.619 2.052 260.262 2.409 259.837 2.409ZM262.455 2.409C262.013 2.409 261.673 2.052 261.673 1.627C261.673 1.202 262.013 0.844999 262.455 0.844999C262.88 0.844999 263.22 1.202 263.22 1.627C263.22 2.052 262.88 2.409 262.455 2.409ZM271.299 8.342C271.299 5.435 273.186 3.582 275.753 3.582C277.419 3.582 278.813 4.5 279.408 5.724V0.42H280.598V13H279.408V10.926C278.864 12.15 277.572 13.136 275.736 13.136C273.186 13.136 271.299 11.249 271.299 8.342ZM279.408 8.359C279.408 6.047 277.861 4.619 275.957 4.619C274.002 4.619 272.506 5.979 272.506 8.342C272.506 10.688 274.002 12.099 275.957 12.099C277.861 12.099 279.408 10.671 279.408 8.359ZM286.935 4.602C285.252 4.602 283.773 5.69 283.637 7.849H290.165C290.216 5.69 288.652 4.602 286.935 4.602ZM291.236 10.059C290.811 11.81 289.315 13.136 286.986 13.136C284.351 13.136 282.43 11.3 282.43 8.359C282.43 5.401 284.317 3.582 286.986 3.582C289.706 3.582 291.372 5.52 291.372 7.883C291.372 8.257 291.372 8.495 291.338 8.818H283.637C283.739 10.994 285.252 12.133 286.986 12.133C288.567 12.133 289.638 11.3 289.978 10.059H291.236ZM300.162 13V7.696C300.162 5.639 299.04 4.585 297.34 4.585C295.606 4.585 294.399 5.673 294.399 7.934V13H293.209V3.718H294.399V5.299C294.994 4.143 296.184 3.548 297.561 3.548C299.669 3.548 301.335 4.84 301.335 7.56V13H300.162ZM307.588 4.602C305.905 4.602 304.426 5.69 304.29 7.849H310.818C310.869 5.69 309.305 4.602 307.588 4.602ZM311.889 10.059C311.464 11.81 309.968 13.136 307.639 13.136C305.004 13.136 303.083 11.3 303.083 8.359C303.083 5.401 304.97 3.582 307.639 3.582C310.359 3.582 312.025 5.52 312.025 7.883C312.025 8.257 312.025 8.495 311.991 8.818H304.29C304.392 10.994 305.905 12.133 307.639 12.133C309.22 12.133 310.291 11.3 310.631 10.059H311.889ZM317.229 11.64L320.289 3.718H321.513L316.005 17.369H314.764L316.566 12.949L312.758 3.718H314.067L317.229 11.64ZM322.786 13V3.718H323.976V13H322.786ZM323.381 1.967C322.905 1.967 322.514 1.593 322.514 1.083C322.514 0.573 322.905 0.215999 323.381 0.215999C323.857 0.215999 324.248 0.573 324.248 1.083C324.248 1.593 323.857 1.967 323.381 1.967ZM339.897 13V7.696C339.897 5.639 338.826 4.585 337.177 4.585C335.494 4.585 334.304 5.707 334.304 7.968V13H333.131V7.696C333.131 5.639 332.043 4.585 330.394 4.585C328.694 4.585 327.521 5.707 327.521 7.968V13H326.331V3.718H327.521V5.316C328.116 4.143 329.289 3.548 330.598 3.548C332.145 3.548 333.471 4.279 334.032 5.826C334.542 4.313 335.902 3.548 337.381 3.548C339.438 3.548 341.07 4.84 341.07 7.56V13H339.897ZM343.373 13V3.718H344.563V13H343.373ZM343.968 1.967C343.492 1.967 343.101 1.593 343.101 1.083C343.101 0.573 343.492 0.215999 343.968 0.215999C344.444 0.215999 344.835 0.573 344.835 1.083C344.835 1.593 344.444 1.967 343.968 1.967ZM350.138 3.718H351.413L354.541 11.844L357.669 3.718H358.927L355.204 13H353.861L350.138 3.718ZM364.16 4.602C362.477 4.602 360.998 5.69 360.862 7.849H367.39C367.441 5.69 365.877 4.602 364.16 4.602ZM368.461 10.059C368.036 11.81 366.54 13.136 364.211 13.136C361.576 13.136 359.655 11.3 359.655 8.359C359.655 5.401 361.542 3.582 364.211 3.582C366.931 3.582 368.597 5.52 368.597 7.883C368.597 8.257 368.597 8.495 368.563 8.818H360.862C360.964 10.994 362.477 12.133 364.211 12.133C365.792 12.133 366.863 11.3 367.203 10.059H368.461ZM374.216 8.342C374.216 5.435 376.103 3.582 378.653 3.582C380.489 3.582 381.798 4.568 382.325 5.741V3.718H383.515V13.238C383.515 15.839 381.73 17.556 379.18 17.556C376.783 17.556 375.117 16.332 374.743 14.394H375.916C376.307 15.652 377.48 16.519 379.18 16.519C380.948 16.519 382.325 15.346 382.325 13.238V10.943C381.781 12.133 380.489 13.136 378.653 13.136C376.103 13.136 374.216 11.249 374.216 8.342ZM382.325 8.359C382.325 6.047 380.778 4.619 378.874 4.619C376.919 4.619 375.423 5.979 375.423 8.342C375.423 10.688 376.919 12.099 378.874 12.099C380.778 12.099 382.325 10.671 382.325 8.359ZM389.852 4.602C388.169 4.602 386.69 5.69 386.554 7.849H393.082C393.133 5.69 391.569 4.602 389.852 4.602ZM394.153 10.059C393.728 11.81 392.232 13.136 389.903 13.136C387.268 13.136 385.347 11.3 385.347 8.359C385.347 5.401 387.234 3.582 389.903 3.582C392.623 3.582 394.289 5.52 394.289 7.883C394.289 8.257 394.289 8.495 394.255 8.818H386.554C386.656 10.994 388.169 12.133 389.903 12.133C391.484 12.133 392.555 11.3 392.895 10.059H394.153ZM396.127 13V0.42H397.317V13H396.127ZM403.632 4.602C401.949 4.602 400.47 5.69 400.334 7.849H406.862C406.913 5.69 405.349 4.602 403.632 4.602ZM407.933 10.059C407.508 11.81 406.012 13.136 403.683 13.136C401.048 13.136 399.127 11.3 399.127 8.359C399.127 5.401 401.014 3.582 403.683 3.582C406.403 3.582 408.069 5.52 408.069 7.883C408.069 8.257 408.069 8.495 408.035 8.818H400.334C400.436 10.994 401.949 12.133 403.683 12.133C405.264 12.133 406.335 11.3 406.675 10.059H407.933ZM409.363 8.359C409.363 5.418 411.25 3.582 413.868 3.582C416.197 3.582 417.71 4.823 418.135 6.744H416.86C416.554 5.418 415.432 4.602 413.868 4.602C412.049 4.602 410.57 5.843 410.57 8.359C410.57 10.875 412.049 12.133 413.868 12.133C415.432 12.133 416.537 11.334 416.86 9.974H418.135C417.71 11.827 416.197 13.136 413.868 13.136C411.25 13.136 409.363 11.3 409.363 8.359ZM423.953 4.602C422.27 4.602 420.791 5.69 420.655 7.849H427.183C427.234 5.69 425.67 4.602 423.953 4.602ZM428.254 10.059C427.829 11.81 426.333 13.136 424.004 13.136C421.369 13.136 419.448 11.3 419.448 8.359C419.448 5.401 421.335 3.582 424.004 3.582C426.724 3.582 428.39 5.52 428.39 7.883C428.39 8.257 428.39 8.495 428.356 8.818H420.655C420.757 10.994 422.27 12.133 424.004 12.133C425.585 12.133 426.656 11.3 426.996 10.059H428.254ZM430.227 13V0.42H431.417V7.866L435.157 3.718H436.823L432.42 8.342L436.857 13H435.242L431.417 8.835V13H430.227ZM451.119 8.359C451.119 11.3 449.062 13.136 446.444 13.136C443.826 13.136 441.837 11.3 441.837 8.359C441.837 5.401 443.877 3.582 446.478 3.582C449.096 3.582 451.119 5.401 451.119 8.359ZM443.044 8.359C443.044 10.909 444.676 12.099 446.444 12.099C448.195 12.099 449.895 10.909 449.895 8.359C449.895 5.809 448.229 4.619 446.461 4.619C444.693 4.619 443.044 5.809 443.044 8.359ZM452.404 8.342C452.404 5.435 454.291 3.582 456.858 3.582C458.524 3.582 459.918 4.5 460.513 5.724V0.42H461.703V13H460.513V10.926C459.969 12.15 458.677 13.136 456.841 13.136C454.291 13.136 452.404 11.249 452.404 8.342ZM460.513 8.359C460.513 6.047 458.966 4.619 457.062 4.619C455.107 4.619 453.611 5.979 453.611 8.342C453.611 10.688 455.107 12.099 457.062 12.099C458.966 12.099 460.513 10.671 460.513 8.359ZM463.535 8.342C463.535 5.435 465.422 3.582 467.972 3.582C469.842 3.582 471.117 4.585 471.644 5.758V3.718H472.834V13H471.644V10.943C471.1 12.133 469.808 13.136 467.955 13.136C465.422 13.136 463.535 11.249 463.535 8.342ZM471.644 8.359C471.644 6.047 470.097 4.619 468.193 4.619C466.238 4.619 464.742 5.979 464.742 8.342C464.742 10.688 466.238 12.099 468.193 12.099C470.097 12.099 471.644 10.671 471.644 8.359ZM475.211 13V0.42H476.401V7.866L480.141 3.718H481.807L477.404 8.342L481.841 13H480.226L476.401 8.835V13H475.211ZM483.039 13V0.42H484.229V13H483.039ZM486.584 13V3.718H487.774V13H486.584ZM4.726 39.64L7.786 31.718H9.01L3.502 45.369H2.261L4.063 40.949L0.255 31.718H1.564L4.726 39.64ZM9.73967 36.342C9.73967 33.435 11.6267 31.582 14.1767 31.582C16.0467 31.582 17.3217 32.585 17.8487 33.758V31.718H19.0387V41H17.8487V38.943C17.3047 40.133 16.0127 41.136 14.1597 41.136C11.6267 41.136 9.73967 39.249 9.73967 36.342ZM17.8487 36.359C17.8487 34.047 16.3017 32.619 14.3977 32.619C12.4427 32.619 10.9467 33.979 10.9467 36.342C10.9467 38.688 12.4427 40.099 14.3977 40.099C16.3017 40.099 17.8487 38.671 17.8487 36.359ZM21.4154 41V28.42H22.6054V35.866L26.3454 31.718H28.0114L23.6084 36.342L28.0454 41H26.4304L22.6054 36.835V41H21.4154ZM29.2433 41V28.42H30.4333V41H29.2433ZM32.2441 36.342C32.2441 33.435 34.1311 31.582 36.6811 31.582C38.5511 31.582 39.8261 32.585 40.3531 33.758V31.718H41.5431V41H40.3531V38.943C39.8091 40.133 38.5171 41.136 36.6641 41.136C34.1311 41.136 32.2441 39.249 32.2441 36.342ZM40.3531 36.359C40.3531 34.047 38.8061 32.619 36.9021 32.619C34.9471 32.619 33.4511 33.979 33.4511 36.342C33.4511 38.688 34.9471 40.099 36.9021 40.099C38.8061 40.099 40.3531 38.671 40.3531 36.359ZM50.3458 38.535C50.3458 39.963 49.1558 41.034 47.3878 41.136V42.139C48.7138 42.105 49.5638 42.666 49.5638 43.72C49.5638 44.74 48.7648 45.386 47.5748 45.386H45.8748V44.587H47.3368C48.1868 44.587 48.5608 44.298 48.5608 43.72C48.5608 43.193 48.1868 42.904 47.3368 42.904H46.5548V41.102C44.7528 40.932 43.5118 39.929 43.3758 38.382H44.5998C44.7018 39.402 45.5858 40.133 47.0988 40.133C48.4248 40.133 49.1728 39.419 49.1728 38.535C49.1728 36.24 43.5968 37.583 43.5968 34.098C43.5968 32.721 44.9058 31.582 46.8608 31.582C48.8498 31.582 50.1588 32.636 50.2608 34.421H49.0708C49.0028 33.384 48.2378 32.602 46.8268 32.602C45.5858 32.602 44.8038 33.265 44.8038 34.081C44.8038 36.597 50.2948 35.254 50.3458 38.535ZM52.2458 41V31.718H53.4358V41H52.2458ZM69.3565 41V35.696C69.3565 33.639 68.2855 32.585 66.6365 32.585C64.9535 32.585 63.7635 33.707 63.7635 35.968V41H62.5905V35.696C62.5905 33.639 61.5025 32.585 59.8535 32.585C58.1535 32.585 56.9805 33.707 56.9805 35.968V41H55.7905V31.718H56.9805V33.316C57.5755 32.143 58.7485 31.548 60.0575 31.548C61.6045 31.548 62.9305 32.279 63.4915 33.826C64.0015 32.313 65.3615 31.548 66.8405 31.548C68.8975 31.548 70.5295 32.84 70.5295 35.56V41H69.3565ZM72.8324 41V31.718H74.0224V41H72.8324ZM79.7432 39.64L82.8032 31.718H84.0272L78.5192 45.369H77.2782L79.0802 40.949L75.2722 31.718H76.5812L79.7432 39.64ZM85.3008 41V28.42H86.4908V41H85.3008ZM88.3016 36.342C88.3016 33.435 90.1886 31.582 92.7386 31.582C94.6086 31.582 95.8836 32.585 96.4106 33.758V31.718H97.6006V41H96.4106V38.943C95.8666 40.133 94.5746 41.136 92.7216 41.136C90.1886 41.136 88.3016 39.249 88.3016 36.342ZM96.4106 36.359C96.4106 34.047 94.8636 32.619 92.9596 32.619C91.0046 32.619 89.5086 33.979 89.5086 36.342C89.5086 38.688 91.0046 40.099 92.9596 40.099C94.8636 40.099 96.4106 38.671 96.4106 36.359ZM98.4813 43.482L99.7393 39.028H101.065L99.3143 43.482H98.4813ZM120.467 41V35.696C120.467 33.639 119.396 32.585 117.747 32.585C116.064 32.585 114.874 33.707 114.874 35.968V41H113.701V35.696C113.701 33.639 112.613 32.585 110.964 32.585C109.264 32.585 108.091 33.707 108.091 35.968V41H106.901V31.718H108.091V33.316C108.686 32.143 109.859 31.548 111.168 31.548C112.715 31.548 114.041 32.279 114.602 33.826C115.112 32.313 116.472 31.548 117.951 31.548C120.008 31.548 121.64 32.84 121.64 35.56V41H120.467ZM131.984 31.718V41H130.794V39.368C130.233 40.541 129.009 41.153 127.632 41.153C125.524 41.153 123.858 39.861 123.858 37.141V31.718H125.031V37.005C125.031 39.062 126.153 40.116 127.853 40.116C129.587 40.116 130.794 39.028 130.794 36.767V31.718H131.984ZM126.68 30.409C126.238 30.409 125.898 30.052 125.898 29.627C125.898 29.202 126.238 28.845 126.68 28.845C127.105 28.845 127.462 29.202 127.462 29.627C127.462 30.052 127.105 30.409 126.68 30.409ZM129.298 30.409C128.856 30.409 128.516 30.052 128.516 29.627C128.516 29.202 128.856 28.845 129.298 28.845C129.723 28.845 130.063 29.202 130.063 29.627C130.063 30.052 129.723 30.409 129.298 30.409ZM140.786 38.535C140.786 39.963 139.596 41.034 137.828 41.136V42.139C139.154 42.105 140.004 42.666 140.004 43.72C140.004 44.74 139.205 45.386 138.015 45.386H136.315V44.587H137.777C138.627 44.587 139.001 44.298 139.001 43.72C139.001 43.193 138.627 42.904 137.777 42.904H136.995V41.102C135.193 40.932 133.952 39.929 133.816 38.382H135.04C135.142 39.402 136.026 40.133 137.539 40.133C138.865 40.133 139.613 39.419 139.613 38.535C139.613 36.24 134.037 37.583 134.037 34.098C134.037 32.721 135.346 31.582 137.301 31.582C139.29 31.582 140.599 32.636 140.701 34.421H139.511C139.443 33.384 138.678 32.602 137.267 32.602C136.026 32.602 135.244 33.265 135.244 34.081C135.244 36.597 140.735 35.254 140.786 38.535ZM143.026 38.484V32.721H141.734V31.718H143.026V29.389H144.233V31.718H146.783V32.721H144.233V38.484C144.233 39.623 144.624 39.98 145.695 39.98H146.783V41H145.508C143.893 41 143.026 40.337 143.026 38.484ZM152.367 32.602C150.684 32.602 149.205 33.69 149.069 35.849H155.597C155.648 33.69 154.084 32.602 152.367 32.602ZM156.668 38.059C156.243 39.81 154.747 41.136 152.418 41.136C149.783 41.136 147.862 39.3 147.862 36.359C147.862 33.401 149.749 31.582 152.418 31.582C155.138 31.582 156.804 33.52 156.804 35.883C156.804 36.257 156.804 36.495 156.77 36.818H149.069C149.171 38.994 150.684 40.133 152.418 40.133C153.999 40.133 155.07 39.3 155.41 38.059H156.668ZM159.831 35.815V41H158.641V31.718H159.831V33.367C160.341 32.228 161.412 31.548 163.01 31.548V32.789H162.687C161.14 32.789 159.831 33.486 159.831 35.815ZM164.46 41V31.718H165.65V41H164.46ZM165.055 29.967C164.579 29.967 164.188 29.593 164.188 29.083C164.188 28.573 164.579 28.216 165.055 28.216C165.531 28.216 165.922 28.573 165.922 29.083C165.922 29.593 165.531 29.967 165.055 29.967ZM168.005 41V28.42H169.195V41H168.005ZM175.511 32.602C173.828 32.602 172.349 33.69 172.213 35.849H178.741C178.792 33.69 177.228 32.602 175.511 32.602ZM179.812 38.059C179.387 39.81 177.891 41.136 175.562 41.136C172.927 41.136 171.006 39.3 171.006 36.359C171.006 33.401 172.893 31.582 175.562 31.582C178.282 31.582 179.948 33.52 179.948 35.883C179.948 36.257 179.948 36.495 179.914 36.818H172.213C172.315 38.994 173.828 40.133 175.562 40.133C177.143 40.133 178.214 39.3 178.554 38.059H179.812ZM182.975 35.815V41H181.785V31.718H182.975V33.367C183.485 32.228 184.556 31.548 186.154 31.548V32.789H185.831C184.284 32.789 182.975 33.486 182.975 35.815ZM187.604 41V31.718H188.794V41H187.604ZM188.199 29.967C187.723 29.967 187.332 29.593 187.332 29.083C187.332 28.573 187.723 28.216 188.199 28.216C188.675 28.216 189.066 28.573 189.066 29.083C189.066 29.593 188.675 29.967 188.199 29.967ZM204.715 41V35.696C204.715 33.639 203.644 32.585 201.995 32.585C200.312 32.585 199.122 33.707 199.122 35.968V41H197.949V35.696C197.949 33.639 196.861 32.585 195.212 32.585C193.512 32.585 192.339 33.707 192.339 35.968V41H191.149V31.718H192.339V33.316C192.934 32.143 194.107 31.548 195.416 31.548C196.963 31.548 198.289 32.279 198.85 33.826C199.36 32.313 200.72 31.548 202.199 31.548C204.256 31.548 205.888 32.84 205.888 35.56V41H204.715ZM208.191 41V31.718H209.381V41H208.191ZM208.786 29.967C208.31 29.967 207.919 29.593 207.919 29.083C207.919 28.573 208.31 28.216 208.786 28.216C209.262 28.216 209.653 28.573 209.653 29.083C209.653 29.593 209.262 29.967 208.786 29.967ZM217.142 31.718V32.704L212.365 40.014H217.227V41H211.005V40.014L215.782 32.704H211.09V31.718H217.142ZM222.861 32.602C221.178 32.602 219.699 33.69 219.563 35.849H226.091C226.142 33.69 224.578 32.602 222.861 32.602ZM227.162 38.059C226.737 39.81 225.241 41.136 222.912 41.136C220.277 41.136 218.356 39.3 218.356 36.359C218.356 33.401 220.243 31.582 222.912 31.582C225.632 31.582 227.298 33.52 227.298 35.883C227.298 36.257 227.298 36.495 227.264 36.818H219.563C219.665 38.994 221.178 40.133 222.912 40.133C224.493 40.133 225.564 39.3 225.904 38.059H227.162ZM237.421 32.602C235.738 32.602 234.259 33.69 234.123 35.849H240.651C240.702 33.69 239.138 32.602 237.421 32.602ZM241.722 38.059C241.297 39.81 239.801 41.136 237.472 41.136C234.837 41.136 232.916 39.3 232.916 36.359C232.916 33.401 234.803 31.582 237.472 31.582C240.192 31.582 241.858 33.52 241.858 35.883C241.858 36.257 241.858 36.495 241.824 36.818H234.123C234.225 38.994 235.738 40.133 237.472 40.133C239.053 40.133 240.124 39.3 240.464 38.059H241.722ZM250.648 41V35.696C250.648 33.639 249.526 32.585 247.826 32.585C246.092 32.585 244.885 33.673 244.885 35.934V41H243.695V31.718H244.885V33.299C245.48 32.143 246.67 31.548 248.047 31.548C250.155 31.548 251.821 32.84 251.821 35.56V41H250.648ZM261.804 39.64L264.864 31.718H266.088L260.58 45.369H259.339L261.141 40.949L257.333 31.718H258.642L261.804 39.64ZM275.403 31.718V41H274.213V39.368C273.652 40.541 272.428 41.153 271.051 41.153C268.943 41.153 267.277 39.861 267.277 37.141V31.718H268.45V37.005C268.45 39.062 269.572 40.116 271.272 40.116C273.006 40.116 274.213 39.028 274.213 36.767V31.718H275.403ZM270.099 30.409C269.657 30.409 269.317 30.052 269.317 29.627C269.317 29.202 269.657 28.845 270.099 28.845C270.524 28.845 270.881 29.202 270.881 29.627C270.881 30.052 270.524 30.409 270.099 30.409ZM272.717 30.409C272.275 30.409 271.935 30.052 271.935 29.627C271.935 29.202 272.275 28.845 272.717 28.845C273.142 28.845 273.482 29.202 273.482 29.627C273.482 30.052 273.142 30.409 272.717 30.409ZM277.779 41V28.42H278.969V35.866L282.709 31.718H284.375L279.972 36.342L284.409 41H282.794L278.969 36.835V41H277.779ZM292.033 38.535C292.033 40.031 290.724 41.136 288.803 41.136C286.695 41.136 285.216 40.082 285.063 38.382H286.287C286.389 39.402 287.273 40.133 288.786 40.133C290.112 40.133 290.86 39.419 290.86 38.535C290.86 36.24 285.284 37.583 285.284 34.098C285.284 32.721 286.593 31.582 288.548 31.582C290.537 31.582 291.846 32.636 291.948 34.421H290.758C290.69 33.384 289.925 32.602 288.514 32.602C287.273 32.602 286.491 33.265 286.491 34.081C286.491 36.597 291.982 35.254 292.033 38.535ZM297.894 32.602C296.211 32.602 294.732 33.69 294.596 35.849H301.124C301.175 33.69 299.611 32.602 297.894 32.602ZM302.195 38.059C301.77 39.81 300.274 41.136 297.945 41.136C295.31 41.136 293.389 39.3 293.389 36.359C293.389 33.401 295.276 31.582 297.945 31.582C300.665 31.582 302.331 33.52 302.331 35.883C302.331 36.257 302.331 36.495 302.297 36.818H294.596C294.698 38.994 296.211 40.133 297.945 40.133C299.526 40.133 300.597 39.3 300.937 38.059H302.195ZM304.169 41V28.42H305.359V35.866L309.099 31.718H310.765L306.362 36.342L310.799 41H309.184L305.359 36.835V41H304.169ZM316.322 41V28.42H317.512V35.866L321.252 31.718H322.918L318.515 36.342L322.952 41H321.337L317.512 36.835V41H316.322ZM323.605 36.342C323.605 33.435 325.492 31.582 328.042 31.582C329.912 31.582 331.187 32.585 331.714 33.758V31.718H332.904V41H331.714V38.943C331.17 40.133 329.878 41.136 328.025 41.136C325.492 41.136 323.605 39.249 323.605 36.342ZM331.714 36.359C331.714 34.047 330.167 32.619 328.263 32.619C326.308 32.619 324.812 33.979 324.812 36.342C324.812 38.688 326.308 40.099 328.263 40.099C330.167 40.099 331.714 38.671 331.714 36.359ZM335.281 41V28.42H336.471V41H335.281ZM338.826 41V31.718H340.016V41H338.826ZM339.421 29.967C338.945 29.967 338.554 29.593 338.554 29.083C338.554 28.573 338.945 28.216 339.421 28.216C339.897 28.216 340.288 28.573 340.288 29.083C340.288 29.593 339.897 29.967 339.421 29.967ZM342.711 38.484V32.721H341.419V31.718H342.711V29.389H343.918V31.718H346.468V32.721H343.918V38.484C343.918 39.623 344.309 39.98 345.38 39.98H346.468V41H345.193C343.578 41 342.711 40.337 342.711 38.484ZM352.051 32.602C350.368 32.602 348.889 33.69 348.753 35.849H355.281C355.332 33.69 353.768 32.602 352.051 32.602ZM356.352 38.059C355.927 39.81 354.431 41.136 352.102 41.136C349.467 41.136 347.546 39.3 347.546 36.359C347.546 33.401 349.433 31.582 352.102 31.582C354.822 31.582 356.488 33.52 356.488 35.883C356.488 36.257 356.488 36.495 356.454 36.818H348.753C348.855 38.994 350.368 40.133 352.102 40.133C353.683 40.133 354.754 39.3 355.094 38.059H356.352ZM357.781 36.342C357.781 33.435 359.668 31.582 362.235 31.582C363.901 31.582 365.295 32.5 365.89 33.724V28.42H367.08V41H365.89V38.926C365.346 40.15 364.054 41.136 362.218 41.136C359.668 41.136 357.781 39.249 357.781 36.342ZM365.89 36.359C365.89 34.047 364.343 32.619 362.439 32.619C360.484 32.619 358.988 33.979 358.988 36.342C358.988 38.688 360.484 40.099 362.439 40.099C364.343 40.099 365.89 38.671 365.89 36.359ZM373.418 32.602C371.735 32.602 370.256 33.69 370.12 35.849H376.648C376.699 33.69 375.135 32.602 373.418 32.602ZM377.719 38.059C377.294 39.81 375.798 41.136 373.469 41.136C370.834 41.136 368.913 39.3 368.913 36.359C368.913 33.401 370.8 31.582 373.469 31.582C376.189 31.582 377.855 33.52 377.855 35.883C377.855 36.257 377.855 36.495 377.821 36.818H370.12C370.222 38.994 371.735 40.133 373.469 40.133C375.05 40.133 376.121 39.3 376.461 38.059H377.719ZM384.017 41V28.42H385.207V33.299C385.802 32.16 387.026 31.548 388.437 31.548C390.494 31.548 392.143 32.84 392.143 35.56V41H390.97V35.696C390.97 33.639 389.848 32.585 388.148 32.585C386.414 32.585 385.207 33.673 385.207 35.934V41H384.017ZM394.435 41V31.718H395.625V41H394.435ZM395.03 29.967C394.554 29.967 394.163 29.593 394.163 29.083C394.163 28.573 394.554 28.216 395.03 28.216C395.506 28.216 395.897 28.573 395.897 29.083C395.897 29.593 395.506 29.967 395.03 29.967ZM403.386 31.718V32.704L398.609 40.014H403.471V41H397.249V40.014L402.026 32.704H397.334V31.718H403.386ZM418.71 41V35.696C418.71 33.639 417.639 32.585 415.99 32.585C414.307 32.585 413.117 33.707 413.117 35.968V41H411.944V35.696C411.944 33.639 410.856 32.585 409.207 32.585C407.507 32.585 406.334 33.707 406.334 35.968V41H405.144V31.718H406.334V33.316C406.929 32.143 408.102 31.548 409.411 31.548C410.958 31.548 412.284 32.279 412.845 33.826C413.355 32.313 414.715 31.548 416.194 31.548C418.251 31.548 419.883 32.84 419.883 35.56V41H418.71ZM426.147 32.602C424.464 32.602 422.985 33.69 422.849 35.849H429.377C429.428 33.69 427.864 32.602 426.147 32.602ZM430.448 38.059C430.023 39.81 428.527 41.136 426.198 41.136C423.563 41.136 421.642 39.3 421.642 36.359C421.642 33.401 423.529 31.582 426.198 31.582C428.918 31.582 430.584 33.52 430.584 35.883C430.584 36.257 430.584 36.495 430.55 36.818H422.849C422.951 38.994 424.464 40.133 426.198 40.133C427.779 40.133 428.85 39.3 429.19 38.059H430.448ZM432.761 38.484V32.721H431.469V31.718H432.761V29.389H433.968V31.718H436.518V32.721H433.968V38.484C433.968 39.623 434.359 39.98 435.43 39.98H436.518V41H435.243C433.628 41 432.761 40.337 432.761 38.484ZM448.891 38.535C448.891 40.031 447.582 41.136 445.661 41.136C443.553 41.136 442.074 40.082 441.921 38.382H443.145C443.247 39.402 444.131 40.133 445.644 40.133C446.97 40.133 447.718 39.419 447.718 38.535C447.718 36.24 442.142 37.583 442.142 34.098C442.142 32.721 443.451 31.582 445.406 31.582C447.395 31.582 448.704 32.636 448.806 34.421H447.616C447.548 33.384 446.783 32.602 445.372 32.602C444.131 32.602 443.349 33.265 443.349 34.081C443.349 36.597 448.84 35.254 448.891 38.535ZM458.833 31.718V41H457.643V39.368C457.082 40.541 455.858 41.153 454.481 41.153C452.373 41.153 450.707 39.861 450.707 37.141V31.718H451.88V37.005C451.88 39.062 453.002 40.116 454.702 40.116C456.436 40.116 457.643 39.028 457.643 36.767V31.718H458.833ZM468.162 41V35.696C468.162 33.639 467.04 32.585 465.34 32.585C463.606 32.585 462.399 33.673 462.399 35.934V41H461.209V31.718H462.399V33.299C462.994 32.143 464.184 31.548 465.561 31.548C467.669 31.548 469.335 32.84 469.335 35.56V41H468.162ZM485.193 41V35.696C485.193 33.639 484.122 32.585 482.473 32.585C480.79 32.585 479.6 33.707 479.6 35.968V41H478.427V35.696C478.427 33.639 477.339 32.585 475.69 32.585C473.99 32.585 472.817 33.707 472.817 35.968V41H471.627V31.718H472.817V33.316C473.412 32.143 474.585 31.548 475.894 31.548C477.441 31.548 478.767 32.279 479.328 33.826C479.838 32.313 481.198 31.548 482.677 31.548C484.734 31.548 486.366 32.84 486.366 35.56V41H485.193ZM488.125 36.342C488.125 33.435 490.012 31.582 492.562 31.582C494.432 31.582 495.707 32.585 496.234 33.758V31.718H497.424V41H496.234V38.943C495.69 40.133 494.398 41.136 492.545 41.136C490.012 41.136 488.125 39.249 488.125 36.342ZM496.234 36.359C496.234 34.047 494.687 32.619 492.783 32.619C490.828 32.619 489.332 33.979 489.332 36.342C489.332 38.688 490.828 40.099 492.783 40.099C494.687 40.099 496.234 38.671 496.234 36.359ZM503.167 39.64L506.227 31.718H507.451L501.943 45.369H500.702L502.504 40.949L498.696 31.718H500.005L503.167 39.64ZM508.18 36.342C508.18 33.435 510.067 31.582 512.617 31.582C514.487 31.582 515.762 32.585 516.289 33.758V31.718H517.479V41H516.289V38.943C515.745 40.133 514.453 41.136 512.6 41.136C510.067 41.136 508.18 39.249 508.18 36.342ZM516.289 36.359C516.289 34.047 514.742 32.619 512.838 32.619C510.883 32.619 509.387 33.979 509.387 36.342C509.387 38.688 510.883 40.099 512.838 40.099C514.742 40.099 516.289 38.671 516.289 36.359ZM0.255 59.718H1.53L4.658 67.844L7.786 59.718H9.044L5.321 69H3.978L0.255 59.718ZM14.2779 60.602C12.5949 60.602 11.1159 61.69 10.9799 63.849H17.5079C17.5589 61.69 15.9949 60.602 14.2779 60.602ZM18.5789 66.059C18.1539 67.81 16.6579 69.136 14.3289 69.136C11.6939 69.136 9.77287 67.3 9.77287 64.359C9.77287 61.401 11.6599 59.582 14.3289 59.582C17.0489 59.582 18.7149 61.52 18.7149 63.883C18.7149 64.257 18.7149 64.495 18.6809 64.818H10.9799C11.0819 66.994 12.5949 68.133 14.3289 68.133C15.9099 68.133 16.9809 67.3 17.3209 66.059H18.5789ZM24.3331 64.359C24.3331 61.418 26.2201 59.582 28.8381 59.582C31.1671 59.582 32.6801 60.823 33.1051 62.744H31.8301C31.5241 61.418 30.4021 60.602 28.8381 60.602C27.0191 60.602 25.5401 61.843 25.5401 64.359C25.5401 66.875 27.0191 68.133 28.8381 68.133C30.4021 68.133 31.5071 67.334 31.8301 65.974H33.1051C32.6971 67.725 31.3371 68.983 29.2291 69.119V70.139C30.5551 70.105 31.4051 70.666 31.4051 71.72C31.4051 72.74 30.6061 73.386 29.4161 73.386H27.7161V72.587H29.1781C30.0281 72.587 30.4021 72.298 30.4021 71.72C30.4021 71.193 30.0281 70.904 29.1781 70.904H28.3961V69.119C26.0161 68.915 24.3331 67.13 24.3331 64.359ZM38.9239 60.602C37.2409 60.602 35.7619 61.69 35.6259 63.849H42.1539C42.2049 61.69 40.6409 60.602 38.9239 60.602ZM43.2249 66.059C42.7999 67.81 41.3039 69.136 38.9749 69.136C36.3399 69.136 34.4189 67.3 34.4189 64.359C34.4189 61.401 36.3059 59.582 38.9749 59.582C41.6949 59.582 43.3609 61.52 43.3609 63.883C43.3609 64.257 43.3609 64.495 43.3269 64.818H35.6259C35.7279 66.994 37.2409 68.133 38.9749 68.133C40.5559 68.133 41.6269 67.3 41.9669 66.059H43.2249ZM44.0931 59.718H45.3681L48.4961 67.844L51.6241 59.718H52.8821L49.1591 69H47.8161L44.0931 59.718ZM55.345 63.815V69H54.155V59.718H55.345V61.367C55.855 60.228 56.926 59.548 58.524 59.548V60.789H58.201C56.654 60.789 55.345 61.486 55.345 63.815ZM63.9351 60.602C62.2521 60.602 60.7731 61.69 60.6371 63.849H67.1651C67.2161 61.69 65.6521 60.602 63.9351 60.602ZM68.2361 66.059C67.8111 67.81 66.3151 69.136 63.9861 69.136C61.3511 69.136 59.4301 67.3 59.4301 64.359C59.4301 61.401 61.3171 59.582 63.9861 59.582C66.7061 59.582 68.3721 61.52 68.3721 63.883C68.3721 64.257 68.3721 64.495 68.3381 64.818H60.6371C60.7391 66.994 62.2521 68.133 63.9861 68.133C65.5671 68.133 66.6381 67.3 66.9781 66.059H68.2361ZM73.5753 67.64L76.6353 59.718H77.8593L72.3513 73.369H71.1103L72.9123 68.949L69.1043 59.718H70.4133L73.5753 67.64ZM83.094 60.602C81.411 60.602 79.932 61.69 79.796 63.849H86.324C86.375 61.69 84.811 60.602 83.094 60.602ZM87.395 66.059C86.97 67.81 85.474 69.136 83.145 69.136C80.51 69.136 78.589 67.3 78.589 64.359C78.589 61.401 80.476 59.582 83.145 59.582C85.865 59.582 87.531 61.52 87.531 63.883C87.531 64.257 87.531 64.495 87.497 64.818H79.796C79.898 66.994 81.411 68.133 83.145 68.133C84.726 68.133 85.797 67.3 86.137 66.059H87.395ZM93.1492 64.342C93.1492 61.435 95.0362 59.582 97.6032 59.582C99.2692 59.582 100.663 60.5 101.258 61.724V56.42H102.448V69H101.258V66.926C100.714 68.15 99.4222 69.136 97.5862 69.136C95.0362 69.136 93.1492 67.249 93.1492 64.342ZM101.258 64.359C101.258 62.047 99.7112 60.619 97.8072 60.619C95.8522 60.619 94.3562 61.979 94.3562 64.342C94.3562 66.688 95.8522 68.099 97.8072 68.099C99.7112 68.099 101.258 66.671 101.258 64.359ZM108.786 60.602C107.103 60.602 105.624 61.69 105.488 63.849H112.016C112.067 61.69 110.503 60.602 108.786 60.602ZM113.087 66.059C112.662 67.81 111.166 69.136 108.837 69.136C106.202 69.136 104.281 67.3 104.281 64.359C104.281 61.401 106.168 59.582 108.837 59.582C111.557 59.582 113.223 61.52 113.223 63.883C113.223 64.257 113.223 64.495 113.189 64.818H105.488C105.59 66.994 107.103 68.133 108.837 68.133C110.418 68.133 111.489 67.3 111.829 66.059H113.087ZM114.516 64.342C114.516 61.435 116.403 59.582 118.953 59.582C120.789 59.582 122.098 60.568 122.625 61.741V59.718H123.815V69.238C123.815 71.839 122.03 73.556 119.48 73.556C117.083 73.556 115.417 72.332 115.043 70.394H116.216C116.607 71.652 117.78 72.519 119.48 72.519C121.248 72.519 122.625 71.346 122.625 69.238V66.943C122.081 68.133 120.789 69.136 118.953 69.136C116.403 69.136 114.516 67.249 114.516 64.342ZM122.625 64.359C122.625 62.047 121.078 60.619 119.174 60.619C117.219 60.619 115.723 61.979 115.723 64.342C115.723 66.688 117.219 68.099 119.174 68.099C121.078 68.099 122.625 66.671 122.625 64.359ZM121.775 56.607C121.775 57.746 120.993 58.698 119.463 58.698C117.933 58.698 117.168 57.746 117.168 56.607V56.386H117.916C117.916 57.253 118.375 57.746 119.463 57.746C120.551 57.746 121.01 57.253 121.01 56.386H121.775V56.607ZM130.153 60.602C128.47 60.602 126.991 61.69 126.855 63.849H133.383C133.434 61.69 131.87 60.602 130.153 60.602ZM134.454 66.059C134.029 67.81 132.533 69.136 130.204 69.136C127.569 69.136 125.648 67.3 125.648 64.359C125.648 61.401 127.535 59.582 130.204 59.582C132.924 59.582 134.59 61.52 134.59 63.883C134.59 64.257 134.59 64.495 134.556 64.818H126.855C126.957 66.994 128.47 68.133 130.204 68.133C131.785 68.133 132.856 67.3 133.196 66.059H134.454ZM137.617 63.815V69H136.427V59.718H137.617V61.367C138.127 60.228 139.198 59.548 140.796 59.548V60.789H140.473C138.926 60.789 137.617 61.486 137.617 63.815ZM146.571 69V56.42H147.761V63.866L151.501 59.718H153.167L148.764 64.342L153.201 69H151.586L147.761 64.835V69H146.571ZM153.855 64.342C153.855 61.435 155.742 59.582 158.292 59.582C160.162 59.582 161.437 60.585 161.964 61.758V59.718H163.154V69H161.964V66.943C161.42 68.133 160.128 69.136 158.275 69.136C155.742 69.136 153.855 67.249 153.855 64.342ZM161.964 64.359C161.964 62.047 160.417 60.619 158.513 60.619C156.558 60.619 155.062 61.979 155.062 64.342C155.062 66.688 156.558 68.099 158.513 68.099C160.417 68.099 161.964 66.671 161.964 64.359ZM165.871 66.484V60.721H164.579V59.718H165.871V57.389H167.078V59.718H169.628V60.721H167.078V66.484C167.078 67.623 167.469 67.98 168.54 67.98H169.628V69H168.353C166.738 69 165.871 68.337 165.871 66.484ZM184.816 69V63.696C184.816 61.639 183.745 60.585 182.096 60.585C180.413 60.585 179.223 61.707 179.223 63.968V69H178.05V63.696C178.05 61.639 176.962 60.585 175.313 60.585C173.613 60.585 172.44 61.707 172.44 63.968V69H171.25V59.718H172.44V61.316C173.035 60.143 174.208 59.548 175.517 59.548C177.064 59.548 178.39 60.279 178.951 61.826C179.461 60.313 180.821 59.548 182.3 59.548C184.357 59.548 185.989 60.84 185.989 63.56V69H184.816ZM187.748 64.342C187.748 61.435 189.635 59.582 192.185 59.582C194.055 59.582 195.33 60.585 195.857 61.758V59.718H197.047V69H195.857V66.943C195.313 68.133 194.021 69.136 192.168 69.136C189.635 69.136 187.748 67.249 187.748 64.342ZM195.857 64.359C195.857 62.047 194.31 60.619 192.406 60.619C190.451 60.619 188.955 61.979 188.955 64.342C188.955 66.688 190.451 68.099 192.406 68.099C194.31 68.099 195.857 66.671 195.857 64.359ZM202.79 67.64L205.85 59.718H207.074L201.566 73.369H200.325L202.127 68.949L198.319 59.718H199.628L202.79 67.64ZM207.804 64.342C207.804 61.435 209.691 59.582 212.241 59.582C214.111 59.582 215.386 60.585 215.913 61.758V59.718H217.103V69H215.913V66.943C215.369 68.133 214.077 69.136 212.224 69.136C209.691 69.136 207.804 67.249 207.804 64.342ZM215.913 64.359C215.913 62.047 214.366 60.619 212.462 60.619C210.507 60.619 209.011 61.979 209.011 64.342C209.011 66.688 210.507 68.099 212.462 68.099C214.366 68.099 215.913 66.671 215.913 64.359ZM223.26 64.342C223.26 61.435 225.147 59.582 227.697 59.582C229.567 59.582 230.842 60.585 231.369 61.758V59.718H232.559V69H231.369V66.943C230.825 68.133 229.533 69.136 227.68 69.136C225.147 69.136 223.26 67.249 223.26 64.342ZM231.369 64.359C231.369 62.047 229.822 60.619 227.918 60.619C225.963 60.619 224.467 61.979 224.467 64.342C224.467 66.688 225.963 68.099 227.918 68.099C229.822 68.099 231.369 66.671 231.369 64.359ZM234.392 64.342C234.392 61.435 236.279 59.582 238.846 59.582C240.512 59.582 241.906 60.5 242.501 61.724V56.42H243.691V69H242.501V66.926C241.957 68.15 240.665 69.136 238.829 69.136C236.279 69.136 234.392 67.249 234.392 64.342ZM242.501 64.359C242.501 62.047 240.954 60.619 239.05 60.619C237.095 60.619 235.599 61.979 235.599 64.342C235.599 66.688 237.095 68.099 239.05 68.099C240.954 68.099 242.501 66.671 242.501 64.359ZM245.524 64.342C245.524 61.435 247.411 59.582 249.961 59.582C251.831 59.582 253.106 60.585 253.633 61.758V59.718H254.823V69H253.633V66.943C253.089 68.133 251.797 69.136 249.944 69.136C247.411 69.136 245.524 67.249 245.524 64.342ZM253.633 64.359C253.633 62.047 252.086 60.619 250.182 60.619C248.227 60.619 246.731 61.979 246.731 64.342C246.731 66.688 248.227 68.099 250.182 68.099C252.086 68.099 253.633 66.671 253.633 64.359ZM264.152 69V63.696C264.152 61.639 263.03 60.585 261.33 60.585C259.596 60.585 258.389 61.673 258.389 63.934V69H257.199V59.718H258.389V61.299C258.984 60.143 260.174 59.548 261.551 59.548C263.659 59.548 265.325 60.84 265.325 63.56V69H264.152ZM281.183 69V63.696C281.183 61.639 280.112 60.585 278.463 60.585C276.78 60.585 275.59 61.707 275.59 63.968V69H274.417V63.696C274.417 61.639 273.329 60.585 271.68 60.585C269.98 60.585 268.807 61.707 268.807 63.968V69H267.617V59.718H268.807V61.316C269.402 60.143 270.575 59.548 271.884 59.548C273.431 59.548 274.757 60.279 275.318 61.826C275.828 60.313 277.188 59.548 278.667 59.548C280.724 59.548 282.356 60.84 282.356 63.56V69H281.183ZM284.659 69V59.718H285.849V69H284.659ZM294.63 66.535C294.63 67.963 293.44 69.034 291.672 69.136V70.139C292.998 70.105 293.848 70.666 293.848 71.72C293.848 72.74 293.049 73.386 291.859 73.386H290.159V72.587H291.621C292.471 72.587 292.845 72.298 292.845 71.72C292.845 71.193 292.471 70.904 291.621 70.904H290.839V69.102C289.037 68.932 287.796 67.929 287.66 66.382H288.884C288.986 67.402 289.87 68.133 291.383 68.133C292.709 68.133 293.457 67.419 293.457 66.535C293.457 64.24 287.881 65.583 287.881 62.098C287.881 60.721 289.19 59.582 291.145 59.582C293.134 59.582 294.443 60.636 294.545 62.421H293.355C293.287 61.384 292.522 60.602 291.111 60.602C289.87 60.602 289.088 61.265 289.088 62.081C289.088 64.597 294.579 63.254 294.63 66.535ZM302.028 61.775C302.606 60.551 303.898 59.582 305.717 59.582C308.267 59.582 310.137 61.435 310.137 64.342C310.137 67.249 308.25 69.136 305.717 69.136C303.864 69.136 302.589 68.167 302.028 66.96V69H300.855V56.42H302.028V61.775ZM308.93 64.342C308.93 61.979 307.434 60.619 305.479 60.619C303.592 60.619 302.028 62.047 302.028 64.359C302.028 66.671 303.592 68.099 305.479 68.099C307.434 68.099 308.93 66.688 308.93 64.342ZM311.987 69V59.718H313.177V69H311.987ZM312.582 57.967C312.106 57.967 311.715 57.593 311.715 57.083C311.715 56.573 312.106 56.216 312.582 56.216C313.058 56.216 313.449 56.573 313.449 57.083C313.449 57.593 313.058 57.967 312.582 57.967ZM316.721 63.815V69H315.531V59.718H316.721V61.367C317.231 60.228 318.302 59.548 319.9 59.548V60.789H319.577C318.03 60.789 316.721 61.486 316.721 63.815ZM329.042 67.64L332.102 59.718H333.326L327.818 73.369H326.577L328.379 68.949L324.571 59.718H325.88L329.042 67.64ZM334.055 64.342C334.055 61.435 335.942 59.582 338.492 59.582C340.362 59.582 341.637 60.585 342.164 61.758V59.718H343.354V69H342.164V66.943C341.62 68.133 340.328 69.136 338.475 69.136C335.942 69.136 334.055 67.249 334.055 64.342ZM342.164 64.359C342.164 62.047 340.617 60.619 338.713 60.619C336.758 60.619 335.262 61.979 335.262 64.342C335.262 66.688 336.758 68.099 338.713 68.099C340.617 68.099 342.164 66.671 342.164 64.359ZM346.904 61.758C347.448 60.585 348.74 59.582 350.593 59.582C353.126 59.582 355.013 61.435 355.013 64.342C355.013 67.249 353.126 69.136 350.593 69.136C348.74 69.136 347.448 68.116 346.904 66.96V73.386H345.731V59.718H346.904V61.758ZM353.806 64.342C353.806 61.979 352.31 60.619 350.355 60.619C348.468 60.619 346.904 62.047 346.904 64.359C346.904 66.671 348.468 68.099 350.355 68.099C352.31 68.099 353.806 66.688 353.806 64.342ZM356.863 69V59.718H358.053V69H356.863ZM371.158 66.535C371.158 67.963 369.968 69.034 368.2 69.136V70.139C369.526 70.105 370.376 70.666 370.376 71.72C370.376 72.74 369.577 73.386 368.387 73.386H366.687V72.587H368.149C368.999 72.587 369.373 72.298 369.373 71.72C369.373 71.193 368.999 70.904 368.149 70.904H367.367V69.102C365.565 68.932 364.324 67.929 364.188 66.382H365.412C365.514 67.402 366.398 68.133 367.911 68.133C369.237 68.133 369.985 67.419 369.985 66.535C369.985 64.24 364.409 65.583 364.409 62.098C364.409 60.721 365.718 59.582 367.673 59.582C369.662 59.582 370.971 60.636 371.073 62.421H369.883C369.815 61.384 369.05 60.602 367.639 60.602C366.398 60.602 365.616 61.265 365.616 62.081C365.616 64.597 371.107 63.254 371.158 66.535ZM373.058 69V59.718H374.248V69H373.058ZM373.653 57.967C373.177 57.967 372.786 57.593 372.786 57.083C372.786 56.573 373.177 56.216 373.653 56.216C374.129 56.216 374.52 56.573 374.52 57.083C374.52 57.593 374.129 57.967 373.653 57.967ZM377.793 63.815V69H376.603V59.718H377.793V61.367C378.303 60.228 379.374 59.548 380.972 59.548V60.789H380.649C379.102 60.789 377.793 61.486 377.793 63.815ZM382.422 69V56.42H383.612V63.866L387.352 59.718H389.018L384.615 64.342L389.052 69H387.437L383.612 64.835V69H382.422ZM394.211 60.602C392.528 60.602 391.049 61.69 390.913 63.849H397.441C397.492 61.69 395.928 60.602 394.211 60.602ZM398.512 66.059C398.087 67.81 396.591 69.136 394.262 69.136C391.627 69.136 389.706 67.3 389.706 64.359C389.706 61.401 391.593 59.582 394.262 59.582C396.982 59.582 398.648 61.52 398.648 63.883C398.648 64.257 398.648 64.495 398.614 64.818H390.913C391.015 66.994 392.528 68.133 394.262 68.133C395.843 68.133 396.914 67.3 397.254 66.059H398.512ZM400.825 66.484V60.721H399.533V59.718H400.825V57.389H402.032V59.718H404.582V60.721H402.032V66.484C402.032 67.623 402.423 67.98 403.494 67.98H404.582V69H403.307C401.692 69 400.825 68.337 400.825 66.484ZM406.205 69V59.718H407.395V69H406.205ZM406.8 57.967C406.324 57.967 405.933 57.593 405.933 57.083C405.933 56.573 406.324 56.216 406.8 56.216C407.276 56.216 407.667 56.573 407.667 57.083C407.667 57.593 407.276 57.967 406.8 57.967ZM413.116 67.64L416.176 59.718H417.4L411.892 73.369H410.651L412.453 68.949L408.645 59.718H409.954L413.116 67.64ZM418.673 69V59.718H419.863V69H418.673ZM419.268 57.967C418.792 57.967 418.401 57.593 418.401 57.083C418.401 56.573 418.792 56.216 419.268 56.216C419.744 56.216 420.135 56.573 420.135 57.083C420.135 57.593 419.744 57.967 419.268 57.967ZM427.624 59.718V60.704L422.847 68.014H427.709V69H421.487V68.014L426.264 60.704H421.572V59.718H427.624ZM430.436 68.201C430.436 68.694 430.062 69.085 429.586 69.085C429.093 69.085 428.719 68.694 428.719 68.201C428.719 67.708 429.093 67.334 429.586 67.334C430.062 67.334 430.436 67.708 430.436 68.201Z" fill="#333333"/>
</svg>
