<svg width="869" height="121" viewBox="0 0 869 121" fill="none" xmlns="http://www.w3.org/2000/svg">
<path d="M34.2871 21.29C33.1271 18.622 31.3485 16.534 28.9511 15.026C26.5925 13.4793 23.8085 12.706 20.5991 12.706C17.5831 12.706 14.8765 13.402 12.4791 14.794C10.0818 16.186 8.18713 18.1773 6.79513 20.768C5.40313 23.32 4.70713 26.2973 4.70713 29.7C4.70713 33.1027 5.40313 36.0993 6.79513 38.69C8.18713 41.2807 10.0818 43.272 12.4791 44.664C14.8765 46.056 17.5831 46.752 20.5991 46.752C23.4218 46.752 25.9545 46.1527 28.1971 44.954C30.4785 43.7167 32.2958 41.9767 33.6491 39.734C35.0411 37.4527 35.8338 34.804 36.0271 31.788H18.9751V28.482H40.3191V31.44C40.1258 34.9973 39.1591 38.226 37.4191 41.126C35.6791 43.9873 33.3398 46.2493 30.4011 47.912C27.5011 49.5747 24.2338 50.406 20.5991 50.406C16.8485 50.406 13.4458 49.536 10.3911 47.796C7.33647 46.0173 4.9198 43.562 3.14113 40.43C1.40113 37.2593 0.531131 33.6827 0.531131 29.7C0.531131 25.7173 1.40113 22.16 3.14113 19.028C4.9198 15.8573 7.33647 13.402 10.3911 11.662C13.4458 9.88333 16.8485 8.994 20.5991 8.994C24.9298 8.994 28.7191 10.0767 31.9671 12.242C35.2151 14.4073 37.5738 17.4233 39.0431 21.29H34.2871ZM74.6683 32.542C74.6683 33.934 74.6296 34.9973 74.5523 35.732H48.2783C48.3943 38.1293 48.9743 40.1787 50.0183 41.88C51.0623 43.5813 52.4349 44.8767 54.1363 45.766C55.8376 46.6167 57.6936 47.042 59.7043 47.042C62.3336 47.042 64.5376 46.404 66.3163 45.128C68.1336 43.852 69.3323 42.1313 69.9123 39.966H74.2043C73.4309 43.0593 71.7683 45.592 69.2163 47.564C66.7029 49.4973 63.5323 50.464 59.7043 50.464C56.7269 50.464 54.0589 49.8067 51.7003 48.492C49.3416 47.1387 47.4856 45.244 46.1323 42.808C44.8176 40.3333 44.1603 37.4527 44.1603 34.166C44.1603 30.8793 44.8176 27.9987 46.1323 25.524C47.4469 23.0493 49.2836 21.1547 51.6423 19.84C54.0009 18.5253 56.6883 17.868 59.7043 17.868C62.7203 17.868 65.3496 18.5253 67.5923 19.84C69.8736 21.1547 71.6136 22.9333 72.8123 25.176C74.0496 27.38 74.6683 29.8353 74.6683 32.542ZM70.5503 32.426C70.5889 30.0673 70.1056 28.0567 69.1003 26.394C68.1336 24.7313 66.7996 23.4747 65.0983 22.624C63.3969 21.7733 61.5409 21.348 59.5303 21.348C56.5143 21.348 53.9429 22.3147 51.8163 24.248C49.6896 26.1813 48.5103 28.9073 48.2783 32.426H70.5503ZM93.8703 47.042C96.5383 47.042 98.7617 46.404 100.54 45.128C102.358 43.8133 103.537 41.996 104.078 39.676H108.428C107.732 42.7307 106.224 45.2247 103.904 47.158C101.623 49.0913 98.723 50.174 95.2043 50.406V53.886C97.4857 53.8087 99.2837 54.234 100.598 55.162C101.952 56.1287 102.628 57.5013 102.628 59.28C102.628 61.02 102.01 62.3927 100.772 63.398C99.535 64.442 97.8917 64.964 95.8423 64.964H90.0423V62.238H95.0303C96.461 62.238 97.505 61.9867 98.1623 61.484C98.8583 61.02 99.2063 60.2853 99.2063 59.28C99.2063 57.424 97.8143 56.496 95.0303 56.496H92.3623V50.406C89.6557 50.174 87.2583 49.3813 85.1703 48.028C83.0823 46.636 81.439 44.7607 80.2403 42.402C79.0803 40.0047 78.5003 37.2593 78.5003 34.166C78.5003 30.8793 79.1577 28.018 80.4723 25.582C81.787 23.1073 83.6043 21.2127 85.9243 19.898C88.2443 18.5447 90.893 17.868 93.8703 17.868C97.7757 17.868 100.985 18.8347 103.498 20.768C106.05 22.7013 107.694 25.3307 108.428 28.656H104.078C103.537 26.3747 102.358 24.596 100.54 23.32C98.7617 22.0053 96.5383 21.348 93.8703 21.348C91.7437 21.348 89.8297 21.8313 88.1283 22.798C86.427 23.7647 85.0737 25.2147 84.0683 27.148C83.1017 29.0427 82.6183 31.382 82.6183 34.166C82.6183 36.95 83.1017 39.3087 84.0683 41.242C85.0737 43.1753 86.427 44.6253 88.1283 45.592C89.8297 46.5587 91.7437 47.042 93.8703 47.042ZM151.887 17.752C155.599 17.752 158.615 18.9313 160.935 21.29C163.293 23.61 164.473 26.9933 164.473 31.44V50H160.471V31.904C160.471 28.4627 159.639 25.8333 157.977 24.016C156.314 22.1987 154.052 21.29 151.191 21.29C148.213 21.29 145.835 22.276 144.057 24.248C142.278 26.22 141.389 29.0813 141.389 32.832V50H137.387V31.904C137.387 28.4627 136.555 25.8333 134.893 24.016C133.23 22.1987 130.949 21.29 128.049 21.29C125.071 21.29 122.693 22.276 120.915 24.248C119.136 26.22 118.247 29.0813 118.247 32.832V50H114.187V18.332H118.247V23.784C119.252 21.812 120.683 20.3233 122.539 19.318C124.395 18.274 126.463 17.752 128.745 17.752C131.49 17.752 133.887 18.4093 135.937 19.724C138.025 21.0387 139.533 22.972 140.461 25.524C141.311 23.0107 142.761 21.0967 144.811 19.782C146.899 18.4287 149.257 17.752 151.887 17.752ZM173.779 12.358C172.967 12.358 172.271 12.068 171.691 11.488C171.111 10.908 170.821 10.1927 170.821 9.342C170.821 8.49133 171.111 7.79533 171.691 7.254C172.271 6.674 172.967 6.384 173.779 6.384C174.591 6.384 175.287 6.674 175.867 7.254C176.447 7.79533 176.737 8.49133 176.737 9.342C176.737 10.1927 176.447 10.908 175.867 11.488C175.287 12.068 174.591 12.358 173.779 12.358ZM175.809 18.332V50H171.749V18.332H175.809ZM205.187 41.59C205.187 44.026 204.259 46.0753 202.403 47.738C200.547 49.4007 198.111 50.3093 195.095 50.464V53.886C197.377 53.8087 199.175 54.234 200.489 55.162C201.843 56.1287 202.519 57.5013 202.519 59.28C202.519 61.02 201.901 62.3927 200.663 63.398C199.426 64.442 197.783 64.964 195.733 64.964H189.933V62.238H194.921C196.352 62.238 197.396 61.9867 198.053 61.484C198.749 61.02 199.097 60.2853 199.097 59.28C199.097 57.424 197.705 56.496 194.921 56.496H192.253V50.348C189.16 50.0387 186.627 49.072 184.655 47.448C182.722 45.824 181.639 43.6973 181.407 41.068H185.583C185.777 42.8467 186.608 44.2967 188.077 45.418C189.585 46.5007 191.596 47.042 194.109 47.042C196.313 47.042 198.034 46.52 199.271 45.476C200.547 44.432 201.185 43.1367 201.185 41.59C201.185 40.5073 200.837 39.618 200.141 38.922C199.445 38.226 198.556 37.6847 197.473 37.298C196.429 36.8727 194.999 36.428 193.181 35.964C190.823 35.3453 188.909 34.7267 187.439 34.108C185.97 33.4893 184.713 32.5807 183.669 31.382C182.664 30.1447 182.161 28.5013 182.161 26.452C182.161 24.9053 182.625 23.4747 183.553 22.16C184.481 20.8453 185.796 19.8013 187.497 19.028C189.199 18.2547 191.132 17.868 193.297 17.868C196.7 17.868 199.445 18.738 201.533 20.478C203.621 22.1793 204.743 24.538 204.897 27.554H200.837C200.721 25.698 199.987 24.2093 198.633 23.088C197.319 21.928 195.501 21.348 193.181 21.348C191.132 21.348 189.469 21.8313 188.193 22.798C186.917 23.7647 186.279 24.9633 186.279 26.394C186.279 27.6313 186.647 28.656 187.381 29.468C188.155 30.2413 189.102 30.86 190.223 31.324C191.345 31.7493 192.853 32.2327 194.747 32.774C197.029 33.3927 198.846 33.992 200.199 34.572C201.553 35.152 202.713 36.0027 203.679 37.124C204.646 38.2453 205.149 39.734 205.187 41.59ZM216.368 21.754V41.416C216.368 43.3493 216.735 44.6833 217.47 45.418C218.204 46.1527 219.5 46.52 221.356 46.52H225.068V50H220.718C217.856 50 215.73 49.3427 214.338 48.028C212.946 46.6747 212.25 44.4707 212.25 41.416V21.754H207.842V18.332H212.25V10.386H216.368V18.332H225.068V21.754H216.368ZM258.676 32.542C258.676 33.934 258.637 34.9973 258.56 35.732H232.286C232.402 38.1293 232.982 40.1787 234.026 41.88C235.07 43.5813 236.442 44.8767 238.144 45.766C239.845 46.6167 241.701 47.042 243.712 47.042C246.341 47.042 248.545 46.404 250.324 45.128C252.141 43.852 253.34 42.1313 253.92 39.966H258.212C257.438 43.0593 255.776 45.592 253.224 47.564C250.71 49.4973 247.54 50.464 243.712 50.464C240.734 50.464 238.066 49.8067 235.708 48.492C233.349 47.1387 231.493 45.244 230.14 42.808C228.825 40.3333 228.168 37.4527 228.168 34.166C228.168 30.8793 228.825 27.9987 230.14 25.524C231.454 23.0493 233.291 21.1547 235.65 19.84C238.008 18.5253 240.696 17.868 243.712 17.868C246.728 17.868 249.357 18.5253 251.6 19.84C253.881 21.1547 255.621 22.9333 256.82 25.176C258.057 27.38 258.676 29.8353 258.676 32.542ZM254.558 32.426C254.596 30.0673 254.113 28.0567 253.108 26.394C252.141 24.7313 250.807 23.4747 249.106 22.624C247.404 21.7733 245.548 21.348 243.538 21.348C240.522 21.348 237.95 22.3147 235.824 24.248C233.697 26.1813 232.518 28.9073 232.286 32.426H254.558ZM279.212 17.752C283.001 17.752 286.094 18.9313 288.492 21.29C290.889 23.61 292.088 26.9933 292.088 31.44V50H288.086V31.904C288.086 28.4627 287.216 25.8333 285.476 24.016C283.774 22.1987 281.435 21.29 278.458 21.29C275.403 21.29 272.967 22.2567 271.15 24.19C269.332 26.1233 268.424 28.9653 268.424 32.716V50H264.364V18.332H268.424V23.726C269.429 21.7927 270.879 20.3233 272.774 19.318C274.668 18.274 276.814 17.752 279.212 17.752ZM345.403 21.29C344.243 18.622 342.464 16.534 340.067 15.026C337.708 13.4793 334.924 12.706 331.715 12.706C328.699 12.706 325.992 13.402 323.595 14.794C321.197 16.186 319.303 18.1773 317.911 20.768C316.519 23.32 315.823 26.2973 315.823 29.7C315.823 33.1027 316.519 36.0993 317.911 38.69C319.303 41.2807 321.197 43.272 323.595 44.664C325.992 46.056 328.699 46.752 331.715 46.752C334.537 46.752 337.07 46.1527 339.313 44.954C341.594 43.7167 343.411 41.9767 344.765 39.734C346.157 37.4527 346.949 34.804 347.143 31.788H330.091V28.482H351.435V31.44C351.241 34.9973 350.275 38.226 348.535 41.126C346.795 43.9873 344.455 46.2493 341.517 47.912C338.617 49.5747 335.349 50.406 331.715 50.406C327.964 50.406 324.561 49.536 321.507 47.796C318.452 46.0173 316.035 43.562 314.257 40.43C312.517 37.2593 311.647 33.6827 311.647 29.7C311.647 25.7173 312.517 22.16 314.257 19.028C316.035 15.8573 318.452 13.402 321.507 11.662C324.561 9.88333 327.964 8.994 331.715 8.994C336.045 8.994 339.835 10.0767 343.083 12.242C346.331 14.4073 348.689 17.4233 350.159 21.29H345.403ZM385.784 32.542C385.784 33.934 385.745 34.9973 385.668 35.732H359.394C359.51 38.1293 360.09 40.1787 361.134 41.88C362.178 43.5813 363.551 44.8767 365.252 45.766C366.953 46.6167 368.809 47.042 370.82 47.042C373.449 47.042 375.653 46.404 377.432 45.128C379.249 43.852 380.448 42.1313 381.028 39.966H385.32C384.547 43.0593 382.884 45.592 380.332 47.564C377.819 49.4973 374.648 50.464 370.82 50.464C367.843 50.464 365.175 49.8067 362.816 48.492C360.457 47.1387 358.601 45.244 357.248 42.808C355.933 40.3333 355.276 37.4527 355.276 34.166C355.276 30.8793 355.933 27.9987 357.248 25.524C358.563 23.0493 360.399 21.1547 362.758 19.84C365.117 18.5253 367.804 17.868 370.82 17.868C373.836 17.868 376.465 18.5253 378.708 19.84C380.989 21.1547 382.729 22.9333 383.928 25.176C385.165 27.38 385.784 29.8353 385.784 32.542ZM381.666 32.426C381.705 30.0673 381.221 28.0567 380.216 26.394C379.249 24.7313 377.915 23.4747 376.214 22.624C374.513 21.7733 372.657 21.348 370.646 21.348C367.63 21.348 365.059 22.3147 362.932 24.248C360.805 26.1813 359.626 28.9073 359.394 32.426H381.666ZM395.532 7.08V50H391.472V7.08H395.532ZM431.638 32.542C431.638 33.934 431.599 34.9973 431.522 35.732H405.248C405.364 38.1293 405.944 40.1787 406.988 41.88C408.032 43.5813 409.405 44.8767 411.106 45.766C412.807 46.6167 414.663 47.042 416.674 47.042C419.303 47.042 421.507 46.404 423.286 45.128C425.103 43.852 426.302 42.1313 426.882 39.966H431.174C430.401 43.0593 428.738 45.592 426.186 47.564C423.673 49.4973 420.502 50.464 416.674 50.464C413.697 50.464 411.029 49.8067 408.67 48.492C406.311 47.1387 404.455 45.244 403.102 42.808C401.787 40.3333 401.13 37.4527 401.13 34.166C401.13 30.8793 401.787 27.9987 403.102 25.524C404.417 23.0493 406.253 21.1547 408.612 19.84C410.971 18.5253 413.658 17.868 416.674 17.868C419.69 17.868 422.319 18.5253 424.562 19.84C426.843 21.1547 428.583 22.9333 429.782 25.176C431.019 27.38 431.638 29.8353 431.638 32.542ZM427.52 32.426C427.559 30.0673 427.075 28.0567 426.07 26.394C425.103 24.7313 423.769 23.4747 422.068 22.624C420.367 21.7733 418.511 21.348 416.5 21.348C413.484 21.348 410.913 22.3147 408.786 24.248C406.659 26.1813 405.48 28.9073 405.248 32.426H427.52ZM435.47 34.166C435.47 30.8793 436.127 28.018 437.442 25.582C438.757 23.1073 440.574 21.2127 442.894 19.898C445.214 18.5447 447.863 17.868 450.84 17.868C454.745 17.868 457.955 18.8347 460.468 20.768C463.02 22.7013 464.663 25.3307 465.398 28.656H461.048C460.507 26.3747 459.327 24.596 457.51 23.32C455.731 22.0053 453.508 21.348 450.84 21.348C448.713 21.348 446.799 21.8313 445.098 22.798C443.397 23.7647 442.043 25.2147 441.038 27.148C440.071 29.0427 439.588 31.382 439.588 34.166C439.588 36.95 440.071 39.3087 441.038 41.242C442.043 43.1753 443.397 44.6253 445.098 45.592C446.799 46.5587 448.713 47.042 450.84 47.042C453.508 47.042 455.731 46.404 457.51 45.128C459.327 43.8133 460.507 41.996 461.048 39.676H465.398C464.663 42.924 463.02 45.534 460.468 47.506C457.916 49.478 454.707 50.464 450.84 50.464C447.863 50.464 445.214 49.8067 442.894 48.492C440.574 47.1387 438.757 45.244 437.442 42.808C436.127 40.3333 435.47 37.4527 435.47 34.166ZM499.808 32.542C499.808 33.934 499.77 34.9973 499.692 35.732H473.418C473.534 38.1293 474.114 40.1787 475.158 41.88C476.202 43.5813 477.575 44.8767 479.276 45.766C480.978 46.6167 482.834 47.042 484.844 47.042C487.474 47.042 489.678 46.404 491.456 45.128C493.274 43.852 494.472 42.1313 495.052 39.966H499.344C498.571 43.0593 496.908 45.592 494.356 47.564C491.843 49.4973 488.672 50.464 484.844 50.464C481.867 50.464 479.199 49.8067 476.84 48.492C474.482 47.1387 472.626 45.244 471.272 42.808C469.958 40.3333 469.3 37.4527 469.3 34.166C469.3 30.8793 469.958 27.9987 471.272 25.524C472.587 23.0493 474.424 21.1547 476.782 19.84C479.141 18.5253 481.828 17.868 484.844 17.868C487.86 17.868 490.49 18.5253 492.732 19.84C495.014 21.1547 496.754 22.9333 497.952 25.176C499.19 27.38 499.808 29.8353 499.808 32.542ZM495.69 32.426C495.729 30.0673 495.246 28.0567 494.24 26.394C493.274 24.7313 491.94 23.4747 490.238 22.624C488.537 21.7733 486.681 21.348 484.67 21.348C481.654 21.348 479.083 22.3147 476.956 24.248C474.83 26.1813 473.65 28.9073 473.418 32.426H495.69ZM518.778 17.868C521.756 17.868 524.346 18.564 526.55 19.956C528.754 21.348 530.34 23.1073 531.306 25.234V18.332H535.366V50.812C535.366 53.712 534.728 56.2833 533.452 58.526C532.215 60.7687 530.475 62.4893 528.232 63.688C525.99 64.9253 523.438 65.544 520.576 65.544C516.516 65.544 513.133 64.5773 510.426 62.644C507.758 60.7107 506.096 58.0813 505.438 54.756H509.44C510.136 56.96 511.451 58.7193 513.384 60.034C515.356 61.3487 517.754 62.006 520.576 62.006C522.626 62.006 524.462 61.5613 526.086 60.672C527.71 59.8213 528.986 58.5453 529.914 56.844C530.842 55.1427 531.306 53.132 531.306 50.812V42.982C530.301 45.1473 528.696 46.9453 526.492 48.376C524.327 49.768 521.756 50.464 518.778 50.464C515.878 50.464 513.268 49.7873 510.948 48.434C508.667 47.0807 506.869 45.1667 505.554 42.692C504.278 40.2173 503.64 37.356 503.64 34.108C503.64 30.86 504.278 28.018 505.554 25.582C506.869 23.1073 508.667 21.2127 510.948 19.898C513.268 18.5447 515.878 17.868 518.778 17.868ZM531.306 34.166C531.306 31.614 530.784 29.3713 529.74 27.438C528.696 25.5047 527.266 24.016 525.448 22.972C523.67 21.928 521.698 21.406 519.532 21.406C517.29 21.406 515.279 21.9087 513.5 22.914C511.722 23.9193 510.31 25.3887 509.266 27.322C508.261 29.2167 507.758 31.4787 507.758 34.108C507.758 36.6987 508.261 38.98 509.266 40.952C510.31 42.8853 511.722 44.374 513.5 45.418C515.279 46.4233 517.29 46.926 519.532 46.926C521.698 46.926 523.67 46.404 525.448 45.36C527.266 44.316 528.696 42.8273 529.74 40.894C530.784 38.9607 531.306 36.718 531.306 34.166ZM528.406 7.718C528.406 9.76733 527.71 11.4687 526.318 12.822C524.965 14.1753 523.032 14.852 520.518 14.852C518.005 14.852 516.072 14.1753 514.718 12.822C513.365 11.4687 512.688 9.76733 512.688 7.718V6.964H515.24C515.24 10.0573 517 11.604 520.518 11.604C524.037 11.604 525.796 10.0573 525.796 6.964H528.406V7.718ZM571.547 32.542C571.547 33.934 571.508 34.9973 571.431 35.732H545.157C545.273 38.1293 545.853 40.1787 546.897 41.88C547.941 43.5813 549.314 44.8767 551.015 45.766C552.716 46.6167 554.572 47.042 556.583 47.042C559.212 47.042 561.416 46.404 563.195 45.128C565.012 43.852 566.211 42.1313 566.791 39.966H571.083C570.31 43.0593 568.647 45.592 566.095 47.564C563.582 49.4973 560.411 50.464 556.583 50.464C553.606 50.464 550.938 49.8067 548.579 48.492C546.22 47.1387 544.364 45.244 543.011 42.808C541.696 40.3333 541.039 37.4527 541.039 34.166C541.039 30.8793 541.696 27.9987 543.011 25.524C544.326 23.0493 546.162 21.1547 548.521 19.84C550.88 18.5253 553.567 17.868 556.583 17.868C559.599 17.868 562.228 18.5253 564.471 19.84C566.752 21.1547 568.492 22.9333 569.691 25.176C570.928 27.38 571.547 29.8353 571.547 32.542ZM567.429 32.426C567.468 30.0673 566.984 28.0567 565.979 26.394C565.012 24.7313 563.678 23.4747 561.977 22.624C560.276 21.7733 558.42 21.348 556.409 21.348C553.393 21.348 550.822 22.3147 548.695 24.248C546.568 26.1813 545.389 28.9073 545.157 32.426H567.429ZM595.471 9.458V50H591.411V9.458H595.471ZM593.383 6.094C592.648 6.094 592.01 5.84266 591.469 5.34C590.966 4.79866 590.715 4.16066 590.715 3.426C590.715 2.69133 590.966 2.07266 591.469 1.57C592.01 1.02866 592.648 0.757998 593.383 0.757998C594.118 0.757998 594.736 1.02866 595.239 1.57C595.78 2.07266 596.051 2.69133 596.051 3.426C596.051 4.16066 595.78 4.79866 595.239 5.34C594.736 5.84266 594.118 6.094 593.383 6.094ZM617.773 17.752C621.562 17.752 624.656 18.9313 627.053 21.29C629.45 23.61 630.649 26.9933 630.649 31.44V50H626.647V31.904C626.647 28.4627 625.777 25.8333 624.037 24.016C622.336 22.1987 619.996 21.29 617.019 21.29C613.964 21.29 611.528 22.2567 609.711 24.19C607.894 26.1233 606.985 28.9653 606.985 32.716V50H602.925V18.332H606.985V23.726C607.99 21.7927 609.44 20.3233 611.335 19.318C613.23 18.274 615.376 17.752 617.773 17.752ZM659.812 41.59C659.812 44.026 658.884 46.0753 657.028 47.738C655.172 49.4007 652.736 50.3093 649.72 50.464V53.886C652.002 53.8087 653.8 54.234 655.114 55.162C656.468 56.1287 657.144 57.5013 657.144 59.28C657.144 61.02 656.526 62.3927 655.288 63.398C654.051 64.442 652.408 64.964 650.358 64.964H644.558V62.238H649.546C650.977 62.238 652.021 61.9867 652.678 61.484C653.374 61.02 653.722 60.2853 653.722 59.28C653.722 57.424 652.33 56.496 649.546 56.496H646.878V50.348C643.785 50.0387 641.252 49.072 639.28 47.448C637.347 45.824 636.264 43.6973 636.032 41.068H640.208C640.402 42.8467 641.233 44.2967 642.702 45.418C644.21 46.5007 646.221 47.042 648.734 47.042C650.938 47.042 652.659 46.52 653.896 45.476C655.172 44.432 655.81 43.1367 655.81 41.59C655.81 40.5073 655.462 39.618 654.766 38.922C654.07 38.226 653.181 37.6847 652.098 37.298C651.054 36.8727 649.624 36.428 647.806 35.964C645.448 35.3453 643.534 34.7267 642.064 34.108C640.595 33.4893 639.338 32.5807 638.294 31.382C637.289 30.1447 636.786 28.5013 636.786 26.452C636.786 24.9053 637.25 23.4747 638.178 22.16C639.106 20.8453 640.421 19.8013 642.122 19.028C643.824 18.2547 645.757 17.868 647.922 17.868C651.325 17.868 654.07 18.738 656.158 20.478C658.246 22.1793 659.368 24.538 659.522 27.554H655.462C655.346 25.698 654.612 24.2093 653.258 23.088C651.944 21.928 650.126 21.348 647.806 21.348C645.757 21.348 644.094 21.8313 642.818 22.798C641.542 23.7647 640.904 24.9633 640.904 26.394C640.904 27.6313 641.272 28.656 642.006 29.468C642.78 30.2413 643.727 30.86 644.848 31.324C645.97 31.7493 647.478 32.2327 649.372 32.774C651.654 33.3927 653.471 33.992 654.824 34.572C656.178 35.152 657.338 36.0027 658.304 37.124C659.271 38.2453 659.774 39.734 659.812 41.59ZM663.859 34.108C663.859 30.86 664.497 28.018 665.773 25.582C667.087 23.1073 668.885 21.2127 671.167 19.898C673.487 18.5447 676.097 17.868 678.997 17.868C682.013 17.868 684.603 18.564 686.769 19.956C688.973 21.348 690.558 23.1267 691.525 25.292V18.332H695.585V50H691.525V42.982C690.519 45.1473 688.915 46.9453 686.711 48.376C684.545 49.768 681.955 50.464 678.939 50.464C676.077 50.464 673.487 49.7873 671.167 48.434C668.885 47.0807 667.087 45.1667 665.773 42.692C664.497 40.2173 663.859 37.356 663.859 34.108ZM691.525 34.166C691.525 31.614 691.003 29.3713 689.959 27.438C688.915 25.5047 687.484 24.016 685.667 22.972C683.888 21.928 681.916 21.406 679.751 21.406C677.508 21.406 675.497 21.9087 673.719 22.914C671.94 23.9193 670.529 25.3887 669.485 27.322C668.479 29.2167 667.977 31.4787 667.977 34.108C667.977 36.6987 668.479 38.98 669.485 40.952C670.529 42.8853 671.94 44.374 673.719 45.418C675.497 46.4233 677.508 46.926 679.751 46.926C681.916 46.926 683.888 46.404 685.667 45.36C687.484 44.316 688.915 42.8273 689.959 40.894C691.003 38.9607 691.525 36.718 691.525 34.166ZM749.189 21.29C748.029 18.622 746.251 16.534 743.853 15.026C741.495 13.4793 738.711 12.706 735.501 12.706C732.485 12.706 729.779 13.402 727.381 14.794C724.984 16.186 723.089 18.1773 721.697 20.768C720.305 23.32 719.609 26.2973 719.609 29.7C719.609 33.1027 720.305 36.0993 721.697 38.69C723.089 41.2807 724.984 43.272 727.381 44.664C729.779 46.056 732.485 46.752 735.501 46.752C738.324 46.752 740.857 46.1527 743.099 44.954C745.381 43.7167 747.198 41.9767 748.551 39.734C749.943 37.4527 750.736 34.804 750.929 31.788H733.877V28.482H755.221V31.44C755.028 34.9973 754.061 38.226 752.321 41.126C750.581 43.9873 748.242 46.2493 745.303 47.912C742.403 49.5747 739.136 50.406 735.501 50.406C731.751 50.406 728.348 49.536 725.293 47.796C722.239 46.0173 719.822 43.562 718.043 40.43C716.303 37.2593 715.433 33.6827 715.433 29.7C715.433 25.7173 716.303 22.16 718.043 19.028C719.822 15.8573 722.239 13.402 725.293 11.662C728.348 9.88333 731.751 8.994 735.501 8.994C739.832 8.994 743.621 10.0767 746.869 12.242C750.117 14.4073 752.476 17.4233 753.945 21.29H749.189ZM788.352 18.332V50H784.292V44.432C783.364 46.404 781.934 47.912 780 48.956C778.067 50 775.902 50.522 773.504 50.522C769.715 50.522 766.622 49.362 764.224 47.042C761.827 44.6833 760.628 41.2807 760.628 36.834V18.332H764.63V36.37C764.63 39.8113 765.481 42.4407 767.182 44.258C768.922 46.0753 771.281 46.984 774.258 46.984C777.313 46.984 779.749 46.0173 781.566 44.084C783.384 42.1507 784.292 39.3087 784.292 35.558V18.332H788.352ZM770.256 13.866C769.522 13.866 768.884 13.6147 768.342 13.112C767.84 12.5707 767.588 11.9327 767.588 11.198C767.588 10.4633 767.84 9.84467 768.342 9.342C768.884 8.80066 769.522 8.53 770.256 8.53C770.991 8.53 771.61 8.80066 772.112 9.342C772.654 9.84467 772.924 10.4633 772.924 11.198C772.924 11.9327 772.654 12.5707 772.112 13.112C771.61 13.6147 770.991 13.866 770.256 13.866ZM779.188 13.866C778.454 13.866 777.816 13.6147 777.274 13.112C776.772 12.5707 776.52 11.9327 776.52 11.198C776.52 10.4633 776.772 9.84467 777.274 9.342C777.816 8.80066 778.454 8.53 779.188 8.53C779.923 8.53 780.542 8.80066 781.044 9.342C781.547 9.84467 781.798 10.4633 781.798 11.198C781.798 11.9327 781.547 12.5707 781.044 13.112C780.542 13.6147 779.923 13.866 779.188 13.866ZM794.026 34.166C794.026 30.8793 794.683 28.018 795.998 25.582C797.312 23.1073 799.13 21.2127 801.45 19.898C803.77 18.5447 806.418 17.868 809.396 17.868C813.301 17.868 816.51 18.8347 819.024 20.768C821.576 22.7013 823.219 25.3307 823.954 28.656H819.604C819.062 26.3747 817.883 24.596 816.066 23.32C814.287 22.0053 812.064 21.348 809.396 21.348C807.269 21.348 805.355 21.8313 803.654 22.798C801.952 23.7647 800.599 25.2147 799.594 27.148C798.627 29.0427 798.144 31.382 798.144 34.166C798.144 36.95 798.627 39.3087 799.594 41.242C800.599 43.1753 801.952 44.6253 803.654 45.592C805.355 46.5587 807.269 47.042 809.396 47.042C812.064 47.042 814.287 46.404 816.066 45.128C817.883 43.8133 819.062 41.996 819.604 39.676H823.954C823.219 42.924 821.576 45.534 819.024 47.506C816.472 49.478 813.262 50.464 809.396 50.464C806.418 50.464 803.77 49.8067 801.45 48.492C799.13 47.1387 797.312 45.244 795.998 42.808C794.683 40.3333 794.026 37.4527 794.026 34.166ZM857.146 18.332V50H853.086V44.432C852.158 46.404 850.727 47.912 848.794 48.956C846.861 50 844.695 50.522 842.298 50.522C838.509 50.522 835.415 49.362 833.018 47.042C830.621 44.6833 829.422 41.2807 829.422 36.834V18.332H833.424V36.37C833.424 39.8113 834.275 42.4407 835.976 44.258C837.716 46.0753 840.075 46.984 843.052 46.984C846.107 46.984 848.543 46.0173 850.36 44.084C852.177 42.1507 853.086 39.3087 853.086 35.558V18.332H857.146ZM839.05 13.866C838.315 13.866 837.677 13.6147 837.136 13.112C836.633 12.5707 836.382 11.9327 836.382 11.198C836.382 10.4633 836.633 9.84467 837.136 9.342C837.677 8.80066 838.315 8.53 839.05 8.53C839.785 8.53 840.403 8.80066 840.906 9.342C841.447 9.84467 841.718 10.4633 841.718 11.198C841.718 11.9327 841.447 12.5707 840.906 13.112C840.403 13.6147 839.785 13.866 839.05 13.866ZM847.982 13.866C847.247 13.866 846.609 13.6147 846.068 13.112C845.565 12.5707 845.314 11.9327 845.314 11.198C845.314 10.4633 845.565 9.84467 846.068 9.342C846.609 8.80066 847.247 8.53 847.982 8.53C848.717 8.53 849.335 8.80066 849.838 9.342C850.341 9.84467 850.592 10.4633 850.592 11.198C850.592 11.9327 850.341 12.5707 849.838 13.112C849.335 13.6147 848.717 13.866 847.982 13.866ZM865.371 50.29C864.52 50.29 863.805 50 863.225 49.42C862.684 48.84 862.413 48.1247 862.413 47.274C862.413 46.4233 862.684 45.7273 863.225 45.186C863.805 44.606 864.52 44.316 865.371 44.316C866.183 44.316 866.86 44.606 867.401 45.186C867.981 45.7273 868.271 46.4233 868.271 47.274C868.271 48.1247 867.981 48.84 867.401 49.42C866.86 50 866.183 50.29 865.371 50.29ZM865.371 25.06C864.52 25.06 863.805 24.77 863.225 24.19C862.684 23.61 862.413 22.8947 862.413 22.044C862.413 21.1933 862.684 20.4973 863.225 19.956C863.805 19.376 864.52 19.086 865.371 19.086C866.183 19.086 866.86 19.376 867.401 19.956C867.981 20.4973 868.271 21.1933 868.271 22.044C868.271 22.8947 867.981 23.61 867.401 24.19C866.86 24.77 866.183 25.06 865.371 25.06ZM511.906 83.75V77.718H523.97V120H517.3V83.75H511.906ZM539.549 108.516C539.936 110.449 540.767 111.919 542.043 112.924C543.319 113.929 545.04 114.432 547.205 114.432C549.95 114.432 551.961 113.349 553.237 111.184C554.513 109.019 555.151 105.326 555.151 100.106C554.223 101.421 552.908 102.445 551.207 103.18C549.544 103.876 547.727 104.224 545.755 104.224C543.242 104.224 540.96 103.721 538.911 102.716C536.862 101.672 535.238 100.145 534.039 98.134C532.879 96.0847 532.299 93.61 532.299 90.71C532.299 86.4567 533.536 83.0733 536.011 80.56C538.524 78.008 541.966 76.732 546.335 76.732C551.594 76.732 555.325 78.4913 557.529 82.01C559.772 85.49 560.893 90.8453 560.893 98.076C560.893 103.064 560.468 107.143 559.617 110.314C558.805 113.485 557.374 115.882 555.325 117.506C553.276 119.13 550.434 119.942 546.799 119.942C542.662 119.942 539.472 118.859 537.229 116.694C534.986 114.529 533.73 111.803 533.459 108.516H539.549ZM546.915 98.656C549.235 98.656 551.052 97.9407 552.367 96.51C553.72 95.0407 554.397 93.1073 554.397 90.71C554.397 88.042 553.682 85.9733 552.251 84.504C550.859 82.996 548.945 82.242 546.509 82.242C544.073 82.242 542.14 83.0153 540.709 84.562C539.317 86.07 538.621 88.0613 538.621 90.536C538.621 92.8947 539.298 94.8473 540.651 96.394C542.043 97.902 544.131 98.656 546.915 98.656ZM574.626 108.516C575.012 110.449 575.844 111.919 577.12 112.924C578.396 113.929 580.116 114.432 582.282 114.432C585.027 114.432 587.038 113.349 588.314 111.184C589.59 109.019 590.228 105.326 590.228 100.106C589.3 101.421 587.985 102.445 586.284 103.18C584.621 103.876 582.804 104.224 580.832 104.224C578.318 104.224 576.037 103.721 573.988 102.716C571.938 101.672 570.314 100.145 569.116 98.134C567.956 96.0847 567.376 93.61 567.376 90.71C567.376 86.4567 568.613 83.0733 571.088 80.56C573.601 78.008 577.042 76.732 581.412 76.732C586.67 76.732 590.402 78.4913 592.606 82.01C594.848 85.49 595.97 90.8453 595.97 98.076C595.97 103.064 595.544 107.143 594.694 110.314C593.882 113.485 592.451 115.882 590.402 117.506C588.352 119.13 585.51 119.942 581.876 119.942C577.738 119.942 574.548 118.859 572.306 116.694C570.063 114.529 568.806 111.803 568.536 108.516H574.626ZM581.992 98.656C584.312 98.656 586.129 97.9407 587.444 96.51C588.797 95.0407 589.474 93.1073 589.474 90.71C589.474 88.042 588.758 85.9733 587.328 84.504C585.936 82.996 584.022 82.242 581.586 82.242C579.15 82.242 577.216 83.0153 575.786 84.562C574.394 86.07 573.698 88.0613 573.698 90.536C573.698 92.8947 574.374 94.8473 575.728 96.394C577.12 97.902 579.208 98.656 581.992 98.656ZM624.202 87.52C623.777 85.7413 623.003 84.4073 621.882 83.518C620.761 82.6287 619.195 82.184 617.184 82.184C614.129 82.184 611.848 83.3633 610.34 85.722C608.832 88.042 608.039 91.9087 607.962 97.322C608.967 95.6207 610.437 94.306 612.37 93.378C614.303 92.45 616.391 91.986 618.634 91.986C621.186 91.986 623.429 92.5467 625.362 93.668C627.334 94.7507 628.861 96.336 629.944 98.424C631.065 100.512 631.626 103.006 631.626 105.906C631.626 108.613 631.085 111.029 630.002 113.156C628.958 115.283 627.392 116.965 625.304 118.202C623.216 119.401 620.703 120 617.764 120C613.781 120 610.649 119.13 608.368 117.39C606.125 115.611 604.54 113.117 603.612 109.908C602.723 106.699 602.278 102.697 602.278 97.902C602.278 83.75 607.266 76.674 617.242 76.674C621.109 76.674 624.144 77.718 626.348 79.806C628.591 81.894 629.905 84.4653 630.292 87.52H624.202ZM617.184 97.554C614.825 97.554 612.815 98.2693 611.152 99.7C609.528 101.092 608.716 103.122 608.716 105.79C608.716 108.458 609.47 110.585 610.978 112.17C612.525 113.717 614.671 114.49 617.416 114.49C619.852 114.49 621.766 113.736 623.158 112.228C624.589 110.72 625.304 108.709 625.304 106.196C625.304 103.567 624.608 101.479 623.216 99.932C621.863 98.3467 619.852 97.554 617.184 97.554ZM641.405 73.774L640.709 85.664H636.185L635.431 73.774H641.405ZM643.834 103.876C643.834 100.667 644.491 97.8247 645.806 95.35C647.159 92.8753 648.976 90.9613 651.258 89.608C653.578 88.216 656.149 87.52 658.972 87.52C661.06 87.52 663.109 87.984 665.12 88.912C667.169 89.8013 668.793 91 669.992 92.508V77.08H676.662V120H669.992V115.186C668.909 116.733 667.401 118.009 665.468 119.014C663.573 120.019 661.388 120.522 658.914 120.522C656.13 120.522 653.578 119.826 651.258 118.434C648.976 117.003 647.159 115.031 645.806 112.518C644.491 109.966 643.834 107.085 643.834 103.876ZM669.992 103.992C669.992 101.788 669.528 99.874 668.6 98.25C667.71 96.626 666.531 95.3887 665.062 94.538C663.592 93.6873 662.007 93.262 660.306 93.262C658.604 93.262 657.019 93.6873 655.55 94.538C654.08 95.35 652.882 96.568 651.954 98.192C651.064 99.7773 650.62 101.672 650.62 103.876C650.62 106.08 651.064 108.013 651.954 109.676C652.882 111.339 654.08 112.615 655.55 113.504C657.058 114.355 658.643 114.78 660.306 114.78C662.007 114.78 663.592 114.355 665.062 113.504C666.531 112.653 667.71 111.416 668.6 109.792C669.528 108.129 669.992 106.196 669.992 103.992ZM681.402 103.876C681.402 100.667 682.059 97.8247 683.374 95.35C684.727 92.8753 686.545 90.9613 688.826 89.608C691.146 88.216 693.698 87.52 696.482 87.52C698.995 87.52 701.18 88.0227 703.036 89.028C704.931 89.9947 706.439 91.2127 707.56 92.682V88.042H714.23V120H707.56V115.244C706.439 116.752 704.911 118.009 702.978 119.014C701.045 120.019 698.841 120.522 696.366 120.522C693.621 120.522 691.107 119.826 688.826 118.434C686.545 117.003 684.727 115.031 683.374 112.518C682.059 109.966 681.402 107.085 681.402 103.876ZM707.56 103.992C707.56 101.788 707.096 99.874 706.168 98.25C705.279 96.626 704.099 95.3887 702.63 94.538C701.161 93.6873 699.575 93.262 697.874 93.262C696.173 93.262 694.587 93.6873 693.118 94.538C691.649 95.35 690.45 96.568 689.522 98.192C688.633 99.7773 688.188 101.672 688.188 103.876C688.188 106.08 688.633 108.013 689.522 109.676C690.45 111.339 691.649 112.615 693.118 113.504C694.626 114.355 696.211 114.78 697.874 114.78C699.575 114.78 701.161 114.355 702.63 113.504C704.099 112.653 705.279 111.416 706.168 109.792C707.096 108.129 707.56 106.196 707.56 103.992ZM737.299 87.52C739.812 87.52 742.055 88.042 744.027 89.086C746.037 90.13 747.603 91.6767 748.725 93.726C749.846 95.7753 750.407 98.25 750.407 101.15V120H743.853V102.136C743.853 99.2747 743.137 97.09 741.707 95.582C740.276 94.0353 738.323 93.262 735.849 93.262C733.374 93.262 731.402 94.0353 729.933 95.582C728.502 97.09 727.787 99.2747 727.787 102.136V120H721.175V88.042H727.787V91.696C728.869 90.3813 730.242 89.3567 731.905 88.622C733.606 87.8873 735.404 87.52 737.299 87.52ZM792.003 99.294C794.168 99.6807 796.005 100.821 797.513 102.716C799.021 104.611 799.775 106.757 799.775 109.154C799.775 111.203 799.234 113.059 798.151 114.722C797.107 116.346 795.58 117.641 793.569 118.608C791.558 119.536 789.219 120 786.551 120H770.427V79.69H785.797C788.542 79.69 790.901 80.154 792.873 81.082C794.845 82.01 796.334 83.2667 797.339 84.852C798.344 86.3987 798.847 88.1387 798.847 90.072C798.847 92.392 798.228 94.3253 796.991 95.872C795.754 97.4187 794.091 98.5593 792.003 99.294ZM777.039 96.626H785.217C787.382 96.626 789.064 96.1427 790.263 95.176C791.5 94.1707 792.119 92.74 792.119 90.884C792.119 89.0667 791.5 87.6553 790.263 86.65C789.064 85.606 787.382 85.084 785.217 85.084H777.039V96.626ZM785.971 114.606C788.214 114.606 789.973 114.065 791.249 112.982C792.525 111.899 793.163 110.391 793.163 108.458C793.163 106.486 792.486 104.92 791.133 103.76C789.78 102.6 787.982 102.02 785.739 102.02H777.039V114.606H785.971ZM834.51 103.238C834.51 104.437 834.433 105.519 834.278 106.486H809.86C810.054 109.038 811.001 111.087 812.702 112.634C814.404 114.181 816.492 114.954 818.966 114.954C822.524 114.954 825.037 113.465 826.506 110.488H833.64C832.674 113.427 830.914 115.843 828.362 117.738C825.849 119.594 822.717 120.522 818.966 120.522C815.912 120.522 813.166 119.845 810.73 118.492C808.333 117.1 806.438 115.167 805.046 112.692C803.693 110.179 803.016 107.279 803.016 103.992C803.016 100.705 803.674 97.8247 804.988 95.35C806.342 92.8367 808.217 90.9033 810.614 89.55C813.05 88.1967 815.834 87.52 818.966 87.52C821.982 87.52 824.67 88.1773 827.028 89.492C829.387 90.8067 831.224 92.6627 832.538 95.06C833.853 97.4187 834.51 100.145 834.51 103.238ZM827.608 101.15C827.57 98.714 826.7 96.7613 824.998 95.292C823.297 93.8227 821.19 93.088 818.676 93.088C816.395 93.088 814.442 93.8227 812.818 95.292C811.194 96.7227 810.228 98.6753 809.918 101.15H827.608ZM845.889 92.682C846.856 91.058 848.132 89.8013 849.717 88.912C851.341 87.984 853.255 87.52 855.459 87.52V94.364H853.777C851.187 94.364 849.215 95.0213 847.861 96.336C846.547 97.6507 845.889 99.932 845.889 103.18V120H839.277V88.042H845.889V92.682ZM863.161 83.808C861.962 83.808 860.957 83.402 860.145 82.59C859.333 81.778 858.927 80.7727 858.927 79.574C858.927 78.3753 859.333 77.37 860.145 76.558C860.957 75.746 861.962 75.34 863.161 75.34C864.321 75.34 865.307 75.746 866.119 76.558C866.931 77.37 867.337 78.3753 867.337 79.574C867.337 80.7727 866.931 81.778 866.119 82.59C865.307 83.402 864.321 83.808 863.161 83.808ZM866.409 88.042V120H859.797V88.042H866.409Z" fill="#E24413"/>
</svg>
