<svg width="60" height="50" viewBox="0 0 60 50" fill="none" xmlns="http://www.w3.org/2000/svg">
<path d="M30.3 24.5H30.299C25.9917 24.5 22.5 27.9917 22.5 32.299V41.429C22.5 45.7363 25.9917 49.228 30.299 49.228H30.3C34.6073 49.228 38.099 45.7363 38.099 41.429V32.299C38.099 27.9917 34.6073 24.5 30.3 24.5Z" stroke="#333333"/>
<path d="M31.129 29.81C31.129 29.3516 30.7574 28.98 30.299 28.98C29.8406 28.98 29.469 29.3516 29.469 29.81V33.13C29.469 33.5884 29.8406 33.96 30.299 33.96C30.7574 33.96 31.129 33.5884 31.129 33.13V29.81Z" fill="#E24413"/>
<path opacity="0.65" d="M6.528 6.636C6.528 7.884 5.508 9.084 3.648 9.084C1.98 9.084 0.696 8.172 0.696 6.696H2.16C2.22 7.38 2.7 7.932 3.648 7.932C4.608 7.932 5.148 7.416 5.148 6.708C5.148 4.692 0.72 6 0.72 2.928C0.72 1.464 1.884 0.551999 3.588 0.551999C5.184 0.551999 6.312 1.392 6.432 2.82L4.92 2.82C4.872 2.256 4.38 1.74 3.516 1.716C2.724 1.692 2.112 2.076 2.112 2.88C2.112 4.764 6.528 3.588 6.528 6.636ZM10.6862 4.812C10.6862 2.316 12.5942 0.551999 14.9462 0.551999C16.6862 0.551999 18.1862 1.428 18.8222 3.06H17.1782C16.7342 2.172 15.9422 1.752 14.9462 1.752C13.2902 1.752 12.0902 2.928 12.0902 4.812C12.0902 6.696 13.2902 7.884 14.9462 7.884C15.9422 7.884 16.7342 7.464 17.1782 6.576H18.8222C18.1862 8.208 16.6862 9.072 14.9462 9.072C12.5942 9.072 10.6862 7.32 10.6862 4.812ZM27.8514 3.156C27.8514 2.316 27.3714 1.776 26.3034 1.776L24.7914 1.776V4.572H26.3034C27.3714 4.572 27.8514 3.984 27.8514 3.156ZM23.4234 0.659999L26.3034 0.659999C28.2834 0.659999 29.2554 1.8 29.2554 3.156C29.2554 4.14 28.7274 5.196 27.3234 5.544L29.3874 9H27.7554L25.8354 5.664H24.7914V9H23.4234V0.659999ZM42.0695 4.812C42.0695 7.32 40.1855 9.084 37.8095 9.084C35.4575 9.084 33.5495 7.32 33.5495 4.812C33.5495 2.316 35.4575 0.551999 37.8095 0.551999C40.1855 0.551999 42.0695 2.316 42.0695 4.812ZM34.9535 4.812C34.9535 6.696 36.1535 7.896 37.8095 7.896C39.4655 7.896 40.6655 6.696 40.6655 4.812C40.6655 2.928 39.4655 1.752 37.8095 1.752C36.1535 1.752 34.9535 2.928 34.9535 4.812ZM46.4156 0.659999L47.7836 0.659999V7.896L50.6036 7.896V9L46.4156 9V0.659999ZM54.7477 0.659999L56.1157 0.659999V7.896L58.9357 7.896V9L54.7477 9V0.659999Z" fill="#333333"/>
</svg>
