<svg width="322" height="416" viewBox="0 0 322 416" fill="none" xmlns="http://www.w3.org/2000/svg">
<path opacity="0.15" d="M112.461 0.17511C112.782 0.663635 113.048 1.23599 113.452 1.64078C118.756 6.98679 124.074 12.3188 129.42 17.6229C144.802 32.9071 160.198 48.1913 175.594 63.4755C191.772 79.5414 207.949 95.6213 224.141 111.687C238.937 126.385 253.746 141.069 268.542 155.767C285.194 172.308 301.846 188.862 318.512 205.389C319.406 206.268 320.397 207.064 321.248 207.817C319.21 209.981 317.312 212.005 315.386 214.001C314.883 214.517 314.269 214.922 313.767 215.439C299.25 229.941 284.747 244.486 270.217 258.96C254.179 274.942 238.099 290.869 222.033 306.823C206.679 322.065 191.325 337.308 175.985 352.55C159.766 368.658 143.56 384.78 127.327 400.873C122.902 405.27 118.394 409.583 113.955 413.966C113.494 414.413 113.201 415.027 112.838 415.557C96.5489 415.557 80.2597 415.557 63.9844 415.557C64.3194 415.069 64.5707 414.497 64.9894 414.092C66.8179 412.305 68.7442 410.602 70.5587 408.802C86.513 392.973 102.453 377.144 118.394 361.302C134.501 345.306 150.595 329.31 166.703 313.328C182.364 297.764 198.039 282.215 213.7 266.651C232.879 247.584 252.057 228.517 271.25 209.464C271.683 209.046 272.311 208.822 272.841 208.515C272.855 208.194 272.869 207.859 272.897 207.538C272.353 207.245 271.71 207.05 271.264 206.631C267.872 203.407 264.494 200.168 261.172 196.874C246.167 181.995 231.176 167.101 216.171 152.208C199.951 136.1 183.732 119.978 167.512 103.871C151.851 88.3073 136.176 72.7578 120.515 57.1943C101.881 38.6858 83.2607 20.1633 64.6544 1.64078C64.2357 1.23599 63.9844 0.663635 63.6494 0.161133H112.503L112.461 0.17511Z" fill="#E8E7E8"/>
<path opacity="0.4" d="M0.0139618 16.9103C0.0139618 11.4387 0.0139618 5.98105 0.0139618 0.50943C0.125627 0.397766 0.237293 0.286102 0.348958 0.174438H33.1507C33.5555 0.746735 33.8905 1.40271 34.3791 1.87729C45.8527 13.2672 57.3403 24.6433 68.8279 36.0332C84.6984 51.778 100.555 67.5508 116.425 83.2956C132.128 98.9009 147.845 114.492 163.548 130.098C179.419 145.856 195.289 161.601 211.132 177.374C220.93 187.131 230.701 196.929 240.486 206.714C240.905 207.133 241.282 207.579 242.007 208.361C241.337 208.85 240.723 209.171 240.249 209.645C227.84 221.915 215.445 234.198 203.064 246.495C187.668 261.779 172.286 277.063 156.89 292.348C140.824 308.302 124.772 324.256 108.707 340.21C93.1989 355.606 77.6774 371.002 62.1838 386.412C52.9295 395.624 43.7171 404.865 34.5047 414.105C34.0999 414.51 33.8347 415.082 33.5137 415.585H0.0139618C0.0139618 410.113 0.0139618 404.655 0.0139618 399.184C0.390833 398.974 0.823538 398.835 1.13062 398.556C3.28018 396.546 5.45766 394.536 7.55139 392.47C24.371 375.776 41.1767 359.068 57.9824 342.374C73.0573 327.411 88.1321 312.448 103.207 297.47C119.343 281.446 135.506 265.422 151.614 249.37C164.93 236.11 178.204 222.794 191.493 209.506C191.953 209.045 192.386 208.557 193.182 207.719C192.484 207.244 191.87 206.923 191.395 206.463C178.358 193.565 165.335 180.64 152.326 167.729C136.776 152.291 121.227 136.853 105.692 121.415C89.514 105.35 73.3364 89.2837 57.1589 73.2039C38.6084 54.7651 20.0719 36.3263 1.52145 17.9154C1.1027 17.5107 0.544373 17.2593 0.0418775 16.9243L0.0139618 16.9103Z" fill="#E8E7E8"/>
<path opacity="0.75" d="M0.0139585 369.048C0.0139585 352.871 0.0139585 336.693 0.0139585 320.516C0.502496 320.181 1.07478 319.929 1.49353 319.525C14.2513 306.892 26.9952 294.26 39.739 281.614C55.7212 265.744 71.7033 249.873 87.6715 233.989C95.8929 225.809 104.086 217.588 112.28 209.38C112.699 208.962 113.089 208.515 113.829 207.705C113.187 207.273 112.601 206.993 112.168 206.575C104.728 199.275 97.2887 191.974 89.8908 184.632C72.792 167.673 55.7072 150.7 38.6363 133.699C26.3112 121.416 14.028 109.091 1.7029 96.8073C1.21436 96.3188 0.572286 95.9837 0 95.5789C0 79.5131 0 63.4473 0 47.3814C0.334997 47.5489 0.739785 47.6466 1.00499 47.8979C2.72185 49.4751 4.46663 51.0383 6.12765 52.6854C22.9473 69.3794 39.753 86.0874 56.5586 102.781C71.2008 117.312 85.843 131.842 100.485 146.387C116.425 162.215 132.38 178.058 148.306 193.887C152.577 198.13 156.834 202.401 161.092 206.658C161.51 207.077 161.915 207.524 162.697 208.333C162.069 208.766 161.51 209.045 161.078 209.464C154.238 216.178 147.385 222.878 140.573 229.634C125.01 245.057 109.474 260.509 93.9248 275.947C77.8589 291.901 61.779 307.828 45.741 323.81C31.043 338.452 16.3869 353.15 1.7029 367.806C1.21436 368.294 0.572286 368.629 0 369.048H0.0139585Z" fill="#E8E7E8"/>
<path d="M0.0139585 125.701C3.36393 129.023 6.72785 132.359 10.0778 135.681C19.695 145.228 29.2983 154.79 38.9155 164.337C53.0412 178.365 67.1529 192.379 81.2786 206.393C81.8649 206.979 82.4232 207.58 82.6884 207.873C79.492 211.181 76.4212 214.489 73.2248 217.671C64.3892 226.507 55.5118 235.287 46.6483 244.094C31.2664 259.378 15.8844 274.663 0.502495 289.933C0.348955 290.087 0.167498 290.226 0 290.366C0 274.188 0 258.011 0 241.833C3.33601 238.553 6.74181 235.356 9.98012 231.992C17.8107 223.855 25.5575 215.633 33.388 207.412C31.3222 205.332 28.5445 202.527 25.7529 199.735C17.1826 191.221 8.59826 182.72 0.0139585 174.219C0.0139585 158.042 0.0139585 141.864 0.0139585 125.687L0.0139585 125.701Z" fill="#E24413"/>
</svg>
