<svg width="178" height="48" viewBox="0 0 178 48" fill="none" xmlns="http://www.w3.org/2000/svg">
<rect width="178" height="48" fill="#E24413"/>
<path d="M41.52 23.51H43.53C45.09 23.51 45.75 22.775 45.75 21.605C45.75 20.39 45.09 19.67 43.53 19.67H41.52V23.51ZM47.145 21.605C47.145 23.195 46.125 24.635 43.53 24.635H41.52V29H40.155V18.545H43.53C45.99 18.545 47.145 19.895 47.145 21.605ZM50.2065 24.53V29H48.8415V20.78H50.2065V22.115C50.6715 21.2 51.5565 20.63 52.8615 20.63V22.04H52.5015C51.1965 22.04 50.2065 22.625 50.2065 24.53ZM62.2372 24.875C62.2372 27.485 60.3622 29.135 58.0222 29.135C55.6972 29.135 53.9272 27.485 53.9272 24.875C53.9272 22.28 55.7572 20.645 58.0822 20.645C60.4222 20.645 62.2372 22.28 62.2372 24.875ZM55.3222 24.875C55.3222 26.96 56.5972 27.935 58.0222 27.935C59.4472 27.935 60.8422 26.96 60.8422 24.875C60.8422 22.805 59.4772 21.83 58.0672 21.83C56.6272 21.83 55.3222 22.805 55.3222 24.875ZM64.767 19.445C64.257 19.445 63.852 19.04 63.852 18.515C63.852 17.99 64.257 17.585 64.767 17.585C65.277 17.585 65.682 17.99 65.682 18.515C65.682 19.04 65.277 19.445 64.767 19.445ZM64.077 20.78H65.442V30.785C65.442 32.27 64.662 32.9 63.267 32.9H62.472V31.745H63.042C63.792 31.745 64.077 31.475 64.077 30.755V20.78ZM71.2477 21.8C69.9127 21.8 68.8027 22.685 68.6527 24.29H73.8427C73.8577 22.685 72.6577 21.8 71.2477 21.8ZM75.0877 26.465C74.6677 27.965 73.3477 29.135 71.3077 29.135C68.9677 29.135 67.2427 27.485 67.2427 24.875C67.2427 22.28 68.9077 20.645 71.3077 20.645C73.6927 20.645 75.2527 22.325 75.2527 24.575C75.2527 24.875 75.2377 25.115 75.2077 25.4H68.6377C68.7427 27.065 69.9127 27.98 71.3077 27.98C72.5377 27.98 73.3177 27.35 73.6177 26.465H75.0877ZM77.0544 29V17.9H78.4194V29H77.0544ZM84.2408 21.8C82.9058 21.8 81.7958 22.685 81.6458 24.29H86.8358C86.8508 22.685 85.6508 21.8 84.2408 21.8ZM88.0808 26.465C87.6608 27.965 86.3408 29.135 84.3008 29.135C81.9608 29.135 80.2358 27.485 80.2358 24.875C80.2358 22.28 81.9008 20.645 84.3008 20.645C86.6858 20.645 88.2458 22.325 88.2458 24.575C88.2458 24.875 88.2308 25.115 88.2008 25.4H81.6308C81.7358 27.065 82.9058 27.98 84.3008 27.98C85.5308 27.98 86.3108 27.35 86.6108 26.465H88.0808ZM91.4126 24.53V29H90.0476V20.78H91.4126V22.115C91.8776 21.2 92.7626 20.63 94.0676 20.63V22.04H93.7076C92.4026 22.04 91.4126 22.625 91.4126 24.53ZM95.6433 29V20.78H97.0083V29H95.6433ZM96.3483 19.445C95.8233 19.445 95.4183 19.04 95.4183 18.515C95.4183 17.99 95.8233 17.585 96.3483 17.585C96.8433 17.585 97.2483 17.99 97.2483 18.515C97.2483 19.04 96.8433 19.445 96.3483 19.445ZM111.2 29V24.35C111.2 22.67 110.3 21.815 108.95 21.815C107.57 21.815 106.625 22.7 106.625 24.47V29H105.275V24.35C105.275 22.67 104.375 21.815 103.025 21.815C101.645 21.815 100.7 22.7 100.7 24.47V29H99.3347V20.78H100.7V21.965C101.24 21.095 102.215 20.63 103.295 20.63C104.645 20.63 105.77 21.23 106.31 22.46C106.79 21.275 107.96 20.63 109.22 20.63C111.095 20.63 112.55 21.8 112.55 24.155V29H111.2ZM114.789 29V20.78H116.154V29H114.789ZM115.494 19.445C114.969 19.445 114.564 19.04 114.564 18.515C114.564 17.99 114.969 17.585 115.494 17.585C115.989 17.585 116.394 17.99 116.394 18.515C116.394 19.04 115.989 19.445 115.494 19.445ZM123.505 20.78V21.89L119.5 27.875H123.535V29H117.94V27.875L121.93 21.89H117.97V20.78H123.505Z" fill="white"/>
<path d="M135 19L140 24L135 29" stroke="white"/>
</svg>
