<svg width="455" height="4719" viewBox="0 0 455 4719" fill="none" xmlns="http://www.w3.org/2000/svg">
<path d="M454 0V4719" stroke="black" stroke-opacity="0.1" stroke-width="0.65"/>
<path d="M70 0V4719" stroke="black" stroke-opacity="0.1" stroke-width="0.65"/>
<path d="M126.7 974.5H130.6V988H143.98V991.6H130.6V1005.1H126.7V991.6H113.38V988H126.7V974.5ZM149.576 1011.7V1008.7C161.936 999.46 172.676 990.16 172.676 980.98C172.676 976 170.516 971.86 163.856 971.86C157.496 971.86 154.376 976.3 154.016 982.3H149.936C150.416 973.24 155.936 968.26 163.856 968.26C171.356 968.26 176.876 972.52 176.876 980.8C176.876 991.78 164.456 1001.92 155.996 1008.16H178.196V1011.7H149.576ZM182.772 979.96C183.372 972.64 188.832 968.2 196.872 968.2C205.152 968.2 209.592 973.06 209.592 979.18C209.592 984.04 206.712 988.24 201.072 989.14V989.44C206.532 990.52 210.372 994.24 210.372 1000.6C210.372 1007.14 205.992 1012.3 196.932 1012.3C188.832 1012.3 182.892 1007.92 182.052 999.76H186.132C186.852 1004.86 190.572 1008.76 196.932 1008.76C203.292 1008.76 206.352 1004.98 206.352 1000.24C206.352 993.88 201.552 991.12 193.212 991.12H191.892V987.58H193.272C201.492 987.58 205.512 984.88 205.512 979.6C205.512 975.04 202.452 971.86 196.752 971.86C191.412 971.86 187.512 974.74 186.852 979.96H182.772Z" fill="#E24413"/>
<path d="M114.28 1050.56L109.76 1042.02H111.34L114.98 1049.28L118.6 1042.02H120.16L115.68 1050.56V1056H114.28V1050.56ZM121.809 1056V1045.08H123.209V1056H121.809ZM125.979 1056V1041.2H127.379V1056H125.979ZM130.15 1056V1041.2H131.55V1056H130.15ZM133.68 1050.52C133.68 1047.1 135.9 1044.92 138.9 1044.92C141.1 1044.92 142.6 1046.1 143.22 1047.48V1045.08H144.62V1056H143.22V1053.58C142.58 1054.98 141.06 1056.16 138.88 1056.16C135.9 1056.16 133.68 1053.94 133.68 1050.52ZM143.22 1050.54C143.22 1047.82 141.4 1046.14 139.16 1046.14C136.86 1046.14 135.1 1047.74 135.1 1050.52C135.1 1053.28 136.86 1054.94 139.16 1054.94C141.4 1054.94 143.22 1053.26 143.22 1050.54ZM148.816 1049.9V1056H147.416V1045.08H148.816V1047.02C149.416 1045.68 150.676 1044.88 152.556 1044.88V1046.34H152.176C150.356 1046.34 148.816 1047.16 148.816 1049.9ZM154.262 1056V1045.08H155.662V1056H154.262ZM166.612 1056V1049.76C166.612 1047.34 165.292 1046.1 163.292 1046.1C161.252 1046.1 159.832 1047.38 159.832 1050.04V1056H158.432V1045.08H159.832V1046.94C160.532 1045.58 161.932 1044.88 163.552 1044.88C166.032 1044.88 167.992 1046.4 167.992 1049.6V1056H166.612ZM174.777 1043.18V1042.02H183.957V1043.18H180.077V1056H178.677V1043.18H174.777ZM190.428 1046.12C188.448 1046.12 186.708 1047.4 186.548 1049.94H194.228C194.288 1047.4 192.448 1046.12 190.428 1046.12ZM195.488 1052.54C194.988 1054.6 193.228 1056.16 190.488 1056.16C187.388 1056.16 185.128 1054 185.128 1050.54C185.128 1047.06 187.348 1044.92 190.488 1044.92C193.688 1044.92 195.648 1047.2 195.648 1049.98C195.648 1050.42 195.648 1050.7 195.608 1051.08H186.548C186.668 1053.64 188.448 1054.98 190.488 1054.98C192.348 1054.98 193.608 1054 194.008 1052.54H195.488ZM197.169 1050.54C197.169 1047.08 199.389 1044.92 202.469 1044.92C205.209 1044.92 206.989 1046.38 207.489 1048.64H205.989C205.629 1047.08 204.309 1046.12 202.469 1046.12C200.329 1046.12 198.589 1047.58 198.589 1050.54C198.589 1053.5 200.329 1054.98 202.469 1054.98C204.309 1054.98 205.609 1054.04 205.989 1052.44H207.489C206.989 1054.62 205.209 1056.16 202.469 1056.16C199.389 1056.16 197.169 1054 197.169 1050.54ZM211.075 1049.9V1056H209.675V1045.08H211.075V1047.02C211.675 1045.68 212.935 1044.88 214.815 1044.88V1046.34H214.435C212.615 1046.34 211.075 1047.16 211.075 1049.9ZM225.981 1045.08V1056H224.581V1054.08C223.921 1055.46 222.481 1056.18 220.861 1056.18C218.381 1056.18 216.421 1054.66 216.421 1051.46V1045.08H217.801V1051.3C217.801 1053.72 219.121 1054.96 221.121 1054.96C223.161 1054.96 224.581 1053.68 224.581 1051.02V1045.08H225.981ZM219.741 1043.54C219.221 1043.54 218.821 1043.12 218.821 1042.62C218.821 1042.12 219.221 1041.7 219.741 1041.7C220.241 1041.7 220.661 1042.12 220.661 1042.62C220.661 1043.12 220.241 1043.54 219.741 1043.54ZM222.821 1043.54C222.301 1043.54 221.901 1043.12 221.901 1042.62C221.901 1042.12 222.301 1041.7 222.821 1041.7C223.321 1041.7 223.721 1042.12 223.721 1042.62C223.721 1043.12 223.321 1043.54 222.821 1043.54ZM230.157 1047.5C230.837 1046.06 232.357 1044.92 234.497 1044.92C237.497 1044.92 239.697 1047.1 239.697 1050.52C239.697 1053.94 237.477 1056.16 234.497 1056.16C232.317 1056.16 230.817 1055.02 230.157 1053.6V1056H228.777V1041.2H230.157V1047.5ZM238.277 1050.52C238.277 1047.74 236.517 1046.14 234.217 1046.14C231.997 1046.14 230.157 1047.82 230.157 1050.54C230.157 1053.26 231.997 1054.94 234.217 1054.94C236.517 1054.94 238.277 1053.28 238.277 1050.52ZM246.533 1046.12C244.553 1046.12 242.813 1047.4 242.653 1049.94H250.333C250.393 1047.4 248.553 1046.12 246.533 1046.12ZM251.593 1052.54C251.093 1054.6 249.333 1056.16 246.593 1056.16C243.493 1056.16 241.233 1054 241.233 1050.54C241.233 1047.06 243.453 1044.92 246.593 1044.92C249.793 1044.92 251.753 1047.2 251.753 1049.98C251.753 1050.42 251.753 1050.7 251.713 1051.08H242.653C242.773 1053.64 244.553 1054.98 246.593 1054.98C248.453 1054.98 249.713 1054 250.113 1052.54H251.593ZM261.474 1053.1C261.474 1054.86 259.934 1056.16 257.674 1056.16C255.194 1056.16 253.454 1054.92 253.274 1052.92H254.714C254.834 1054.12 255.874 1054.98 257.654 1054.98C259.214 1054.98 260.094 1054.14 260.094 1053.1C260.094 1050.4 253.534 1051.98 253.534 1047.88C253.534 1046.26 255.074 1044.92 257.374 1044.92C259.714 1044.92 261.254 1046.16 261.374 1048.26H259.974C259.894 1047.04 258.994 1046.12 257.334 1046.12C255.874 1046.12 254.954 1046.9 254.954 1047.86C254.954 1050.82 261.414 1049.24 261.474 1053.1ZM263.71 1056V1045.08H265.11V1056H263.71ZM264.41 1043.02C263.85 1043.02 263.39 1042.58 263.39 1041.98C263.39 1041.38 263.85 1040.96 264.41 1040.96C264.97 1040.96 265.43 1041.38 265.43 1041.98C265.43 1042.58 264.97 1043.02 264.41 1043.02Z" fill="#333333" fill-opacity="0.85"/>
<path d="M112.042 1242V1228.92H110.062V1227.66H113.462V1242H112.042ZM116.602 1227.64H125.222V1228.86H117.902V1233.98C118.542 1233.08 119.922 1232.38 121.442 1232.38C124.902 1232.38 126.082 1234.82 126.082 1237.08C126.082 1239.78 124.602 1242.06 121.222 1242.06C118.442 1242.06 116.682 1240.48 116.322 1238.1H117.702C118.062 1239.88 119.402 1240.86 121.222 1240.86C123.642 1240.86 124.742 1239.26 124.742 1237.1C124.742 1234.92 123.542 1233.58 121.262 1233.58C119.682 1233.58 118.482 1234.38 117.922 1235.58H116.602V1227.64ZM133.454 1236.8V1228.02H134.854V1236.82C134.854 1239.72 136.374 1240.9 138.554 1240.9C140.734 1240.9 142.214 1239.72 142.214 1236.82V1228.02H143.614V1236.8C143.614 1240.5 141.374 1242.14 138.534 1242.14C135.694 1242.14 133.454 1240.5 133.454 1236.8ZM136.994 1226.66C136.474 1226.66 136.074 1226.24 136.074 1225.74C136.074 1225.24 136.474 1224.82 136.994 1224.82C137.494 1224.82 137.914 1225.24 137.914 1225.74C137.914 1226.24 137.494 1226.66 136.994 1226.66ZM140.074 1226.66C139.554 1226.66 139.154 1226.24 139.154 1225.74C139.154 1225.24 139.554 1224.82 140.074 1224.82C140.574 1224.82 140.974 1225.24 140.974 1225.74C140.974 1226.24 140.574 1226.66 140.074 1226.66ZM146.337 1242V1227.2H147.737V1242H146.337ZM150.507 1242V1227.2H151.907V1235.96L156.307 1231.08H158.267L153.087 1236.52L158.307 1242H156.407L151.907 1237.1V1242H150.507ZM164.376 1232.12C162.396 1232.12 160.656 1233.4 160.496 1235.94H168.176C168.236 1233.4 166.396 1232.12 164.376 1232.12ZM169.436 1238.54C168.936 1240.6 167.176 1242.16 164.436 1242.16C161.336 1242.16 159.076 1240 159.076 1236.54C159.076 1233.06 161.296 1230.92 164.436 1230.92C167.636 1230.92 169.596 1233.2 169.596 1235.98C169.596 1236.42 169.596 1236.7 169.556 1237.08H160.496C160.616 1239.64 162.396 1240.98 164.436 1240.98C166.296 1240.98 167.556 1240 167.956 1238.54H169.436Z" fill="#333333" fill-opacity="0.85"/>
<path d="M111.58 1349.98C111.58 1344.76 115.18 1341.4 119.98 1341.4C124.84 1341.4 128.44 1344.76 128.44 1349.98C128.44 1355.26 124.84 1358.62 119.98 1358.62C115.18 1358.62 111.58 1355.26 111.58 1349.98ZM119.98 1344.1C116.98 1344.1 115 1346.2 115 1349.98C115 1353.76 116.98 1355.92 119.98 1355.92C122.98 1355.92 125.02 1353.76 125.02 1349.98C125.02 1346.2 122.98 1344.1 119.98 1344.1ZM116.32 1384L140.98 1342H145.18L120.58 1384H116.32ZM133.18 1376.02C133.18 1370.74 136.78 1367.38 141.58 1367.38C146.38 1367.38 149.98 1370.74 149.98 1376.02C149.98 1381.3 146.38 1384.66 141.58 1384.66C136.78 1384.66 133.18 1381.3 133.18 1376.02ZM141.58 1370.14C138.58 1370.14 136.54 1372.24 136.54 1376.02C136.54 1379.8 138.58 1381.9 141.58 1381.9C144.58 1381.9 146.56 1379.8 146.56 1376.02C146.56 1372.24 144.58 1370.14 141.58 1370.14ZM162.975 1361.68C157.935 1360.06 155.355 1356.46 155.355 1351.66C155.355 1345.3 160.275 1340.38 169.455 1340.38C178.635 1340.38 183.555 1345.3 183.555 1351.66C183.555 1356.4 180.915 1360.12 175.935 1361.68C181.275 1363.06 184.695 1367.02 184.695 1372.6C184.695 1380.34 178.695 1385.26 169.455 1385.26C160.215 1385.26 154.215 1380.34 154.215 1372.6C154.215 1367.02 157.635 1363.06 162.975 1361.68ZM169.455 1360.3C175.455 1360.3 179.475 1357.12 179.475 1352.14C179.475 1346.74 175.515 1343.86 169.455 1343.86C163.455 1343.86 159.435 1346.68 159.435 1352.14C159.435 1357.12 163.455 1360.3 169.455 1360.3ZM169.455 1363.54C163.335 1363.54 158.295 1366.18 158.295 1372.48C158.295 1378.24 162.615 1381.72 169.455 1381.72C176.235 1381.72 180.555 1378.18 180.555 1372.48C180.555 1366.3 175.635 1363.54 169.455 1363.54ZM190.277 1362.1C190.277 1349.8 193.037 1340.38 204.857 1340.38C216.617 1340.38 219.437 1349.8 219.437 1362.1C219.437 1374.64 216.617 1384.12 204.857 1384.12C193.037 1384.12 190.277 1374.64 190.277 1362.1ZM215.297 1362.1C215.297 1352.38 213.977 1344.16 204.857 1344.16C195.737 1344.16 194.417 1352.38 194.417 1362.1C194.417 1372.18 195.737 1380.28 204.857 1380.28C213.977 1380.28 215.297 1372.18 215.297 1362.1Z" fill="#E24413"/>
<path d="M110.938 1422.8V1414.02H112.338V1422.82C112.338 1425.72 113.858 1426.9 116.038 1426.9C118.218 1426.9 119.698 1425.72 119.698 1422.82V1414.02H121.098V1422.8C121.098 1426.5 118.858 1428.14 116.018 1428.14C113.178 1428.14 110.938 1426.5 110.938 1422.8ZM123.821 1428V1413.2H125.221V1428H123.821ZM137.451 1417.08V1428H136.051V1426.08C135.391 1427.46 133.951 1428.18 132.331 1428.18C129.851 1428.18 127.891 1426.66 127.891 1423.46V1417.08H129.271V1423.3C129.271 1425.72 130.591 1426.96 132.591 1426.96C134.631 1426.96 136.051 1425.68 136.051 1423.02V1417.08H137.451ZM147.808 1425.1C147.808 1426.86 146.268 1428.16 144.008 1428.16C141.528 1428.16 139.788 1426.92 139.608 1424.92H141.048C141.168 1426.12 142.208 1426.98 143.988 1426.98C145.548 1426.98 146.428 1426.14 146.428 1425.1C146.428 1422.4 139.868 1423.98 139.868 1419.88C139.868 1418.26 141.408 1416.92 143.708 1416.92C146.048 1416.92 147.588 1418.16 147.708 1420.26H146.308C146.228 1419.04 145.328 1418.12 143.668 1418.12C142.208 1418.12 141.288 1418.9 141.288 1419.86C141.288 1422.82 147.748 1421.24 147.808 1425.1ZM150.043 1428V1413.2H151.443V1428H150.043ZM153.573 1422.52C153.573 1419.1 155.793 1416.92 158.793 1416.92C160.993 1416.92 162.493 1418.1 163.113 1419.48V1417.08H164.513V1428H163.113V1425.58C162.473 1426.98 160.953 1428.16 158.773 1428.16C155.793 1428.16 153.573 1425.94 153.573 1422.52ZM163.113 1422.54C163.113 1419.82 161.293 1418.14 159.053 1418.14C156.753 1418.14 154.993 1419.74 154.993 1422.52C154.993 1425.28 156.753 1426.94 159.053 1426.94C161.293 1426.94 163.113 1425.26 163.113 1422.54ZM168.709 1421.9V1428H167.309V1417.08H168.709V1419.02C169.309 1417.68 170.569 1416.88 172.449 1416.88V1418.34H172.069C170.249 1418.34 168.709 1419.16 168.709 1421.9ZM173.515 1422.52C173.515 1419.1 175.735 1416.92 178.735 1416.92C180.935 1416.92 182.435 1418.1 183.055 1419.48V1417.08H184.455V1428H183.055V1425.58C182.415 1426.98 180.895 1428.16 178.715 1428.16C175.735 1428.16 173.515 1425.94 173.515 1422.52ZM183.055 1422.54C183.055 1419.82 181.235 1418.14 178.995 1418.14C176.695 1418.14 174.935 1419.74 174.935 1422.52C174.935 1425.28 176.695 1426.94 178.995 1426.94C181.235 1426.94 183.055 1425.26 183.055 1422.54ZM188.652 1421.9V1428H187.252V1417.08H188.652V1419.02C189.252 1417.68 190.512 1416.88 192.392 1416.88V1418.34H192.012C190.192 1418.34 188.652 1419.16 188.652 1421.9ZM193.458 1422.52C193.458 1419.1 195.678 1416.92 198.678 1416.92C200.878 1416.92 202.378 1418.1 202.998 1419.48V1417.08H204.398V1428H202.998V1425.58C202.358 1426.98 200.838 1428.16 198.658 1428.16C195.678 1428.16 193.458 1425.94 193.458 1422.52ZM202.998 1422.54C202.998 1419.82 201.178 1418.14 198.938 1418.14C196.638 1418.14 194.878 1419.74 194.878 1422.52C194.878 1425.28 196.638 1426.94 198.938 1426.94C201.178 1426.94 202.998 1425.26 202.998 1422.54ZM214.754 1425.1C214.754 1426.86 213.214 1428.16 210.954 1428.16C208.474 1428.16 206.734 1426.92 206.554 1424.92H207.994C208.114 1426.12 209.154 1426.98 210.934 1426.98C212.494 1426.98 213.374 1426.14 213.374 1425.1C213.374 1422.4 206.814 1423.98 206.814 1419.88C206.814 1418.26 208.354 1416.92 210.654 1416.92C212.994 1416.92 214.534 1418.16 214.654 1420.26H213.254C213.174 1419.04 212.274 1418.12 210.614 1418.12C209.154 1418.12 208.234 1418.9 208.234 1419.86C208.234 1422.82 214.694 1421.24 214.754 1425.1ZM216.989 1428V1417.08H218.389V1428H216.989ZM227.648 1420.84H230.468C232.828 1420.84 233.748 1419.76 233.748 1418.04C233.748 1416.24 232.828 1415.2 230.468 1415.2H227.648V1420.84ZM235.188 1418.04C235.188 1420.3 233.748 1422.04 230.468 1422.04H227.648V1428H226.248V1414.02H230.468C233.708 1414.02 235.188 1415.74 235.188 1418.04ZM238.537 1421.9V1428H237.137V1417.08H238.537V1419.02C239.137 1417.68 240.397 1416.88 242.277 1416.88V1418.34H241.897C240.077 1418.34 238.537 1419.16 238.537 1421.9ZM254.263 1422.54C254.263 1426 251.843 1428.16 248.763 1428.16C245.683 1428.16 243.343 1426 243.343 1422.54C243.343 1419.06 245.743 1416.92 248.803 1416.92C251.883 1416.92 254.263 1419.06 254.263 1422.54ZM244.763 1422.54C244.763 1425.54 246.683 1426.94 248.763 1426.94C250.823 1426.94 252.823 1425.54 252.823 1422.54C252.823 1419.54 250.863 1418.14 248.783 1418.14C246.703 1418.14 244.763 1419.54 244.763 1422.54ZM257.215 1415.02C256.655 1415.02 256.195 1414.58 256.195 1413.98C256.195 1413.38 256.655 1412.96 257.215 1412.96C257.775 1412.96 258.215 1413.38 258.215 1413.98C258.215 1414.58 257.775 1415.02 257.215 1415.02ZM256.495 1417.08H257.895V1430.58C257.895 1432.34 257.015 1433.16 255.255 1433.16H254.275V1431.96H255.035C256.075 1431.96 256.495 1431.58 256.495 1430.52V1417.08ZM265.362 1418.12C263.382 1418.12 261.642 1419.4 261.482 1421.94H269.162C269.222 1419.4 267.382 1418.12 265.362 1418.12ZM270.422 1424.54C269.922 1426.6 268.162 1428.16 265.422 1428.16C262.322 1428.16 260.062 1426 260.062 1422.54C260.062 1419.06 262.282 1416.92 265.422 1416.92C268.622 1416.92 270.582 1419.2 270.582 1421.98C270.582 1422.42 270.582 1422.7 270.542 1423.08H261.482C261.602 1425.64 263.382 1426.98 265.422 1426.98C267.282 1426.98 268.542 1426 268.942 1424.54H270.422ZM272.744 1428V1413.2H274.144V1428H272.744ZM281.574 1418.12C279.594 1418.12 277.854 1419.4 277.694 1421.94H285.374C285.434 1419.4 283.594 1418.12 281.574 1418.12ZM286.634 1424.54C286.134 1426.6 284.374 1428.16 281.634 1428.16C278.534 1428.16 276.274 1426 276.274 1422.54C276.274 1419.06 278.494 1416.92 281.634 1416.92C284.834 1416.92 286.794 1419.2 286.794 1421.98C286.794 1422.42 286.794 1422.7 286.754 1423.08H277.694C277.814 1425.64 279.594 1426.98 281.634 1426.98C283.494 1426.98 284.754 1426 285.154 1424.54H286.634ZM290.355 1421.9V1428H288.955V1417.08H290.355V1419.02C290.955 1417.68 292.215 1416.88 294.095 1416.88V1418.34H293.715C291.895 1418.34 290.355 1419.16 290.355 1421.9Z" fill="#333333" fill-opacity="0.85"/>
<line y1="1105.68" x2="384" y2="1105.68" stroke="#E5E5E5" stroke-width="0.65"/>
<line y1="1291.68" x2="384" y2="1291.68" stroke="#E5E5E5" stroke-width="0.65"/>
</svg>
