<svg width="178" height="48" viewBox="0 0 178 48" fill="none" xmlns="http://www.w3.org/2000/svg">
<rect x="0.5" y="0.5" width="177" height="47" stroke="#E24413"/>
<path d="M48.095 26.06C48.095 24.905 47.225 24.185 45.89 24.185H43.52V27.875H45.935C47.285 27.875 48.095 27.2 48.095 26.06ZM47.825 21.365C47.825 20.33 47.12 19.67 45.785 19.67H43.52V23.06H45.815C47.09 23.06 47.825 22.43 47.825 21.365ZM49.46 26.195C49.46 27.77 48.215 29 46.055 29H42.155V18.545H45.905C48.11 18.545 49.22 19.745 49.22 21.2C49.22 22.52 48.395 23.285 47.39 23.615C48.53 23.81 49.46 24.905 49.46 26.195ZM51.3542 29V20.78H52.7192V29H51.3542ZM52.0592 19.445C51.5342 19.445 51.1292 19.04 51.1292 18.515C51.1292 17.99 51.5342 17.585 52.0592 17.585C52.5542 17.585 52.9592 17.99 52.9592 18.515C52.9592 19.04 52.5542 19.445 52.0592 19.445ZM60.0706 20.78V21.89L56.0656 27.875H60.1006V29H54.5056V27.875L58.4956 21.89H54.5356V20.78H60.0706ZM61.8718 29V20.78H63.2368V29H61.8718ZM62.5768 19.445C62.0518 19.445 61.6468 19.04 61.6468 18.515C61.6468 17.99 62.0518 17.585 62.5768 17.585C63.0718 17.585 63.4768 17.99 63.4768 18.515C63.4768 19.04 63.0718 19.445 62.5768 19.445ZM68.9172 19.655V18.545H75.9972V19.655H73.1472V29H71.7822V19.655H68.9172ZM77.1675 24.86C77.1675 22.295 78.8625 20.645 81.0675 20.645C82.5975 20.645 83.6475 21.425 84.1275 22.28V20.78H85.5075V29H84.1275V27.47C83.6325 28.355 82.5675 29.135 81.0525 29.135C78.8625 29.135 77.1675 27.41 77.1675 24.86ZM84.1275 24.875C84.1275 22.97 82.8375 21.83 81.3375 21.83C79.8375 21.83 78.5625 22.925 78.5625 24.86C78.5625 26.795 79.8375 27.935 81.3375 27.935C82.8375 27.935 84.1275 26.81 84.1275 24.875ZM93.8292 29V24.35C93.8292 22.67 92.9142 21.815 91.5342 21.815C90.1392 21.815 89.1792 22.685 89.1792 24.455V29H87.8142V20.78H89.1792V21.95C89.7192 21.095 90.7092 20.63 91.8192 20.63C93.7242 20.63 95.1792 21.8 95.1792 24.155V29H93.8292ZM97.4089 29V20.78H98.7739V29H97.4089ZM104.22 27.44L106.77 20.78H108.18L103.23 32.87H101.82L103.44 28.91L100.125 20.78H101.64L104.22 27.44ZM109.552 29V20.78H110.917V29H109.552ZM119.259 29V24.35C119.259 22.67 118.344 21.815 116.964 21.815C115.569 21.815 114.609 22.685 114.609 24.455V29H113.244V20.78H114.609V21.95C115.149 21.095 116.139 20.63 117.249 20.63C119.154 20.63 120.609 21.8 120.609 24.155V29H119.259Z" fill="#E24413"/>
<path d="M132 19L137 24L132 29" stroke="#E24413"/>
</svg>
