<svg width="396" height="46" viewBox="0 0 396 46" fill="none" xmlns="http://www.w3.org/2000/svg">
<path d="M8.789 9.872C8.789 11.487 7.48 13.119 4.964 13.119C2.584 13.119 1.02 11.759 0.952 9.94H2.21C2.312 10.926 3.043 12.116 4.964 12.116C6.613 12.116 7.582 11.147 7.582 9.923C7.582 6.421 1.054 8.631 1.054 4.16C1.054 2.324 2.567 0.981 4.862 0.981C7.123 0.981 8.483 2.239 8.687 3.871H7.395C7.259 3.038 6.46 2.018 4.811 2.001C3.417 1.984 2.261 2.749 2.261 4.126C2.261 7.56 8.789 5.452 8.789 9.872ZM18.7895 3.718V13H17.5995V11.368C17.0385 12.541 15.8145 13.153 14.4375 13.153C12.3295 13.153 10.6635 11.861 10.6635 9.141V3.718H11.8365V9.005C11.8365 11.062 12.9585 12.116 14.6585 12.116C16.3925 12.116 17.5995 11.028 17.5995 8.767V3.718H18.7895ZM13.4855 2.409C13.0435 2.409 12.7035 2.052 12.7035 1.627C12.7035 1.202 13.0435 0.844999 13.4855 0.844999C13.9105 0.844999 14.2675 1.202 14.2675 1.627C14.2675 2.052 13.9105 2.409 13.4855 2.409ZM16.1035 2.409C15.6615 2.409 15.3215 2.052 15.3215 1.627C15.3215 1.202 15.6615 0.844999 16.1035 0.844999C16.5285 0.844999 16.8685 1.202 16.8685 1.627C16.8685 2.052 16.5285 2.409 16.1035 2.409ZM22.3563 7.815V13H21.1663V3.718H22.3563V5.367C22.8663 4.228 23.9373 3.548 25.5353 3.548V4.789H25.2123C23.6653 4.789 22.3563 5.486 22.3563 7.815ZM26.4415 8.342C26.4415 5.435 28.3285 3.582 30.8955 3.582C32.5615 3.582 33.9555 4.5 34.5505 5.724V0.42H35.7405V13H34.5505V10.926C34.0065 12.15 32.7145 13.136 30.8785 13.136C28.3285 13.136 26.4415 11.249 26.4415 8.342ZM34.5505 8.359C34.5505 6.047 33.0035 4.619 31.0995 4.619C29.1445 4.619 27.6485 5.979 27.6485 8.342C27.6485 10.688 29.1445 12.099 31.0995 12.099C33.0035 12.099 34.5505 10.671 34.5505 8.359ZM46.1582 3.718V13H44.9682V11.368C44.4072 12.541 43.1832 13.153 41.8062 13.153C39.6982 13.153 38.0322 11.861 38.0322 9.141V3.718H39.2052V9.005C39.2052 11.062 40.3272 12.116 42.0272 12.116C43.7612 12.116 44.9682 11.028 44.9682 8.767V3.718H46.1582ZM40.8542 2.409C40.4122 2.409 40.0722 2.052 40.0722 1.627C40.0722 1.202 40.4122 0.844999 40.8542 0.844999C41.2792 0.844999 41.6362 1.202 41.6362 1.627C41.6362 2.052 41.2792 2.409 40.8542 2.409ZM43.4722 2.409C43.0302 2.409 42.6902 2.052 42.6902 1.627C42.6902 1.202 43.0302 0.844999 43.4722 0.844999C43.8972 0.844999 44.2372 1.202 44.2372 1.627C44.2372 2.052 43.8972 2.409 43.4722 2.409ZM49.725 7.815V13H48.535V3.718H49.725V5.367C50.235 4.228 51.306 3.548 52.904 3.548V4.789H52.581C51.034 4.789 49.725 5.486 49.725 7.815ZM62.3952 3.718V13H61.2052V11.368C60.6442 12.541 59.4202 13.153 58.0432 13.153C55.9352 13.153 54.2692 11.861 54.2692 9.141V3.718H55.4422V9.005C55.4422 11.062 56.5642 12.116 58.2642 12.116C59.9982 12.116 61.2052 11.028 61.2052 8.767V3.718H62.3952ZM57.0912 2.409C56.6492 2.409 56.3092 2.052 56.3092 1.627C56.3092 1.202 56.6492 0.844999 57.0912 0.844999C57.5162 0.844999 57.8732 1.202 57.8732 1.627C57.8732 2.052 57.5162 2.409 57.0912 2.409ZM59.7092 2.409C59.2672 2.409 58.9272 2.052 58.9272 1.627C58.9272 1.202 59.2672 0.844999 59.7092 0.844999C60.1342 0.844999 60.4742 1.202 60.4742 1.627C60.4742 2.052 60.1342 2.409 59.7092 2.409ZM64.772 13V0.42H65.962V13H64.772ZM72.2778 4.602C70.5948 4.602 69.1158 5.69 68.9798 7.849H75.5078C75.5588 5.69 73.9948 4.602 72.2778 4.602ZM76.5788 10.059C76.1538 11.81 74.6578 13.136 72.3288 13.136C69.6938 13.136 67.7728 11.3 67.7728 8.359C67.7728 5.401 69.6598 3.582 72.3288 3.582C75.0488 3.582 76.7148 5.52 76.7148 7.883C76.7148 8.257 76.7148 8.495 76.6808 8.818H68.9798C69.0818 10.994 70.5948 12.133 72.3288 12.133C73.9098 12.133 74.9808 11.3 75.3208 10.059H76.5788ZM79.725 5.775C80.303 4.551 81.595 3.582 83.414 3.582C85.964 3.582 87.834 5.435 87.834 8.342C87.834 11.249 85.947 13.136 83.414 13.136C81.561 13.136 80.286 12.167 79.725 10.96V13H78.552V0.42H79.725V5.775ZM86.627 8.342C86.627 5.979 85.131 4.619 83.176 4.619C81.289 4.619 79.725 6.047 79.725 8.359C79.725 10.671 81.289 12.099 83.176 12.099C85.131 12.099 86.627 10.688 86.627 8.342ZM89.6836 13V3.718H90.8736V13H89.6836ZM90.2786 1.967C89.8026 1.967 89.4116 1.593 89.4116 1.083C89.4116 0.573 89.8026 0.215999 90.2786 0.215999C90.7546 0.215999 91.1456 0.573 91.1456 1.083C91.1456 1.593 90.7546 1.967 90.2786 1.967ZM93.2284 13V0.42H94.4184V13H93.2284ZM96.7732 13V3.718H97.9632V13H96.7732ZM97.3682 1.967C96.8922 1.967 96.5012 1.593 96.5012 1.083C96.5012 0.573 96.8922 0.215999 97.3682 0.215999C97.8442 0.215999 98.2352 0.573 98.2352 1.083C98.2352 1.593 97.8442 1.967 97.3682 1.967ZM101.508 7.815V13H100.318V3.718H101.508V5.367C102.018 4.228 103.089 3.548 104.687 3.548V4.789H104.364C102.817 4.789 101.508 5.486 101.508 7.815ZM106.137 13V0.42H107.327V13H106.137ZM109.682 13V3.718H110.872V13H109.682ZM110.277 1.967C109.801 1.967 109.41 1.593 109.41 1.083C109.41 0.573 109.801 0.215999 110.277 0.215999C110.753 0.215999 111.144 0.573 111.144 1.083C111.144 1.593 110.753 1.967 110.277 1.967ZM113.227 13V0.42H114.417V7.866L118.157 3.718H119.823L115.42 8.342L119.857 13H118.242L114.417 8.835V13H113.227ZM125.38 13V3.718H126.57V13H125.38ZM125.975 1.967C125.499 1.967 125.108 1.593 125.108 1.083C125.108 0.573 125.499 0.215999 125.975 0.215999C126.451 0.215999 126.842 0.573 126.842 1.083C126.842 1.593 126.451 1.967 125.975 1.967ZM128.924 13V0.42H130.114V13H128.924ZM132.469 13V0.42H133.659V7.866L137.399 3.718H139.065L134.662 8.342L139.099 13H137.484L133.659 8.835V13H132.469ZM144.258 4.602C142.575 4.602 141.096 5.69 140.96 7.849H147.488C147.539 5.69 145.975 4.602 144.258 4.602ZM148.559 10.059C148.134 11.81 146.638 13.136 144.309 13.136C141.674 13.136 139.753 11.3 139.753 8.359C139.753 5.401 141.64 3.582 144.309 3.582C147.029 3.582 148.695 5.52 148.695 7.883C148.695 8.257 148.695 8.495 148.661 8.818H140.96C141.062 10.994 142.575 12.133 144.309 12.133C145.89 12.133 146.961 11.3 147.301 10.059H148.559ZM156.958 10.535C156.958 12.031 155.649 13.136 153.728 13.136C151.62 13.136 150.141 12.082 149.988 10.382H151.212C151.314 11.402 152.198 12.133 153.711 12.133C155.037 12.133 155.785 11.419 155.785 10.535C155.785 8.24 150.209 9.583 150.209 6.098C150.209 4.721 151.518 3.582 153.473 3.582C155.462 3.582 156.771 4.636 156.873 6.421H155.683C155.615 5.384 154.85 4.602 153.439 4.602C152.198 4.602 151.416 5.265 151.416 6.081C151.416 8.597 156.907 7.254 156.958 10.535ZM158.858 13V3.718H160.048V13H158.858ZM159.453 1.967C158.977 1.967 158.586 1.593 158.586 1.083C158.586 0.573 158.977 0.215999 159.453 0.215999C159.929 0.215999 160.32 0.573 160.32 1.083C160.32 1.593 159.929 1.967 159.453 1.967ZM169.356 13V7.696C169.356 5.639 168.234 4.585 166.534 4.585C164.8 4.585 163.593 5.673 163.593 7.934V13H162.403V3.718H163.593V5.299C164.188 4.143 165.378 3.548 166.755 3.548C168.863 3.548 170.529 4.84 170.529 7.56V13H169.356ZM172.821 13V3.718H174.011V13H172.821ZM173.416 1.967C172.94 1.967 172.549 1.593 172.549 1.083C172.549 0.573 172.94 0.215999 173.416 0.215999C173.892 0.215999 174.283 0.573 174.283 1.083C174.283 1.593 173.892 1.967 173.416 1.967ZM181.864 5.775C182.442 4.551 183.734 3.582 185.553 3.582C188.103 3.582 189.973 5.435 189.973 8.342C189.973 11.249 188.086 13.136 185.553 13.136C183.7 13.136 182.425 12.167 181.864 10.96V13H180.691V0.42H181.864V5.775ZM188.766 8.342C188.766 5.979 187.27 4.619 185.315 4.619C183.428 4.619 181.864 6.047 181.864 8.359C181.864 10.671 183.428 12.099 185.315 12.099C187.27 12.099 188.766 10.688 188.766 8.342ZM195.783 4.602C194.1 4.602 192.621 5.69 192.485 7.849H199.013C199.064 5.69 197.5 4.602 195.783 4.602ZM200.084 10.059C199.659 11.81 198.163 13.136 195.834 13.136C193.199 13.136 191.278 11.3 191.278 8.359C191.278 5.401 193.165 3.582 195.834 3.582C198.554 3.582 200.22 5.52 200.22 7.883C200.22 8.257 200.22 8.495 200.186 8.818H192.485C192.587 10.994 194.1 12.133 195.834 12.133C197.415 12.133 198.486 11.3 198.826 10.059H200.084ZM209.011 13V7.696C209.011 5.639 207.889 4.585 206.189 4.585C204.455 4.585 203.248 5.673 203.248 7.934V13H202.058V3.718H203.248V5.299C203.843 4.143 205.033 3.548 206.41 3.548C208.518 3.548 210.184 4.84 210.184 7.56V13H209.011ZM212.475 13V3.718H213.665V13H212.475ZM213.07 1.967C212.594 1.967 212.203 1.593 212.203 1.083C212.203 0.573 212.594 0.215999 213.07 0.215999C213.546 0.215999 213.937 0.573 213.937 1.083C213.937 1.593 213.546 1.967 213.07 1.967ZM229.586 13V7.696C229.586 5.639 228.515 4.585 226.866 4.585C225.183 4.585 223.993 5.707 223.993 7.968V13H222.82V7.696C222.82 5.639 221.732 4.585 220.083 4.585C218.383 4.585 217.21 5.707 217.21 7.968V13H216.02V3.718H217.21V5.316C217.805 4.143 218.978 3.548 220.287 3.548C221.834 3.548 223.16 4.279 223.721 5.826C224.231 4.313 225.591 3.548 227.07 3.548C229.127 3.548 230.759 4.84 230.759 7.56V13H229.586ZM239.488 10.535C239.488 12.031 238.179 13.136 236.258 13.136C234.15 13.136 232.671 12.082 232.518 10.382H233.742C233.844 11.402 234.728 12.133 236.241 12.133C237.567 12.133 238.315 11.419 238.315 10.535C238.315 8.24 232.739 9.583 232.739 6.098C232.739 4.721 234.048 3.582 236.003 3.582C237.992 3.582 239.301 4.636 239.403 6.421H238.213C238.145 5.384 237.38 4.602 235.969 4.602C234.728 4.602 233.946 5.265 233.946 6.081C233.946 8.597 239.437 7.254 239.488 10.535ZM245.349 4.602C243.666 4.602 242.187 5.69 242.051 7.849H248.579C248.63 5.69 247.066 4.602 245.349 4.602ZM249.65 10.059C249.225 11.81 247.729 13.136 245.4 13.136C242.765 13.136 240.844 11.3 240.844 8.359C240.844 5.401 242.731 3.582 245.4 3.582C248.12 3.582 249.786 5.52 249.786 7.883C249.786 8.257 249.786 8.495 249.752 8.818H242.051C242.153 10.994 243.666 12.133 245.4 12.133C246.981 12.133 248.052 11.3 248.392 10.059H249.65ZM254.989 11.64L258.049 3.718H259.273L253.765 17.369H252.524L254.326 12.949L250.518 3.718H251.827L254.989 11.64ZM264.508 4.602C262.825 4.602 261.346 5.69 261.21 7.849H267.738C267.789 5.69 266.225 4.602 264.508 4.602ZM268.809 10.059C268.384 11.81 266.888 13.136 264.559 13.136C261.924 13.136 260.003 11.3 260.003 8.359C260.003 5.401 261.89 3.582 264.559 3.582C267.279 3.582 268.945 5.52 268.945 7.883C268.945 8.257 268.945 8.495 268.911 8.818H261.21C261.312 10.994 262.825 12.133 264.559 12.133C266.14 12.133 267.211 11.3 267.551 10.059H268.809ZM271.972 7.815V13H270.782V3.718H271.972V5.367C272.482 4.228 273.553 3.548 275.151 3.548V4.789H274.828C273.281 4.789 271.972 5.486 271.972 7.815ZM280.562 4.602C278.879 4.602 277.4 5.69 277.264 7.849H283.792C283.843 5.69 282.279 4.602 280.562 4.602ZM284.863 10.059C284.438 11.81 282.942 13.136 280.613 13.136C277.978 13.136 276.057 11.3 276.057 8.359C276.057 5.401 277.944 3.582 280.613 3.582C283.333 3.582 284.999 5.52 284.999 7.883C284.999 8.257 284.999 8.495 284.965 8.818H277.264C277.366 10.994 278.879 12.133 280.613 12.133C282.194 12.133 283.265 11.3 283.605 10.059H284.863ZM286.836 13V0.42H288.026V7.866L291.766 3.718H293.432L289.029 8.342L293.466 13H291.851L288.026 8.835V13H286.836ZM293.168 15.482L294.426 11.028H295.752L294.001 15.482H293.168ZM301.044 8.359C301.044 5.418 302.931 3.582 305.549 3.582C307.878 3.582 309.391 4.823 309.816 6.744H308.541C308.235 5.418 307.113 4.602 305.549 4.602C303.73 4.602 302.251 5.843 302.251 8.359C302.251 10.875 303.73 12.133 305.549 12.133C307.113 12.133 308.218 11.334 308.541 9.974H309.816C309.408 11.725 308.048 12.983 305.94 13.119V14.139C307.266 14.105 308.116 14.666 308.116 15.72C308.116 16.74 307.317 17.386 306.127 17.386H304.427V16.587H305.889C306.739 16.587 307.113 16.298 307.113 15.72C307.113 15.193 306.739 14.904 305.889 14.904H305.107V13.119C302.727 12.915 301.044 11.13 301.044 8.359ZM315.635 4.602C313.952 4.602 312.473 5.69 312.337 7.849H318.865C318.916 5.69 317.352 4.602 315.635 4.602ZM319.936 10.059C319.511 11.81 318.015 13.136 315.686 13.136C313.051 13.136 311.13 11.3 311.13 8.359C311.13 5.401 313.017 3.582 315.686 3.582C318.406 3.582 320.072 5.52 320.072 7.883C320.072 8.257 320.072 8.495 320.038 8.818H312.337C312.439 10.994 313.952 12.133 315.686 12.133C317.267 12.133 318.338 11.3 318.678 10.059H319.936ZM320.804 3.718H322.079L325.207 11.844L328.335 3.718H329.593L325.87 13H324.527L320.804 3.718ZM332.056 7.815V13H330.866V3.718H332.056V5.367C332.566 4.228 333.637 3.548 335.235 3.548V4.789H334.912C333.365 4.789 332.056 5.486 332.056 7.815ZM340.646 4.602C338.963 4.602 337.484 5.69 337.348 7.849H343.876C343.927 5.69 342.363 4.602 340.646 4.602ZM344.947 10.059C344.522 11.81 343.026 13.136 340.697 13.136C338.062 13.136 336.141 11.3 336.141 8.359C336.141 5.401 338.028 3.582 340.697 3.582C343.417 3.582 345.083 5.52 345.083 7.883C345.083 8.257 345.083 8.495 345.049 8.818H337.348C337.45 10.994 338.963 12.133 340.697 12.133C342.278 12.133 343.349 11.3 343.689 10.059H344.947ZM350.701 8.342C350.701 5.435 352.588 3.582 355.155 3.582C356.821 3.582 358.215 4.5 358.81 5.724V0.42H360V13H358.81V10.926C358.266 12.15 356.974 13.136 355.138 13.136C352.588 13.136 350.701 11.249 350.701 8.342ZM358.81 8.359C358.81 6.047 357.263 4.619 355.359 4.619C353.404 4.619 351.908 5.979 351.908 8.342C351.908 10.688 353.404 12.099 355.359 12.099C357.263 12.099 358.81 10.671 358.81 8.359ZM371.115 8.359C371.115 11.3 369.058 13.136 366.44 13.136C363.822 13.136 361.833 11.3 361.833 8.359C361.833 5.401 363.873 3.582 366.474 3.582C369.092 3.582 371.115 5.401 371.115 8.359ZM363.04 8.359C363.04 10.909 364.672 12.099 366.44 12.099C368.191 12.099 369.891 10.909 369.891 8.359C369.891 5.809 368.225 4.619 366.457 4.619C364.689 4.619 363.04 5.809 363.04 8.359ZM379.37 10.535C379.37 12.031 378.061 13.136 376.14 13.136C374.032 13.136 372.553 12.082 372.4 10.382H373.624C373.726 11.402 374.61 12.133 376.123 12.133C377.449 12.133 378.197 11.419 378.197 10.535C378.197 8.24 372.621 9.583 372.621 6.098C372.621 4.721 373.93 3.582 375.885 3.582C377.874 3.582 379.183 4.636 379.285 6.421H378.095C378.027 5.384 377.262 4.602 375.851 4.602C374.61 4.602 373.828 5.265 373.828 6.081C373.828 8.597 379.319 7.254 379.37 10.535ZM381.61 10.484V4.721H380.318V3.718H381.61V1.389H382.817V3.718H385.367V4.721H382.817V10.484C382.817 11.623 383.208 11.98 384.279 11.98H385.367V13H384.092C382.477 13 381.61 12.337 381.61 10.484ZM395.031 3.718V13H393.841V11.368C393.28 12.541 392.056 13.153 390.679 13.153C388.571 13.153 386.905 11.861 386.905 9.141V3.718H388.078V9.005C388.078 11.062 389.2 12.116 390.9 12.116C392.634 12.116 393.841 11.028 393.841 8.767V3.718H395.031ZM1.36 41V31.718H2.55V41H1.36ZM1.955 29.967C1.479 29.967 1.088 29.593 1.088 29.083C1.088 28.573 1.479 28.216 1.955 28.216C2.431 28.216 2.822 28.573 2.822 29.083C2.822 29.593 2.431 29.967 1.955 29.967ZM11.8578 41V35.696C11.8578 33.639 10.7358 32.585 9.03577 32.585C7.30177 32.585 6.09477 33.673 6.09477 35.934V41H4.90477V31.718H6.09477V33.299C6.68977 32.143 7.87977 31.548 9.25677 31.548C11.3648 31.548 13.0308 32.84 13.0308 35.56V41H11.8578ZM21.7486 38.535C21.7486 39.963 20.5586 41.034 18.7906 41.136V42.139C20.1166 42.105 20.9666 42.666 20.9666 43.72C20.9666 44.74 20.1676 45.386 18.9776 45.386H17.2776V44.587H18.7396C19.5896 44.587 19.9636 44.298 19.9636 43.72C19.9636 43.193 19.5896 42.904 18.7396 42.904H17.9576V41.102C16.1556 40.932 14.9146 39.929 14.7786 38.382H16.0026C16.1046 39.402 16.9886 40.133 18.5016 40.133C19.8276 40.133 20.5756 39.419 20.5756 38.535C20.5756 36.24 14.9996 37.583 14.9996 34.098C14.9996 32.721 16.3086 31.582 18.2636 31.582C20.2526 31.582 21.5616 32.636 21.6636 34.421H20.4736C20.4056 33.384 19.6406 32.602 18.2296 32.602C16.9886 32.602 16.2066 33.265 16.2066 34.081C16.2066 36.597 21.6976 35.254 21.7486 38.535ZM23.1046 36.342C23.1046 33.435 24.9916 31.582 27.5416 31.582C29.4116 31.582 30.6866 32.585 31.2136 33.758V31.718H32.4036V41H31.2136V38.943C30.6696 40.133 29.3776 41.136 27.5246 41.136C24.9916 41.136 23.1046 39.249 23.1046 36.342ZM31.2136 36.359C31.2136 34.047 29.6666 32.619 27.7626 32.619C25.8076 32.619 24.3116 33.979 24.3116 36.342C24.3116 38.688 25.8076 40.099 27.7626 40.099C29.6666 40.099 31.2136 38.671 31.2136 36.359ZM34.2363 36.342C34.2363 33.435 36.1233 31.582 38.6733 31.582C40.5433 31.582 41.8183 32.585 42.3453 33.758V31.718H43.5353V41H42.3453V38.943C41.8013 40.133 40.5093 41.136 38.6563 41.136C36.1233 41.136 34.2363 39.249 34.2363 36.342ZM42.3453 36.359C42.3453 34.047 40.7983 32.619 38.8943 32.619C36.9393 32.619 35.4433 33.979 35.4433 36.342C35.4433 38.688 36.9393 40.099 38.8943 40.099C40.7983 40.099 42.3453 38.671 42.3453 36.359ZM46.252 38.484V32.721H44.96V31.718H46.252V29.389H47.459V31.718H50.009V32.721H47.459V38.484C47.459 39.623 47.85 39.98 48.921 39.98H50.009V41H48.734C47.119 41 46.252 40.337 46.252 38.484ZM55.4126 36.342C55.4126 33.435 57.2996 31.582 59.8496 31.582C61.7196 31.582 62.9946 32.585 63.5216 33.758V31.718H64.7116V41H63.5216V38.943C62.9776 40.133 61.6856 41.136 59.8326 41.136C57.2996 41.136 55.4126 39.249 55.4126 36.342ZM63.5216 36.359C63.5216 34.047 61.9746 32.619 60.0706 32.619C58.1156 32.619 56.6196 33.979 56.6196 36.342C56.6196 38.688 58.1156 40.099 60.0706 40.099C61.9746 40.099 63.5216 38.671 63.5216 36.359ZM66.5442 36.342C66.5442 33.435 68.4312 31.582 70.9982 31.582C72.6642 31.582 74.0582 32.5 74.6532 33.724V28.42H75.8432V41H74.6532V38.926C74.1092 40.15 72.8172 41.136 70.9812 41.136C68.4312 41.136 66.5442 39.249 66.5442 36.342ZM74.6532 36.359C74.6532 34.047 73.1062 32.619 71.2022 32.619C69.2472 32.619 67.7512 33.979 67.7512 36.342C67.7512 38.688 69.2472 40.099 71.2022 40.099C73.1062 40.099 74.6532 38.671 74.6532 36.359ZM78.2199 41V31.718H79.4099V41H78.2199ZM95.3307 41V35.696C95.3307 33.639 94.2597 32.585 92.6107 32.585C90.9277 32.585 89.7377 33.707 89.7377 35.968V41H88.5647V35.696C88.5647 33.639 87.4767 32.585 85.8277 32.585C84.1277 32.585 82.9547 33.707 82.9547 35.968V41H81.7647V31.718H82.9547V33.316C83.5497 32.143 84.7227 31.548 86.0317 31.548C87.5787 31.548 88.9047 32.279 89.4657 33.826C89.9757 32.313 91.3357 31.548 92.8147 31.548C94.8717 31.548 96.5037 32.84 96.5037 35.56V41H95.3307ZM98.8065 41V28.42H99.9965V41H98.8065ZM101.807 36.342C101.807 33.435 103.694 31.582 106.244 31.582C108.114 31.582 109.389 32.585 109.916 33.758V31.718H111.106V41H109.916V38.943C109.372 40.133 108.08 41.136 106.227 41.136C103.694 41.136 101.807 39.249 101.807 36.342ZM109.916 36.359C109.916 34.047 108.369 32.619 106.465 32.619C104.51 32.619 103.014 33.979 103.014 36.342C103.014 38.688 104.51 40.099 106.465 40.099C108.369 40.099 109.916 38.671 109.916 36.359ZM114.673 35.815V41H113.483V31.718H114.673V33.367C115.183 32.228 116.254 31.548 117.852 31.548V32.789H117.529C115.982 32.789 114.673 33.486 114.673 35.815ZM119.302 41V31.718H120.492V41H119.302ZM126.213 39.64L129.273 31.718H130.497L124.989 45.369H123.748L125.55 40.949L121.742 31.718H123.051L126.213 39.64ZM131.771 41V28.42H132.961V41H131.771ZM134.771 36.342C134.771 33.435 136.658 31.582 139.208 31.582C141.078 31.582 142.353 32.585 142.88 33.758V31.718H144.07V41H142.88V38.943C142.336 40.133 141.044 41.136 139.191 41.136C136.658 41.136 134.771 39.249 134.771 36.342ZM142.88 36.359C142.88 34.047 141.333 32.619 139.429 32.619C137.474 32.619 135.978 33.979 135.978 36.342C135.978 38.688 137.474 40.099 139.429 40.099C141.333 40.099 142.88 38.671 142.88 36.359ZM150.228 36.342C150.228 33.435 152.115 31.582 154.665 31.582C156.501 31.582 157.81 32.568 158.337 33.741V31.718H159.527V41.238C159.527 43.839 157.742 45.556 155.192 45.556C152.795 45.556 151.129 44.332 150.755 42.394H151.928C152.319 43.652 153.492 44.519 155.192 44.519C156.96 44.519 158.337 43.346 158.337 41.238V38.943C157.793 40.133 156.501 41.136 154.665 41.136C152.115 41.136 150.228 39.249 150.228 36.342ZM158.337 36.359C158.337 34.047 156.79 32.619 154.886 32.619C152.931 32.619 151.435 33.979 151.435 36.342C151.435 38.688 152.931 40.099 154.886 40.099C156.79 40.099 158.337 38.671 158.337 36.359ZM165.865 32.602C164.182 32.602 162.703 33.69 162.567 35.849H169.095C169.146 33.69 167.582 32.602 165.865 32.602ZM170.166 38.059C169.741 39.81 168.245 41.136 165.916 41.136C163.281 41.136 161.36 39.3 161.36 36.359C161.36 33.401 163.247 31.582 165.916 31.582C168.636 31.582 170.302 33.52 170.302 35.883C170.302 36.257 170.302 36.495 170.268 36.818H162.567C162.669 38.994 164.182 40.133 165.916 40.133C167.497 40.133 168.568 39.3 168.908 38.059H170.166ZM172.139 41V28.42H173.329V41H172.139ZM179.645 32.602C177.962 32.602 176.483 33.69 176.347 35.849H182.875C182.926 33.69 181.362 32.602 179.645 32.602ZM183.946 38.059C183.521 39.81 182.025 41.136 179.696 41.136C177.061 41.136 175.14 39.3 175.14 36.359C175.14 33.401 177.027 31.582 179.696 31.582C182.416 31.582 184.082 33.52 184.082 35.883C184.082 36.257 184.082 36.495 184.048 36.818H176.347C176.449 38.994 177.962 40.133 179.696 40.133C181.277 40.133 182.348 39.3 182.688 38.059H183.946ZM185.375 36.359C185.375 33.418 187.262 31.582 189.88 31.582C192.209 31.582 193.722 32.823 194.147 34.744H192.872C192.566 33.418 191.444 32.602 189.88 32.602C188.061 32.602 186.582 33.843 186.582 36.359C186.582 38.875 188.061 40.133 189.88 40.133C191.444 40.133 192.549 39.334 192.872 37.974H194.147C193.722 39.827 192.209 41.136 189.88 41.136C187.262 41.136 185.375 39.3 185.375 36.359ZM199.966 32.602C198.283 32.602 196.804 33.69 196.668 35.849H203.196C203.247 33.69 201.683 32.602 199.966 32.602ZM204.267 38.059C203.842 39.81 202.346 41.136 200.017 41.136C197.382 41.136 195.461 39.3 195.461 36.359C195.461 33.401 197.348 31.582 200.017 31.582C202.737 31.582 204.403 33.52 204.403 35.883C204.403 36.257 204.403 36.495 204.369 36.818H196.668C196.77 38.994 198.283 40.133 200.017 40.133C201.598 40.133 202.669 39.3 203.009 38.059H204.267ZM205.696 36.342C205.696 33.435 207.583 31.582 210.133 31.582C211.969 31.582 213.278 32.568 213.805 33.741V31.718H214.995V41.238C214.995 43.839 213.21 45.556 210.66 45.556C208.263 45.556 206.597 44.332 206.223 42.394H207.396C207.787 43.652 208.96 44.519 210.66 44.519C212.428 44.519 213.805 43.346 213.805 41.238V38.943C213.261 40.133 211.969 41.136 210.133 41.136C207.583 41.136 205.696 39.249 205.696 36.342ZM213.805 36.359C213.805 34.047 212.258 32.619 210.354 32.619C208.399 32.619 206.903 33.979 206.903 36.342C206.903 38.688 208.399 40.099 210.354 40.099C212.258 40.099 213.805 38.671 213.805 36.359ZM212.955 28.607C212.955 29.746 212.173 30.698 210.643 30.698C209.113 30.698 208.348 29.746 208.348 28.607V28.386H209.096C209.096 29.253 209.555 29.746 210.643 29.746C211.731 29.746 212.19 29.253 212.19 28.386H212.955V28.607ZM217.372 41V31.718H218.562V41H217.372ZM217.967 29.967C217.491 29.967 217.1 29.593 217.1 29.083C217.1 28.573 217.491 28.216 217.967 28.216C218.443 28.216 218.834 28.573 218.834 29.083C218.834 29.593 218.443 29.967 217.967 29.967ZM225.241 41V31.718H226.431V41H225.241ZM225.836 29.967C225.36 29.967 224.969 29.593 224.969 29.083C224.969 28.573 225.36 28.216 225.836 28.216C226.312 28.216 226.703 28.573 226.703 29.083C226.703 29.593 226.312 29.967 225.836 29.967ZM235.739 41V35.696C235.739 33.639 234.617 32.585 232.917 32.585C231.183 32.585 229.976 33.673 229.976 35.934V41H228.786V31.718H229.976V33.299C230.571 32.143 231.761 31.548 233.138 31.548C235.246 31.548 236.912 32.84 236.912 35.56V41H235.739ZM245.63 38.535C245.63 39.963 244.44 41.034 242.672 41.136V42.139C243.998 42.105 244.848 42.666 244.848 43.72C244.848 44.74 244.049 45.386 242.859 45.386H241.159V44.587H242.621C243.471 44.587 243.845 44.298 243.845 43.72C243.845 43.193 243.471 42.904 242.621 42.904H241.839V41.102C240.037 40.932 238.796 39.929 238.66 38.382H239.884C239.986 39.402 240.87 40.133 242.383 40.133C243.709 40.133 244.457 39.419 244.457 38.535C244.457 36.24 238.881 37.583 238.881 34.098C238.881 32.721 240.19 31.582 242.145 31.582C244.134 31.582 245.443 32.636 245.545 34.421H244.355C244.287 33.384 243.522 32.602 242.111 32.602C240.87 32.602 240.088 33.265 240.088 34.081C240.088 36.597 245.579 35.254 245.63 38.535ZM246.986 36.342C246.986 33.435 248.873 31.582 251.423 31.582C253.293 31.582 254.568 32.585 255.095 33.758V31.718H256.285V41H255.095V38.943C254.551 40.133 253.259 41.136 251.406 41.136C248.873 41.136 246.986 39.249 246.986 36.342ZM255.095 36.359C255.095 34.047 253.548 32.619 251.644 32.619C249.689 32.619 248.193 33.979 248.193 36.342C248.193 38.688 249.689 40.099 251.644 40.099C253.548 40.099 255.095 38.671 255.095 36.359ZM266.948 32.602C265.265 32.602 263.786 33.69 263.65 35.849H270.178C270.229 33.69 268.665 32.602 266.948 32.602ZM271.249 38.059C270.824 39.81 269.328 41.136 266.999 41.136C264.364 41.136 262.443 39.3 262.443 36.359C262.443 33.401 264.33 31.582 266.999 31.582C269.719 31.582 271.385 33.52 271.385 35.883C271.385 36.257 271.385 36.495 271.351 36.818H263.65C263.752 38.994 265.265 40.133 266.999 40.133C268.58 40.133 269.651 39.3 269.991 38.059H271.249ZM272.678 36.342C272.678 33.435 274.565 31.582 277.132 31.582C278.798 31.582 280.192 32.5 280.787 33.724V28.42H281.977V41H280.787V38.926C280.243 40.15 278.951 41.136 277.115 41.136C274.565 41.136 272.678 39.249 272.678 36.342ZM280.787 36.359C280.787 34.047 279.24 32.619 277.336 32.619C275.381 32.619 273.885 33.979 273.885 36.342C273.885 38.688 275.381 40.099 277.336 40.099C279.24 40.099 280.787 38.671 280.787 36.359ZM284.354 41V31.718H285.544V41H284.354ZM284.949 29.967C284.473 29.967 284.082 29.593 284.082 29.083C284.082 28.573 284.473 28.216 284.949 28.216C285.425 28.216 285.816 28.573 285.816 29.083C285.816 29.593 285.425 29.967 284.949 29.967ZM291.264 39.64L294.324 31.718H295.548L290.04 45.369H288.799L290.601 40.949L286.793 31.718H288.102L291.264 39.64ZM305.56 36.359C305.56 39.3 303.503 41.136 300.885 41.136C298.267 41.136 296.278 39.3 296.278 36.359C296.278 33.401 298.318 31.582 300.919 31.582C303.537 31.582 305.56 33.401 305.56 36.359ZM297.485 36.359C297.485 38.909 299.117 40.099 300.885 40.099C302.636 40.099 304.336 38.909 304.336 36.359C304.336 33.809 302.67 32.619 300.902 32.619C299.134 32.619 297.485 33.809 297.485 36.359ZM308.579 35.815V41H307.389V31.718H308.579V33.367C309.089 32.228 310.16 31.548 311.758 31.548V32.789H311.435C309.888 32.789 308.579 33.486 308.579 35.815ZM321.249 31.718V41H320.059V39.368C319.498 40.541 318.274 41.153 316.897 41.153C314.789 41.153 313.123 39.861 313.123 37.141V31.718H314.296V37.005C314.296 39.062 315.418 40.116 317.118 40.116C318.852 40.116 320.059 39.028 320.059 36.767V31.718H321.249ZM329.032 31.718V32.704L324.255 40.014H329.117V41H322.895V40.014L327.672 32.704H322.98V31.718H329.032ZM331.844 40.201C331.844 40.694 331.47 41.085 330.994 41.085C330.501 41.085 330.127 40.694 330.127 40.201C330.127 39.708 330.501 39.334 330.994 39.334C331.47 39.334 331.844 39.708 331.844 40.201Z" fill="#333333"/>
</svg>
