<svg width="523" height="91" viewBox="0 0 523 91" fill="none" xmlns="http://www.w3.org/2000/svg">
<path d="M2.068 6.854L2.332 5.446H6.072L3.3 21H1.76L4.246 6.854H2.068ZM9.10783 16.798C9.09316 17.7513 9.32783 18.4847 9.81183 18.998C10.2958 19.5113 11.0365 19.768 12.0338 19.768C13.4125 19.768 14.5272 19.2327 15.3778 18.162C16.2432 17.0767 16.8665 15.2873 17.2478 12.794C16.8225 13.6007 16.1772 14.2387 15.3118 14.708C14.4465 15.1627 13.5078 15.39 12.4958 15.39C11.1612 15.39 10.1125 15.0453 9.34983 14.356C8.58716 13.652 8.20583 12.6547 8.20583 11.364C8.20583 11.0413 8.24249 10.638 8.31583 10.154C8.49183 9.17133 8.83649 8.284 9.34983 7.492C9.87783 6.7 10.5672 6.07667 11.4178 5.622C12.2832 5.16733 13.2805 4.94 14.4098 4.94C16.0232 4.94 17.1745 5.35067 17.8638 6.172C18.5678 6.99333 18.9198 8.18133 18.9198 9.736C18.9198 10.6307 18.8172 11.6573 18.6118 12.816C18.1278 15.5733 17.3578 17.6413 16.3018 19.02C15.2458 20.384 13.7205 21.066 11.7258 21.066C10.2738 21.066 9.21049 20.6773 8.53583 19.9C7.87583 19.108 7.58983 18.074 7.67783 16.798H9.10783ZM12.9578 14.07C13.6472 14.07 14.3072 13.9307 14.9378 13.652C15.5832 13.3587 16.1258 12.9333 16.5658 12.376C17.0205 11.8187 17.3138 11.1513 17.4458 10.374C17.5045 10.0807 17.5338 9.75067 17.5338 9.384C17.5338 8.43067 17.2552 7.668 16.6978 7.096C16.1552 6.524 15.3265 6.238 14.2118 6.238C13.0825 6.238 12.1145 6.59 11.3078 7.294C10.5158 7.998 10.0172 8.93667 9.81183 10.11C9.75316 10.418 9.72383 10.7407 9.72383 11.078C9.72383 12.0167 9.99516 12.75 10.5378 13.278C11.0952 13.806 11.9018 14.07 12.9578 14.07ZM22.4178 16.798C22.4032 17.7513 22.6378 18.4847 23.1218 18.998C23.6058 19.5113 24.3465 19.768 25.3438 19.768C26.7225 19.768 27.8372 19.2327 28.6878 18.162C29.5532 17.0767 30.1765 15.2873 30.5578 12.794C30.1325 13.6007 29.4872 14.2387 28.6218 14.708C27.7565 15.1627 26.8178 15.39 25.8058 15.39C24.4712 15.39 23.4225 15.0453 22.6598 14.356C21.8972 13.652 21.5158 12.6547 21.5158 11.364C21.5158 11.0413 21.5525 10.638 21.6258 10.154C21.8018 9.17133 22.1465 8.284 22.6598 7.492C23.1878 6.7 23.8772 6.07667 24.7278 5.622C25.5932 5.16733 26.5905 4.94 27.7198 4.94C29.3332 4.94 30.4845 5.35067 31.1738 6.172C31.8778 6.99333 32.2298 8.18133 32.2298 9.736C32.2298 10.6307 32.1272 11.6573 31.9218 12.816C31.4378 15.5733 30.6678 17.6413 29.6118 19.02C28.5558 20.384 27.0305 21.066 25.0358 21.066C23.5838 21.066 22.5205 20.6773 21.8458 19.9C21.1858 19.108 20.8998 18.074 20.9878 16.798H22.4178ZM26.2678 14.07C26.9572 14.07 27.6172 13.9307 28.2478 13.652C28.8932 13.3587 29.4358 12.9333 29.8758 12.376C30.3305 11.8187 30.6238 11.1513 30.7558 10.374C30.8145 10.0807 30.8438 9.75067 30.8438 9.384C30.8438 8.43067 30.5652 7.668 30.0078 7.096C29.4652 6.524 28.6365 6.238 27.5218 6.238C26.3925 6.238 25.4245 6.59 24.6178 7.294C23.8258 7.998 23.3272 8.93667 23.1218 10.11C23.0632 10.418 23.0338 10.7407 23.0338 11.078C23.0338 12.0167 23.3052 12.75 23.8478 13.278C24.4052 13.806 25.2118 14.07 26.2678 14.07ZM44.0878 9.076C44.1025 8.152 43.8752 7.448 43.4058 6.964C42.9512 6.46533 42.2398 6.216 41.2718 6.216C39.8345 6.216 38.6612 6.78067 37.7518 7.91C36.8425 9.02467 36.1898 10.8433 35.7938 13.366C36.2338 12.486 36.9158 11.7967 37.8398 11.298C38.7638 10.7847 39.7685 10.528 40.8538 10.528C42.1738 10.528 43.2005 10.88 43.9338 11.584C44.6672 12.288 45.0338 13.2707 45.0338 14.532C45.0338 14.9427 44.9898 15.3827 44.9018 15.852C44.7405 16.82 44.4032 17.7 43.8898 18.492C43.3765 19.2693 42.6872 19.8927 41.8218 20.362C40.9712 20.8313 39.9812 21.066 38.8518 21.066C37.1652 21.066 35.9625 20.648 35.2438 19.812C34.5398 18.9613 34.1878 17.7587 34.1878 16.204C34.1878 15.2653 34.2905 14.2167 34.4958 13.058C35.4492 7.63133 37.7885 4.918 41.5138 4.918C42.9218 4.918 43.9558 5.30667 44.6158 6.084C45.2905 6.84667 45.5985 7.844 45.5398 9.076H44.0878ZM40.3258 11.848C39.6365 11.848 38.9545 11.9873 38.2798 12.266C37.6198 12.5447 37.0405 12.97 36.5418 13.542C36.0578 14.0993 35.7498 14.7887 35.6178 15.61C35.5592 15.9033 35.5298 16.2187 35.5298 16.556C35.5298 17.5093 35.8158 18.2867 36.3878 18.888C36.9745 19.4747 37.8472 19.768 39.0058 19.768C40.1352 19.768 41.0958 19.4233 41.8878 18.734C42.6945 18.0447 43.2005 17.106 43.4058 15.918C43.4792 15.5073 43.5158 15.148 43.5158 14.84C43.5158 13.8867 43.2372 13.1533 42.6798 12.64C42.1372 12.112 41.3525 11.848 40.3258 11.848ZM55.106 8.988L57.372 19.174L63.114 8.988H64.72L54.49 26.654H52.862L56.206 20.912L53.39 8.988H55.106ZM67.9083 8.988L65.7963 21H64.2563L66.3683 8.988H67.9083ZM73.2657 4.72L70.3837 21H68.8437L71.7257 4.72H73.2657ZM77.083 8.988L74.971 21H73.431L75.543 8.988H77.083ZM85.8284 8.768C87.0604 8.768 88.043 9.10533 88.7764 9.78C89.5244 10.44 89.8984 11.408 89.8984 12.684C89.8984 13.1533 89.8617 13.5787 89.7884 13.96L88.5344 21H87.0164L88.2264 14.136C88.285 13.7987 88.3144 13.4393 88.3144 13.058C88.3144 12.09 88.0504 11.3567 87.5224 10.858C86.9944 10.3593 86.2537 10.11 85.3004 10.11C84.1417 10.11 83.1517 10.4767 82.3304 11.21C81.509 11.9433 80.9737 13.0213 80.7244 14.444V14.378L79.5584 21H78.0184L80.1304 8.988H81.6704L81.2964 11.056C81.8097 10.3227 82.4624 9.758 83.2544 9.362C84.0464 8.966 84.9044 8.768 85.8284 8.768ZM91.8522 14.972C92.0722 13.74 92.5122 12.662 93.1722 11.738C93.8322 10.7993 94.6462 10.0807 95.6142 9.582C96.5822 9.06867 97.6162 8.812 98.7162 8.812C99.7722 8.812 100.674 9.06867 101.422 9.582C102.185 10.0953 102.698 10.7627 102.962 11.584L104.172 4.72H105.712L102.83 21H101.29L101.774 18.316C101.246 19.152 100.52 19.8413 99.5962 20.384C98.6722 20.912 97.6456 21.176 96.5162 21.176C95.0642 21.176 93.8982 20.7433 93.0182 19.878C92.1529 18.998 91.7202 17.8173 91.7202 16.336C91.7202 15.9107 91.7642 15.456 91.8522 14.972ZM102.346 14.994C102.42 14.5833 102.456 14.2167 102.456 13.894C102.456 12.75 102.112 11.8407 101.422 11.166C100.733 10.4913 99.8382 10.154 98.7382 10.154C97.8876 10.154 97.0882 10.3447 96.3402 10.726C95.6069 11.1073 94.9836 11.6647 94.4702 12.398C93.9569 13.1167 93.6122 13.9747 93.4362 14.972C93.3629 15.412 93.3262 15.786 93.3262 16.094C93.3262 17.2527 93.6636 18.1693 94.3382 18.844C95.0276 19.504 95.9222 19.834 97.0222 19.834C97.8436 19.834 98.6282 19.636 99.3762 19.24C100.139 18.844 100.777 18.2793 101.29 17.546C101.818 16.8127 102.17 15.962 102.346 14.994ZM106.258 14.972C106.478 13.74 106.918 12.662 107.578 11.738C108.238 10.7993 109.045 10.0807 109.998 9.582C110.966 9.06867 112 8.812 113.1 8.812C114.244 8.812 115.183 9.076 115.916 9.604C116.649 10.132 117.126 10.8067 117.346 11.628L117.808 8.988H119.348L117.236 21H115.696L116.158 18.338C115.659 19.1593 114.941 19.8413 114.002 20.384C113.078 20.912 112.044 21.176 110.9 21.176C109.947 21.176 109.111 20.978 108.392 20.582C107.673 20.186 107.116 19.6287 106.72 18.91C106.324 18.1767 106.126 17.3187 106.126 16.336C106.126 15.9107 106.17 15.456 106.258 14.972ZM116.752 14.994C116.825 14.5833 116.862 14.2167 116.862 13.894C116.862 12.75 116.517 11.8407 115.828 11.166C115.139 10.4913 114.244 10.154 113.144 10.154C112.293 10.154 111.494 10.3447 110.746 10.726C110.013 11.1073 109.389 11.6647 108.876 12.398C108.363 13.1167 108.018 13.9747 107.842 14.972C107.769 15.412 107.732 15.786 107.732 16.094C107.732 17.2527 108.069 18.1693 108.744 18.844C109.433 19.504 110.328 19.834 111.428 19.834C112.249 19.834 113.034 19.636 113.782 19.24C114.545 18.844 115.183 18.2793 115.696 17.546C116.224 16.8127 116.576 15.962 116.752 14.994ZM130.606 5.622L127.9 21H126.36L129.066 5.622H130.606ZM130.078 4.346C129.799 4.346 129.572 4.25067 129.396 4.06C129.235 3.85467 129.176 3.61267 129.22 3.334C129.279 3.05533 129.425 2.82067 129.66 2.63C129.895 2.42467 130.151 2.322 130.43 2.322C130.665 2.322 130.863 2.40267 131.024 2.564C131.185 2.71067 131.266 2.90133 131.266 3.136C131.266 3.224 131.259 3.29 131.244 3.334C131.2 3.61267 131.061 3.85467 130.826 4.06C130.606 4.25067 130.357 4.346 130.078 4.346ZM134.951 21.176C133.734 21.176 132.744 20.8973 131.981 20.34C131.219 19.768 130.837 18.9907 130.837 18.008C130.837 17.832 130.845 17.7 130.859 17.612H132.355C132.297 18.316 132.502 18.8807 132.971 19.306C133.441 19.7313 134.13 19.944 135.039 19.944C135.963 19.944 136.704 19.7533 137.261 19.372C137.819 18.976 138.097 18.4553 138.097 17.81C138.097 17.4287 137.98 17.106 137.745 16.842C137.511 16.578 137.217 16.3653 136.865 16.204C136.528 16.028 136.051 15.83 135.435 15.61C134.673 15.3313 134.057 15.0747 133.587 14.84C133.133 14.5907 132.737 14.2533 132.399 13.828C132.077 13.388 131.915 12.838 131.915 12.178C131.915 11.518 132.106 10.9313 132.487 10.418C132.869 9.90467 133.389 9.50867 134.049 9.23C134.724 8.95133 135.487 8.812 136.337 8.812C137.525 8.812 138.493 9.10533 139.241 9.692C140.004 10.2787 140.385 11.056 140.385 12.024C140.385 12.2293 140.378 12.3833 140.363 12.486H138.911C138.926 12.4273 138.933 12.332 138.933 12.2C138.933 11.5547 138.677 11.034 138.163 10.638C137.665 10.242 137.019 10.044 136.227 10.044C135.435 10.044 134.775 10.2347 134.247 10.616C133.734 10.9827 133.477 11.4813 133.477 12.112C133.477 12.5373 133.602 12.8967 133.851 13.19C134.101 13.4687 134.409 13.696 134.775 13.872C135.142 14.048 135.633 14.2533 136.249 14.488C136.983 14.7667 137.569 15.0233 138.009 15.258C138.464 15.4927 138.845 15.8153 139.153 16.226C139.461 16.6367 139.615 17.15 139.615 17.766C139.615 18.8073 139.183 19.636 138.317 20.252C137.452 20.868 136.33 21.176 134.951 21.176ZM144.274 17.744C144.23 18.008 144.208 18.2353 144.208 18.426C144.208 18.8953 144.333 19.2253 144.582 19.416C144.846 19.592 145.271 19.68 145.858 19.68H147.266L147.024 21H145.374C144.465 21 143.783 20.824 143.328 20.472C142.873 20.12 142.646 19.5407 142.646 18.734C142.646 18.4113 142.675 18.0813 142.734 17.744L144.054 10.286H142.382L142.624 8.988H144.296L144.824 5.974H146.364L145.836 8.988H149.158L148.916 10.286H145.594L144.274 17.744ZM149.476 14.972C149.696 13.74 150.136 12.662 150.796 11.738C151.456 10.7993 152.263 10.0807 153.216 9.582C154.184 9.06867 155.218 8.812 156.318 8.812C157.462 8.812 158.401 9.076 159.134 9.604C159.867 10.132 160.344 10.8067 160.564 11.628L161.026 8.988H162.566L160.454 21H158.914L159.376 18.338C158.877 19.1593 158.159 19.8413 157.22 20.384C156.296 20.912 155.262 21.176 154.118 21.176C153.165 21.176 152.329 20.978 151.61 20.582C150.891 20.186 150.334 19.6287 149.938 18.91C149.542 18.1767 149.344 17.3187 149.344 16.336C149.344 15.9107 149.388 15.456 149.476 14.972ZM159.97 14.994C160.043 14.5833 160.08 14.2167 160.08 13.894C160.08 12.75 159.735 11.8407 159.046 11.166C158.357 10.4913 157.462 10.154 156.362 10.154C155.511 10.154 154.712 10.3447 153.964 10.726C153.231 11.1073 152.607 11.6647 152.094 12.398C151.581 13.1167 151.236 13.9747 151.06 14.972C150.987 15.412 150.95 15.786 150.95 16.094C150.95 17.2527 151.287 18.1693 151.962 18.844C152.651 19.504 153.546 19.834 154.646 19.834C155.467 19.834 156.252 19.636 157 19.24C157.763 18.844 158.401 18.2793 158.914 17.546C159.442 16.8127 159.794 15.962 159.97 14.994ZM171.34 8.768C172.572 8.768 173.554 9.10533 174.288 9.78C175.036 10.44 175.41 11.408 175.41 12.684C175.41 13.1533 175.373 13.5787 175.3 13.96L174.046 21H172.528L173.738 14.136C173.796 13.7987 173.826 13.4393 173.826 13.058C173.826 12.09 173.562 11.3567 173.034 10.858C172.506 10.3593 171.765 10.11 170.812 10.11C169.653 10.11 168.663 10.4767 167.842 11.21C167.02 11.9433 166.485 13.0213 166.236 14.444V14.378L165.07 21H163.53L165.642 8.988H167.182L166.808 11.056C167.321 10.3227 167.974 9.758 168.766 9.362C169.558 8.966 170.416 8.768 171.34 8.768ZM180.201 11.65C180.729 10.814 181.455 10.132 182.379 9.604C183.303 9.076 184.323 8.812 185.437 8.812C186.889 8.812 188.048 9.24467 188.913 10.11C189.793 10.9607 190.233 12.1193 190.233 13.586C190.233 14.026 190.189 14.488 190.101 14.972C189.881 16.204 189.441 17.2893 188.781 18.228C188.121 19.1667 187.307 19.8927 186.339 20.406C185.386 20.9193 184.359 21.176 183.259 21.176C182.13 21.176 181.199 20.9193 180.465 20.406C179.732 19.878 179.241 19.196 178.991 18.36L178.529 21H177.011L179.893 4.72H181.411L180.201 11.65ZM188.539 14.972C188.613 14.532 188.649 14.158 188.649 13.85C188.649 12.6913 188.305 11.7893 187.615 11.144C186.941 10.484 186.046 10.154 184.931 10.154C184.11 10.154 183.325 10.352 182.577 10.748C181.829 11.144 181.191 11.7087 180.663 12.442C180.135 13.1753 179.783 14.026 179.607 14.994C179.534 15.4047 179.497 15.7713 179.497 16.094C179.497 17.238 179.842 18.1473 180.531 18.822C181.221 19.4967 182.115 19.834 183.215 19.834C184.066 19.834 184.858 19.6433 185.591 19.262C186.339 18.866 186.97 18.3013 187.483 17.568C188.011 16.82 188.363 15.9547 188.539 14.972ZM203.935 8.988L201.823 21H200.283L200.657 18.888C200.159 19.636 199.513 20.208 198.721 20.604C197.929 21 197.079 21.198 196.169 21.198C194.937 21.198 193.947 20.868 193.199 20.208C192.451 19.5333 192.077 18.558 192.077 17.282C192.077 16.8127 192.114 16.3873 192.187 16.006L193.419 8.988H194.937L193.727 15.83C193.669 16.1673 193.639 16.5193 193.639 16.886C193.639 17.854 193.903 18.5947 194.431 19.108C194.974 19.6067 195.722 19.856 196.675 19.856C197.79 19.856 198.751 19.5187 199.557 18.844C200.364 18.1547 200.907 17.15 201.185 15.83L202.395 8.988H203.935ZM209.321 4.72L206.439 21H204.899L207.781 4.72H209.321ZM219.98 0.319999L209.618 24.652H208.1L218.418 0.319999H219.98ZM230.483 5.622L230.263 6.854H225.973L223.487 21H221.947L224.433 6.854H220.165L220.385 5.622H230.483ZM242.265 8.988L240.153 21H238.613L238.987 18.888C238.488 19.636 237.843 20.208 237.051 20.604C236.259 21 235.408 21.198 234.499 21.198C233.267 21.198 232.277 20.868 231.529 20.208C230.781 19.5333 230.407 18.558 230.407 17.282C230.407 16.8127 230.444 16.3873 230.517 16.006L231.749 8.988H233.267L232.057 15.83C231.998 16.1673 231.969 16.5193 231.969 16.886C231.969 17.854 232.233 18.5947 232.761 19.108C233.304 19.6067 234.052 19.856 235.005 19.856C236.12 19.856 237.08 19.5187 237.887 18.844C238.694 18.1547 239.236 17.15 239.515 15.83L240.725 8.988H242.265ZM235.709 7.294C235.46 7.294 235.254 7.21333 235.093 7.052C234.946 6.89067 234.873 6.69267 234.873 6.458C234.873 6.13533 234.99 5.85667 235.225 5.622C235.46 5.38733 235.738 5.27 236.061 5.27C236.31 5.27 236.508 5.35067 236.655 5.512C236.816 5.65867 236.897 5.85667 236.897 6.106C236.897 6.42867 236.772 6.70733 236.523 6.942C236.288 7.17667 236.017 7.294 235.709 7.294ZM239.097 7.294C238.848 7.294 238.642 7.21333 238.481 7.052C238.334 6.89067 238.261 6.69267 238.261 6.458C238.261 6.13533 238.378 5.85667 238.613 5.622C238.862 5.38733 239.148 5.27 239.471 5.27C239.706 5.27 239.896 5.35067 240.043 5.512C240.204 5.65867 240.285 5.84933 240.285 6.084C240.285 6.40667 240.16 6.69267 239.911 6.942C239.676 7.17667 239.405 7.294 239.097 7.294ZM246.463 11.386C246.947 10.55 247.578 9.90467 248.355 9.45C249.132 8.99533 250.034 8.768 251.061 8.768L250.775 10.374H250.335C249.279 10.374 248.37 10.6453 247.607 11.188C246.844 11.7307 246.316 12.6253 246.023 13.872L244.769 21H243.229L245.341 8.988H246.881L246.463 11.386ZM254.654 14.994L259.34 21H257.25L253.246 15.632L252.3 21H250.76L253.642 4.72H255.182L253.466 14.356L259.274 8.988H261.408L254.654 14.994ZM264.19 6.722C263.911 6.722 263.684 6.64133 263.508 6.48C263.332 6.304 263.244 6.07667 263.244 5.798C263.244 5.41667 263.376 5.10133 263.64 4.852C263.904 4.588 264.219 4.456 264.586 4.456C264.865 4.456 265.085 4.53667 265.246 4.698C265.422 4.85933 265.51 5.072 265.51 5.336C265.51 5.71733 265.378 6.04733 265.114 6.326C264.85 6.59 264.542 6.722 264.19 6.722ZM264.542 8.988L262.43 21H260.89L263.002 8.988H264.542ZM267.875 8.988L270.141 19.174L275.883 8.988H277.489L267.259 26.654H265.631L268.975 20.912L266.159 8.988H267.875ZM284.374 8.812C285.386 8.812 286.251 9.01 286.97 9.406C287.688 9.78733 288.231 10.3153 288.598 10.99C288.979 11.6647 289.17 12.4347 289.17 13.3C289.17 13.696 289.14 14.048 289.082 14.356C288.994 14.796 288.906 15.192 288.818 15.544H278.852C278.808 15.8227 278.786 16.0867 278.786 16.336C278.786 17.4653 279.123 18.338 279.798 18.954C280.487 19.57 281.36 19.878 282.416 19.878C283.428 19.878 284.315 19.636 285.078 19.152C285.84 18.668 286.398 18.0153 286.75 17.194H288.4C287.901 18.3673 287.102 19.328 286.002 20.076C284.916 20.8093 283.648 21.176 282.196 21.176C280.7 21.176 279.497 20.7507 278.588 19.9C277.693 19.0347 277.246 17.8613 277.246 16.38C277.246 15.94 277.29 15.478 277.378 14.994C277.598 13.7473 278.038 12.6547 278.698 11.716C279.372 10.7773 280.201 10.0587 281.184 9.56C282.166 9.06133 283.23 8.812 284.374 8.812ZM287.498 14.4C287.571 13.9893 287.608 13.6447 287.608 13.366C287.608 12.3247 287.278 11.5253 286.618 10.968C285.958 10.4107 285.114 10.132 284.088 10.132C283.34 10.132 282.621 10.2933 281.932 10.616C281.242 10.9387 280.641 11.4227 280.128 12.068C279.614 12.7133 279.262 13.4907 279.072 14.4H287.498ZM294.011 3.51L293.021 7.756H291.943L292.405 3.51H294.011ZM293.427 14.972C293.647 13.74 294.087 12.662 294.747 11.738C295.407 10.7993 296.221 10.0807 297.189 9.582C298.157 9.06867 299.191 8.812 300.291 8.812C301.347 8.812 302.249 9.06867 302.997 9.582C303.76 10.0953 304.273 10.7627 304.537 11.584L305.747 4.72H307.287L304.405 21H302.865L303.349 18.316C302.821 19.152 302.095 19.8413 301.171 20.384C300.247 20.912 299.221 21.176 298.091 21.176C296.639 21.176 295.473 20.7433 294.593 19.878C293.728 18.998 293.295 17.8173 293.295 16.336C293.295 15.9107 293.339 15.456 293.427 14.972ZM303.921 14.994C303.995 14.5833 304.031 14.2167 304.031 13.894C304.031 12.75 303.687 11.8407 302.997 11.166C302.308 10.4913 301.413 10.154 300.313 10.154C299.463 10.154 298.663 10.3447 297.915 10.726C297.182 11.1073 296.559 11.6647 296.045 12.398C295.532 13.1167 295.187 13.9747 295.011 14.972C294.938 15.412 294.901 15.786 294.901 16.094C294.901 17.2527 295.239 18.1693 295.913 18.844C296.603 19.504 297.497 19.834 298.597 19.834C299.419 19.834 300.203 19.636 300.951 19.24C301.714 18.844 302.352 18.2793 302.865 17.546C303.393 16.8127 303.745 15.962 303.921 14.994ZM314.829 8.812C315.841 8.812 316.706 9.01 317.425 9.406C318.144 9.78733 318.686 10.3153 319.053 10.99C319.434 11.6647 319.625 12.4347 319.625 13.3C319.625 13.696 319.596 14.048 319.537 14.356C319.449 14.796 319.361 15.192 319.273 15.544H309.307C309.263 15.8227 309.241 16.0867 309.241 16.336C309.241 17.4653 309.578 18.338 310.253 18.954C310.942 19.57 311.815 19.878 312.871 19.878C313.883 19.878 314.77 19.636 315.533 19.152C316.296 18.668 316.853 18.0153 317.205 17.194H318.855C318.356 18.3673 317.557 19.328 316.457 20.076C315.372 20.8093 314.103 21.176 312.651 21.176C311.155 21.176 309.952 20.7507 309.043 19.9C308.148 19.0347 307.701 17.8613 307.701 16.38C307.701 15.94 307.745 15.478 307.833 14.994C308.053 13.7473 308.493 12.6547 309.153 11.716C309.828 10.7773 310.656 10.0587 311.639 9.56C312.622 9.06133 313.685 8.812 314.829 8.812ZM317.953 14.4C318.026 13.9893 318.063 13.6447 318.063 13.366C318.063 12.3247 317.733 11.5253 317.073 10.968C316.413 10.4107 315.57 10.132 314.543 10.132C313.795 10.132 313.076 10.2933 312.387 10.616C311.698 10.9387 311.096 11.4227 310.583 12.068C310.07 12.7133 309.718 13.4907 309.527 14.4H317.953ZM330.669 14.994L335.355 21H333.265L329.261 15.632L328.315 21H326.775L329.657 4.72H331.197L329.481 14.356L335.289 8.988H337.423L330.669 14.994ZM349.423 8.988L347.311 21H345.771L346.145 18.888C345.646 19.636 345.001 20.208 344.209 20.604C343.417 21 342.566 21.198 341.657 21.198C340.425 21.198 339.435 20.868 338.687 20.208C337.939 19.5333 337.565 18.558 337.565 17.282C337.565 16.8127 337.602 16.3873 337.675 16.006L338.907 8.988H340.425L339.215 15.83C339.156 16.1673 339.127 16.5193 339.127 16.886C339.127 17.854 339.391 18.5947 339.919 19.108C340.462 19.6067 341.21 19.856 342.163 19.856C343.278 19.856 344.238 19.5187 345.045 18.844C345.852 18.1547 346.394 17.15 346.673 15.83L347.883 8.988H349.423ZM353.621 11.386C354.105 10.55 354.736 9.90467 355.513 9.45C356.29 8.99533 357.192 8.768 358.219 8.768L357.933 10.374H357.493C356.437 10.374 355.528 10.6453 354.765 11.188C354.002 11.7307 353.474 12.6253 353.181 13.872L351.927 21H350.387L352.499 8.988H354.039L353.621 11.386ZM370.436 8.988L368.324 21H366.784L367.158 18.888C366.659 19.636 366.014 20.208 365.222 20.604C364.43 21 363.579 21.198 362.67 21.198C361.438 21.198 360.448 20.868 359.7 20.208C358.952 19.5333 358.578 18.558 358.578 17.282C358.578 16.8127 358.614 16.3873 358.688 16.006L359.92 8.988H361.438L360.228 15.83C360.169 16.1673 360.14 16.5193 360.14 16.886C360.14 17.854 360.404 18.5947 360.932 19.108C361.474 19.6067 362.222 19.856 363.176 19.856C364.29 19.856 365.251 19.5187 366.058 18.844C366.864 18.1547 367.407 17.15 367.686 15.83L368.896 8.988H370.436ZM375.822 4.72L372.94 21H371.4L374.282 4.72H375.822ZM376.339 14.972C376.559 13.74 376.999 12.662 377.659 11.738C378.319 10.7993 379.126 10.0807 380.079 9.582C381.047 9.06867 382.081 8.812 383.181 8.812C384.325 8.812 385.264 9.076 385.997 9.604C386.73 10.132 387.207 10.8067 387.427 11.628L387.889 8.988H389.429L387.317 21H385.777L386.239 18.338C385.74 19.1593 385.022 19.8413 384.083 20.384C383.159 20.912 382.125 21.176 380.981 21.176C380.028 21.176 379.192 20.978 378.473 20.582C377.754 20.186 377.197 19.6287 376.801 18.91C376.405 18.1767 376.207 17.3187 376.207 16.336C376.207 15.9107 376.251 15.456 376.339 14.972ZM386.833 14.994C386.906 14.5833 386.943 14.2167 386.943 13.894C386.943 12.75 386.598 11.8407 385.909 11.166C385.22 10.4913 384.325 10.154 383.225 10.154C382.374 10.154 381.575 10.3447 380.827 10.726C380.094 11.1073 379.47 11.6647 378.957 12.398C378.444 13.1167 378.099 13.9747 377.923 14.972C377.85 15.412 377.813 15.786 377.813 16.094C377.813 17.2527 378.15 18.1693 378.825 18.844C379.514 19.504 380.409 19.834 381.509 19.834C382.33 19.834 383.115 19.636 383.863 19.24C384.626 18.844 385.264 18.2793 385.777 17.546C386.305 16.8127 386.657 15.962 386.833 14.994ZM398.203 8.768C399.435 8.768 400.417 9.10533 401.151 9.78C401.899 10.44 402.273 11.408 402.273 12.684C402.273 13.1533 402.236 13.5787 402.163 13.96L400.909 21H399.391L400.601 14.136C400.659 13.7987 400.689 13.4393 400.689 13.058C400.689 12.09 400.425 11.3567 399.897 10.858C399.369 10.3593 398.628 10.11 397.675 10.11C396.516 10.11 395.526 10.4767 394.705 11.21C393.883 11.9433 393.348 13.0213 393.099 14.444V14.378L391.933 21H390.393L392.505 8.988H394.045L393.671 11.056C394.184 10.3227 394.837 9.758 395.629 9.362C396.421 8.966 397.279 8.768 398.203 8.768ZM420.967 5.622L420.747 6.854H413.949L412.937 12.662H418.657L418.437 13.872H412.717L411.463 21H409.923L412.629 5.622H420.967ZM423.632 6.722C423.354 6.722 423.126 6.64133 422.95 6.48C422.774 6.304 422.686 6.07667 422.686 5.798C422.686 5.41667 422.818 5.10133 423.082 4.852C423.346 4.588 423.662 4.456 424.028 4.456C424.307 4.456 424.527 4.53667 424.688 4.698C424.864 4.85933 424.952 5.072 424.952 5.336C424.952 5.71733 424.82 6.04733 424.556 6.326C424.292 6.59 423.984 6.722 423.632 6.722ZM423.984 8.988L421.872 21H420.332L422.444 8.988H423.984ZM428.154 11.386C428.638 10.55 429.268 9.90467 430.046 9.45C430.823 8.99533 431.725 8.768 432.752 8.768L432.466 10.374H432.026C430.97 10.374 430.06 10.6453 429.298 11.188C428.535 11.7307 428.007 12.6253 427.714 13.872L426.46 21H424.92L427.032 8.988H428.572L428.154 11.386ZM448.928 8.768C450.131 8.768 451.092 9.098 451.81 9.758C452.544 10.418 452.91 11.386 452.91 12.662C452.91 13.058 452.866 13.4907 452.778 13.96L451.524 21H450.006L451.238 14.136C451.312 13.696 451.348 13.3293 451.348 13.036C451.348 12.0827 451.092 11.3567 450.578 10.858C450.065 10.3593 449.339 10.11 448.4 10.11C447.359 10.11 446.442 10.44 445.65 11.1C444.873 11.76 444.33 12.7133 444.022 13.96L442.746 21H441.228L442.46 14.136C442.534 13.696 442.57 13.3293 442.57 13.036C442.57 12.0827 442.314 11.3567 441.8 10.858C441.287 10.3593 440.568 10.11 439.644 10.11C438.53 10.11 437.569 10.4767 436.762 11.21C435.956 11.9287 435.42 12.97 435.156 14.334L433.99 21H432.45L434.562 8.988H436.102L435.728 11.078C436.227 10.33 436.865 9.758 437.642 9.362C438.434 8.966 439.27 8.768 440.15 8.768C441.192 8.768 442.057 9.01733 442.746 9.516C443.436 10.0147 443.868 10.748 444.044 11.716C444.528 10.7627 445.21 10.0367 446.09 9.538C446.97 9.02467 447.916 8.768 448.928 8.768ZM454.857 14.972C455.077 13.74 455.517 12.662 456.177 11.738C456.837 10.7993 457.643 10.0807 458.597 9.582C459.565 9.06867 460.599 8.812 461.699 8.812C462.843 8.812 463.781 9.076 464.515 9.604C465.248 10.132 465.725 10.8067 465.945 11.628L466.407 8.988H467.947L465.835 21H464.295L464.757 18.338C464.258 19.1593 463.539 19.8413 462.601 20.384C461.677 20.912 460.643 21.176 459.499 21.176C458.545 21.176 457.709 20.978 456.991 20.582C456.272 20.186 455.715 19.6287 455.319 18.91C454.923 18.1767 454.725 17.3187 454.725 16.336C454.725 15.9107 454.769 15.456 454.857 14.972ZM465.351 14.994C465.424 14.5833 465.461 14.2167 465.461 13.894C465.461 12.75 465.116 11.8407 464.427 11.166C463.737 10.4913 462.843 10.154 461.743 10.154C460.892 10.154 460.093 10.3447 459.345 10.726C458.611 11.1073 457.988 11.6647 457.475 12.398C456.961 13.1167 456.617 13.9747 456.441 14.972C456.367 15.412 456.331 15.786 456.331 16.094C456.331 17.2527 456.668 18.1693 457.343 18.844C458.032 19.504 458.927 19.834 460.027 19.834C460.848 19.834 461.633 19.636 462.381 19.24C463.143 18.844 463.781 18.2793 464.295 17.546C464.823 16.8127 465.175 15.962 465.351 14.994ZM487.851 5.622L481.251 15.016L480.195 21H478.655L479.711 15.016L476.411 5.622H478.149L480.723 13.608L486.113 5.622H487.851ZM487.288 14.972C487.508 13.74 487.948 12.662 488.608 11.738C489.268 10.7993 490.075 10.0807 491.028 9.582C491.996 9.06867 493.03 8.812 494.13 8.812C495.274 8.812 496.213 9.076 496.946 9.604C497.68 10.132 498.156 10.8067 498.376 11.628L498.838 8.988H500.378L498.266 21H496.726L497.188 18.338C496.69 19.1593 495.971 19.8413 495.032 20.384C494.108 20.912 493.074 21.176 491.93 21.176C490.977 21.176 490.141 20.978 489.422 20.582C488.704 20.186 488.146 19.6287 487.75 18.91C487.354 18.1767 487.156 17.3187 487.156 16.336C487.156 15.9107 487.2 15.456 487.288 14.972ZM497.782 14.994C497.856 14.5833 497.892 14.2167 497.892 13.894C497.892 12.75 497.548 11.8407 496.858 11.166C496.169 10.4913 495.274 10.154 494.174 10.154C493.324 10.154 492.524 10.3447 491.776 10.726C491.043 11.1073 490.42 11.6647 489.906 12.398C489.393 13.1167 489.048 13.9747 488.872 14.972C488.799 15.412 488.762 15.786 488.762 16.094C488.762 17.2527 489.1 18.1693 489.774 18.844C490.464 19.504 491.358 19.834 492.458 19.834C493.28 19.834 494.064 19.636 494.812 19.24C495.575 18.844 496.213 18.2793 496.726 17.546C497.254 16.8127 497.606 15.962 497.782 14.994ZM504.532 11.628C505.031 10.8213 505.742 10.154 506.666 9.626C507.605 9.08333 508.639 8.812 509.768 8.812C511.22 8.812 512.379 9.24467 513.244 10.11C514.124 10.9607 514.564 12.1267 514.564 13.608C514.564 14.0333 514.52 14.488 514.432 14.972C514.212 16.204 513.772 17.2893 513.112 18.228C512.452 19.1667 511.638 19.8927 510.67 20.406C509.717 20.9193 508.69 21.176 507.59 21.176C506.461 21.176 505.53 20.912 504.796 20.384C504.063 19.8413 503.572 19.1667 503.322 18.36L501.87 26.676H500.33L503.454 8.988H504.994L504.532 11.628ZM512.87 14.972C512.944 14.532 512.98 14.158 512.98 13.85C512.98 12.6913 512.636 11.7893 511.946 11.144C511.272 10.484 510.377 10.154 509.262 10.154C508.441 10.154 507.656 10.352 506.908 10.748C506.16 11.144 505.522 11.7087 504.994 12.442C504.466 13.1753 504.114 14.026 503.938 14.994C503.865 15.4047 503.828 15.7713 503.828 16.094C503.828 17.238 504.173 18.1473 504.862 18.822C505.552 19.4967 506.446 19.834 507.546 19.834C508.397 19.834 509.189 19.6433 509.922 19.262C510.67 18.866 511.301 18.3013 511.814 17.568C512.342 16.82 512.694 15.9547 512.87 14.972ZM519.4 8.988L517.288 21H515.748L517.86 8.988H519.4ZM522.183 18.448L518.905 24.212H517.827L520.467 18.448H522.183ZM13.178 40.988L11.066 53H9.526L9.9 50.888C9.40133 51.636 8.756 52.208 7.964 52.604C7.172 53 6.32133 53.198 5.412 53.198C4.18 53.198 3.19 52.868 2.442 52.208C1.694 51.5333 1.32 50.558 1.32 49.282C1.32 48.8127 1.35667 48.3873 1.43 48.006L2.662 40.988H4.18L2.97 47.83C2.91133 48.1673 2.882 48.5193 2.882 48.886C2.882 49.854 3.146 50.5947 3.674 51.108C4.21667 51.6067 4.96467 51.856 5.918 51.856C7.03267 51.856 7.99333 51.5187 8.8 50.844C9.60667 50.1547 10.1493 49.15 10.428 47.83L11.638 40.988H13.178ZM18.5639 36.72L15.6819 53H14.1419L17.0239 36.72H18.5639ZM31.2472 40.988L29.1352 53H27.5952L27.9692 50.888C27.4706 51.636 26.8252 52.208 26.0332 52.604C25.2412 53 24.3906 53.198 23.4812 53.198C22.2492 53.198 21.2592 52.868 20.5112 52.208C19.7632 51.5333 19.3892 50.558 19.3892 49.282C19.3892 48.8127 19.4259 48.3873 19.4992 48.006L20.7312 40.988H22.2492L21.0392 47.83C20.9806 48.1673 20.9512 48.5193 20.9512 48.886C20.9512 49.854 21.2152 50.5947 21.7432 51.108C22.2859 51.6067 23.0339 51.856 23.9872 51.856C25.1019 51.856 26.0626 51.5187 26.8692 50.844C27.6759 50.1547 28.2186 49.15 28.4972 47.83L29.7072 40.988H31.2472ZM36.2151 53.176C34.9978 53.176 34.0078 52.8973 33.2451 52.34C32.4824 51.768 32.1011 50.9907 32.1011 50.008C32.1011 49.832 32.1084 49.7 32.1231 49.612H33.6191C33.5604 50.316 33.7658 50.8807 34.2351 51.306C34.7044 51.7313 35.3938 51.944 36.3031 51.944C37.2271 51.944 37.9678 51.7533 38.5251 51.372C39.0824 50.976 39.3611 50.4553 39.3611 49.81C39.3611 49.4287 39.2438 49.106 39.0091 48.842C38.7744 48.578 38.4811 48.3653 38.1291 48.204C37.7918 48.028 37.3151 47.83 36.6991 47.61C35.9364 47.3313 35.3204 47.0747 34.8511 46.84C34.3964 46.5907 34.0004 46.2533 33.6631 45.828C33.3404 45.388 33.1791 44.838 33.1791 44.178C33.1791 43.518 33.3698 42.9313 33.7511 42.418C34.1324 41.9047 34.6531 41.5087 35.3131 41.23C35.9878 40.9513 36.7504 40.812 37.6011 40.812C38.7891 40.812 39.7571 41.1053 40.5051 41.692C41.2678 42.2787 41.6491 43.056 41.6491 44.024C41.6491 44.2293 41.6418 44.3833 41.6271 44.486H40.1751C40.1898 44.4273 40.1971 44.332 40.1971 44.2C40.1971 43.5547 39.9404 43.034 39.4271 42.638C38.9284 42.242 38.2831 42.044 37.4911 42.044C36.6991 42.044 36.0391 42.2347 35.5111 42.616C34.9978 42.9827 34.7411 43.4813 34.7411 44.112C34.7411 44.5373 34.8658 44.8967 35.1151 45.19C35.3644 45.4687 35.6724 45.696 36.0391 45.872C36.4058 46.048 36.8971 46.2533 37.5131 46.488C38.2464 46.7667 38.8331 47.0233 39.2731 47.258C39.7278 47.4927 40.1091 47.8153 40.4171 48.226C40.7251 48.6367 40.8791 49.15 40.8791 49.766C40.8791 50.8073 40.4464 51.636 39.5811 52.252C38.7158 52.868 37.5938 53.176 36.2151 53.176ZM47.4079 36.72L44.5259 53H42.9859L45.8679 36.72H47.4079ZM47.9253 46.972C48.1453 45.74 48.5853 44.662 49.2453 43.738C49.9053 42.7993 50.7119 42.0807 51.6653 41.582C52.6333 41.0687 53.6673 40.812 54.7673 40.812C55.9113 40.812 56.8499 41.076 57.5833 41.604C58.3166 42.132 58.7933 42.8067 59.0133 43.628L59.4753 40.988H61.0153L58.9033 53H57.3633L57.8253 50.338C57.3266 51.1593 56.6079 51.8413 55.6693 52.384C54.7453 52.912 53.7113 53.176 52.5673 53.176C51.6139 53.176 50.7779 52.978 50.0593 52.582C49.3406 52.186 48.7833 51.6287 48.3873 50.91C47.9913 50.1767 47.7933 49.3187 47.7933 48.336C47.7933 47.9107 47.8373 47.456 47.9253 46.972ZM58.4193 46.994C58.4926 46.5833 58.5293 46.2167 58.5293 45.894C58.5293 44.75 58.1846 43.8407 57.4953 43.166C56.8059 42.4913 55.9113 42.154 54.8113 42.154C53.9606 42.154 53.1613 42.3447 52.4133 42.726C51.6799 43.1073 51.0566 43.6647 50.5433 44.398C50.0299 45.1167 49.6853 45.9747 49.5093 46.972C49.4359 47.412 49.3993 47.786 49.3993 48.094C49.3993 49.2527 49.7366 50.1693 50.4113 50.844C51.1006 51.504 51.9953 51.834 53.0953 51.834C53.9166 51.834 54.7013 51.636 55.4493 51.24C56.2119 50.844 56.8499 50.2793 57.3633 49.546C57.8913 48.8127 58.2433 47.962 58.4193 46.994ZM65.213 43.386C65.697 42.55 66.3277 41.9047 67.105 41.45C67.8823 40.9953 68.7843 40.768 69.811 40.768L69.525 42.374H69.085C68.029 42.374 67.1197 42.6453 66.357 43.188C65.5943 43.7307 65.0663 44.6253 64.773 45.872L63.519 53H61.979L64.091 40.988H65.631L65.213 43.386ZM69.8617 46.972C70.0817 45.74 70.5217 44.662 71.1817 43.738C71.8417 42.7993 72.6484 42.0807 73.6017 41.582C74.5697 41.0687 75.6037 40.812 76.7037 40.812C77.8477 40.812 78.7864 41.076 79.5197 41.604C80.253 42.132 80.7297 42.8067 80.9497 43.628L81.4117 40.988H82.9517L80.8397 53H79.2997L79.7617 50.338C79.263 51.1593 78.5444 51.8413 77.6057 52.384C76.6817 52.912 75.6477 53.176 74.5037 53.176C73.5504 53.176 72.7144 52.978 71.9957 52.582C71.277 52.186 70.7197 51.6287 70.3237 50.91C69.9277 50.1767 69.7297 49.3187 69.7297 48.336C69.7297 47.9107 69.7737 47.456 69.8617 46.972ZM80.3557 46.994C80.429 46.5833 80.4657 46.2167 80.4657 45.894C80.4657 44.75 80.121 43.8407 79.4317 43.166C78.7424 42.4913 77.8477 42.154 76.7477 42.154C75.897 42.154 75.0977 42.3447 74.3497 42.726C73.6164 43.1073 72.993 43.6647 72.4797 44.398C71.9664 45.1167 71.6217 45.9747 71.4457 46.972C71.3724 47.412 71.3357 47.786 71.3357 48.094C71.3357 49.2527 71.673 50.1693 72.3477 50.844C73.037 51.504 73.9317 51.834 75.0317 51.834C75.853 51.834 76.6377 51.636 77.3857 51.24C78.1484 50.844 78.7864 50.2793 79.2997 49.546C79.8277 48.8127 80.1797 47.962 80.3557 46.994ZM87.1494 43.386C87.6334 42.55 88.2641 41.9047 89.0414 41.45C89.8187 40.9953 90.7207 40.768 91.7474 40.768L91.4614 42.374H91.0214C89.9654 42.374 89.0561 42.6453 88.2934 43.188C87.5307 43.7307 87.0027 44.6253 86.7094 45.872L85.4554 53H83.9154L86.0274 40.988H87.5674L87.1494 43.386ZM91.7981 46.972C92.0181 45.74 92.4581 44.662 93.1181 43.738C93.7781 42.7993 94.5848 42.0807 95.5381 41.582C96.5061 41.0687 97.5401 40.812 98.6401 40.812C99.7841 40.812 100.723 41.076 101.456 41.604C102.189 42.132 102.666 42.8067 102.886 43.628L103.348 40.988H104.888L102.776 53H101.236L101.698 50.338C101.199 51.1593 100.481 51.8413 99.5421 52.384C98.6181 52.912 97.5841 53.176 96.4401 53.176C95.4868 53.176 94.6508 52.978 93.9321 52.582C93.2134 52.186 92.6561 51.6287 92.2601 50.91C91.8641 50.1767 91.6661 49.3187 91.6661 48.336C91.6661 47.9107 91.7101 47.456 91.7981 46.972ZM102.292 46.994C102.365 46.5833 102.402 46.2167 102.402 45.894C102.402 44.75 102.057 43.8407 101.368 43.166C100.679 42.4913 99.7841 42.154 98.6841 42.154C97.8334 42.154 97.0341 42.3447 96.2861 42.726C95.5528 43.1073 94.9294 43.6647 94.4161 44.398C93.9028 45.1167 93.5581 45.9747 93.3821 46.972C93.3088 47.412 93.2721 47.786 93.2721 48.094C93.2721 49.2527 93.6094 50.1693 94.2841 50.844C94.9734 51.504 95.8681 51.834 96.9681 51.834C97.7894 51.834 98.5741 51.636 99.3221 51.24C100.085 50.844 100.723 50.2793 101.236 49.546C101.764 48.8127 102.116 47.962 102.292 46.994ZM109.856 53.176C108.638 53.176 107.648 52.8973 106.886 52.34C106.123 51.768 105.742 50.9907 105.742 50.008C105.742 49.832 105.749 49.7 105.764 49.612H107.26C107.201 50.316 107.406 50.8807 107.876 51.306C108.345 51.7313 109.034 51.944 109.944 51.944C110.868 51.944 111.608 51.7533 112.166 51.372C112.723 50.976 113.002 50.4553 113.002 49.81C113.002 49.4287 112.884 49.106 112.65 48.842C112.415 48.578 112.122 48.3653 111.77 48.204C111.432 48.028 110.956 47.83 110.34 47.61C109.577 47.3313 108.961 47.0747 108.492 46.84C108.037 46.5907 107.641 46.2533 107.304 45.828C106.981 45.388 106.82 44.838 106.82 44.178C106.82 43.518 107.01 42.9313 107.392 42.418C107.773 41.9047 108.294 41.5087 108.954 41.23C109.628 40.9513 110.391 40.812 111.242 40.812C112.43 40.812 113.398 41.1053 114.146 41.692C114.908 42.2787 115.29 43.056 115.29 44.024C115.29 44.2293 115.282 44.3833 115.268 44.486H113.816C113.83 44.4273 113.838 44.332 113.838 44.2C113.838 43.5547 113.581 43.034 113.068 42.638C112.569 42.242 111.924 42.044 111.132 42.044C110.34 42.044 109.68 42.2347 109.152 42.616C108.638 42.9827 108.382 43.4813 108.382 44.112C108.382 44.5373 108.506 44.8967 108.756 45.19C109.005 45.4687 109.313 45.696 109.68 45.872C110.046 46.048 110.538 46.2533 111.154 46.488C111.887 46.7667 112.474 47.0233 112.914 47.258C113.368 47.4927 113.75 47.8153 114.058 48.226C114.366 48.6367 114.52 49.15 114.52 49.766C114.52 50.8073 114.087 51.636 113.222 52.252C112.356 52.868 111.234 53.176 109.856 53.176ZM120.279 40.988L118.167 53H116.627L118.739 40.988H120.279ZM130.562 38.722C130.284 38.722 130.056 38.6413 129.88 38.48C129.704 38.304 129.616 38.0767 129.616 37.798C129.616 37.4167 129.748 37.1013 130.012 36.852C130.276 36.588 130.592 36.456 130.958 36.456C131.237 36.456 131.457 36.5367 131.618 36.698C131.794 36.8593 131.882 37.072 131.882 37.336C131.882 37.7173 131.75 38.0473 131.486 38.326C131.222 38.59 130.914 38.722 130.562 38.722ZM130.914 40.988L128.802 53H127.262L129.374 40.988H130.914ZM139.66 40.768C140.892 40.768 141.874 41.1053 142.608 41.78C143.356 42.44 143.73 43.408 143.73 44.684C143.73 45.1533 143.693 45.5787 143.62 45.96L142.366 53H140.848L142.058 46.136C142.116 45.7987 142.146 45.4393 142.146 45.058C142.146 44.09 141.882 43.3567 141.354 42.858C140.826 42.3593 140.085 42.11 139.132 42.11C137.973 42.11 136.983 42.4767 136.162 43.21C135.34 43.9433 134.805 45.0213 134.556 46.444V46.378L133.39 53H131.85L133.962 40.988H135.502L135.128 43.056C135.641 42.3227 136.294 41.758 137.086 41.362C137.878 40.966 138.736 40.768 139.66 40.768ZM153.295 44.486C153.31 44.4273 153.317 44.332 153.317 44.2C153.317 43.5547 153.061 43.034 152.547 42.638C152.049 42.242 151.403 42.044 150.611 42.044C149.819 42.044 149.159 42.2347 148.631 42.616C148.118 42.9827 147.861 43.4813 147.861 44.112C147.861 44.5373 147.986 44.8967 148.235 45.19C148.485 45.4687 148.793 45.696 149.159 45.872C149.526 46.048 150.017 46.2533 150.633 46.488C151.367 46.7667 151.953 47.0233 152.393 47.258C152.848 47.4927 153.229 47.8153 153.537 48.226C153.845 48.6367 153.999 49.15 153.999 49.766C153.999 50.734 153.611 51.526 152.833 52.142C152.056 52.7433 151.044 53.0807 149.797 53.154L149.555 54.474C150.347 54.4447 150.963 54.5767 151.403 54.87C151.843 55.1633 152.063 55.5813 152.063 56.124C152.063 56.212 152.049 56.344 152.019 56.52C151.902 57.18 151.572 57.7007 151.029 58.082C150.501 58.478 149.849 58.676 149.071 58.676H146.871L147.047 57.642H148.939C150.01 57.642 150.597 57.268 150.699 56.52C150.714 56.4613 150.721 56.3807 150.721 56.278C150.721 55.7353 150.259 55.464 149.335 55.464H148.301L148.719 53.154C147.678 53.066 146.835 52.7433 146.189 52.186C145.544 51.6287 145.221 50.9027 145.221 50.008C145.221 49.832 145.229 49.7 145.243 49.612H146.739C146.681 50.316 146.886 50.8807 147.355 51.306C147.825 51.7313 148.514 51.944 149.423 51.944C150.347 51.944 151.088 51.7533 151.645 51.372C152.203 50.976 152.481 50.4553 152.481 49.81C152.481 49.4287 152.364 49.106 152.129 48.842C151.895 48.578 151.601 48.3653 151.249 48.204C150.912 48.028 150.435 47.83 149.819 47.61C149.057 47.3313 148.441 47.0747 147.971 46.84C147.517 46.5907 147.121 46.2533 146.783 45.828C146.461 45.388 146.299 44.838 146.299 44.178C146.299 43.518 146.49 42.9313 146.871 42.418C147.253 41.9047 147.773 41.5087 148.433 41.23C149.108 40.9513 149.871 40.812 150.721 40.812C151.909 40.812 152.877 41.1053 153.625 41.692C154.388 42.2787 154.769 43.056 154.769 44.024C154.769 44.2293 154.762 44.3833 154.747 44.486H153.295ZM156.458 46.972C156.678 45.74 157.118 44.662 157.778 43.738C158.438 42.7993 159.245 42.0807 160.198 41.582C161.166 41.0687 162.2 40.812 163.3 40.812C164.444 40.812 165.383 41.076 166.116 41.604C166.85 42.132 167.326 42.8067 167.546 43.628L168.008 40.988H169.548L167.436 53H165.896L166.358 50.338C165.86 51.1593 165.141 51.8413 164.202 52.384C163.278 52.912 162.244 53.176 161.1 53.176C160.147 53.176 159.311 52.978 158.592 52.582C157.874 52.186 157.316 51.6287 156.92 50.91C156.524 50.1767 156.326 49.3187 156.326 48.336C156.326 47.9107 156.37 47.456 156.458 46.972ZM166.952 46.994C167.026 46.5833 167.062 46.2167 167.062 45.894C167.062 44.75 166.718 43.8407 166.028 43.166C165.339 42.4913 164.444 42.154 163.344 42.154C162.494 42.154 161.694 42.3447 160.946 42.726C160.213 43.1073 159.59 43.6647 159.076 44.398C158.563 45.1167 158.218 45.9747 158.042 46.972C157.969 47.412 157.932 47.786 157.932 48.094C157.932 49.2527 158.27 50.1693 158.944 50.844C159.634 51.504 160.528 51.834 161.628 51.834C162.45 51.834 163.234 51.636 163.982 51.24C164.745 50.844 165.383 50.2793 165.896 49.546C166.424 48.8127 166.776 47.962 166.952 46.994ZM170.864 46.972C171.084 45.74 171.524 44.662 172.184 43.738C172.844 42.7993 173.651 42.0807 174.604 41.582C175.572 41.0687 176.606 40.812 177.706 40.812C178.85 40.812 179.789 41.076 180.522 41.604C181.255 42.132 181.732 42.8067 181.952 43.628L182.414 40.988H183.954L181.842 53H180.302L180.764 50.338C180.265 51.1593 179.547 51.8413 178.608 52.384C177.684 52.912 176.65 53.176 175.506 53.176C174.553 53.176 173.717 52.978 172.998 52.582C172.279 52.186 171.722 51.6287 171.326 50.91C170.93 50.1767 170.732 49.3187 170.732 48.336C170.732 47.9107 170.776 47.456 170.864 46.972ZM181.358 46.994C181.431 46.5833 181.468 46.2167 181.468 45.894C181.468 44.75 181.123 43.8407 180.434 43.166C179.745 42.4913 178.85 42.154 177.75 42.154C176.899 42.154 176.1 42.3447 175.352 42.726C174.619 43.1073 173.995 43.6647 173.482 44.398C172.969 45.1167 172.624 45.9747 172.448 46.972C172.375 47.412 172.338 47.786 172.338 48.094C172.338 49.2527 172.675 50.1693 173.35 50.844C174.039 51.504 174.934 51.834 176.034 51.834C176.855 51.834 177.64 51.636 178.388 51.24C179.151 50.844 179.789 50.2793 180.302 49.546C180.83 48.8127 181.182 47.962 181.358 46.994ZM187.47 49.744C187.426 50.008 187.404 50.2353 187.404 50.426C187.404 50.8953 187.528 51.2253 187.778 51.416C188.042 51.592 188.467 51.68 189.054 51.68H190.462L190.22 53H188.57C187.66 53 186.978 52.824 186.524 52.472C186.069 52.12 185.842 51.5407 185.842 50.734C185.842 50.4113 185.871 50.0813 185.93 49.744L187.25 42.286H185.578L185.82 40.988H187.492L188.02 37.974H189.56L189.032 40.988H192.354L192.112 42.286H188.79L187.47 49.744ZM202.372 53.176C201.154 53.176 200.164 52.8973 199.402 52.34C198.639 51.768 198.258 50.9907 198.258 50.008C198.258 49.832 198.265 49.7 198.28 49.612H199.776C199.717 50.316 199.922 50.8807 200.392 51.306C200.861 51.7313 201.55 51.944 202.46 51.944C203.384 51.944 204.124 51.7533 204.682 51.372C205.239 50.976 205.518 50.4553 205.518 49.81C205.518 49.4287 205.4 49.106 205.166 48.842C204.931 48.578 204.638 48.3653 204.286 48.204C203.948 48.028 203.472 47.83 202.856 47.61C202.093 47.3313 201.477 47.0747 201.008 46.84C200.553 46.5907 200.157 46.2533 199.82 45.828C199.497 45.388 199.336 44.838 199.336 44.178C199.336 43.518 199.526 42.9313 199.908 42.418C200.289 41.9047 200.81 41.5087 201.47 41.23C202.144 40.9513 202.907 40.812 203.758 40.812C204.946 40.812 205.914 41.1053 206.662 41.692C207.424 42.2787 207.806 43.056 207.806 44.024C207.806 44.2293 207.798 44.3833 207.784 44.486H206.332C206.346 44.4273 206.354 44.332 206.354 44.2C206.354 43.5547 206.097 43.034 205.584 42.638C205.085 42.242 204.44 42.044 203.648 42.044C202.856 42.044 202.196 42.2347 201.668 42.616C201.154 42.9827 200.898 43.4813 200.898 44.112C200.898 44.5373 201.022 44.8967 201.272 45.19C201.521 45.4687 201.829 45.696 202.196 45.872C202.562 46.048 203.054 46.2533 203.67 46.488C204.403 46.7667 204.99 47.0233 205.43 47.258C205.884 47.4927 206.266 47.8153 206.574 48.226C206.882 48.6367 207.036 49.15 207.036 49.766C207.036 50.8073 206.603 51.636 205.738 52.252C204.872 52.868 203.75 53.176 202.372 53.176ZM216.491 40.812C217.503 40.812 218.368 41.01 219.087 41.406C219.805 41.7873 220.348 42.3153 220.715 42.99C221.096 43.6647 221.287 44.4347 221.287 45.3C221.287 45.696 221.257 46.048 221.199 46.356C221.111 46.796 221.023 47.192 220.935 47.544H210.969C210.925 47.8227 210.903 48.0867 210.903 48.336C210.903 49.4653 211.24 50.338 211.915 50.954C212.604 51.57 213.477 51.878 214.533 51.878C215.545 51.878 216.432 51.636 217.195 51.152C217.957 50.668 218.515 50.0153 218.867 49.194H220.517C220.018 50.3673 219.219 51.328 218.119 52.076C217.033 52.8093 215.765 53.176 214.313 53.176C212.817 53.176 211.614 52.7507 210.705 51.9C209.81 51.0347 209.363 49.8613 209.363 48.38C209.363 47.94 209.407 47.478 209.495 46.994C209.715 45.7473 210.155 44.6547 210.815 43.716C211.489 42.7773 212.318 42.0587 213.301 41.56C214.283 41.0613 215.347 40.812 216.491 40.812ZM219.615 46.4C219.688 45.9893 219.725 45.6447 219.725 45.366C219.725 44.3247 219.395 43.5253 218.735 42.968C218.075 42.4107 217.231 42.132 216.205 42.132C215.457 42.132 214.738 42.2933 214.049 42.616C213.359 42.9387 212.758 43.4227 212.245 44.068C211.731 44.7133 211.379 45.4907 211.189 46.4H219.615ZM226.282 46.994L230.968 53H228.878L224.874 47.632L223.928 53H222.388L225.27 36.72H226.81L225.094 46.356L230.902 40.988H233.036L226.282 46.994ZM235.071 49.744C235.027 50.008 235.005 50.2353 235.005 50.426C235.005 50.8953 235.129 51.2253 235.379 51.416C235.643 51.592 236.068 51.68 236.655 51.68H238.063L237.821 53H236.171C235.261 53 234.579 52.824 234.125 52.472C233.67 52.12 233.443 51.5407 233.443 50.734C233.443 50.4113 233.472 50.0813 233.531 49.744L234.851 42.286H233.179L233.421 40.988H235.093L235.621 37.974H237.161L236.633 40.988H239.955L239.713 42.286H236.391L235.071 49.744ZM245.2 53.176C244.203 53.176 243.323 52.978 242.56 52.582C241.798 52.1713 241.204 51.5993 240.778 50.866C240.368 50.118 240.162 49.2453 240.162 48.248C240.162 46.8987 240.47 45.6593 241.086 44.53C241.702 43.386 242.56 42.484 243.66 41.824C244.76 41.1493 245.985 40.812 247.334 40.812C248.332 40.812 249.212 41.0173 249.974 41.428C250.737 41.824 251.331 42.396 251.756 43.144C252.182 43.8773 252.394 44.7427 252.394 45.74C252.394 47.104 252.079 48.3507 251.448 49.48C250.818 50.6093 249.952 51.5113 248.852 52.186C247.767 52.846 246.55 53.176 245.2 53.176ZM245.376 51.878C246.418 51.878 247.349 51.5993 248.17 51.042C249.006 50.4847 249.652 49.744 250.106 48.82C250.576 47.896 250.81 46.8987 250.81 45.828C250.81 44.6253 250.458 43.7087 249.754 43.078C249.065 42.4473 248.185 42.132 247.114 42.132C246.073 42.132 245.142 42.4107 244.32 42.968C243.514 43.5253 242.883 44.266 242.428 45.19C241.974 46.114 241.746 47.1113 241.746 48.182C241.746 49.37 242.091 50.2867 242.78 50.932C243.47 51.5627 244.335 51.878 245.376 51.878ZM245.948 39.118C245.699 39.118 245.494 39.0373 245.332 38.876C245.186 38.7147 245.112 38.5167 245.112 38.282C245.112 37.9593 245.23 37.6807 245.464 37.446C245.699 37.2113 245.978 37.094 246.3 37.094C246.55 37.094 246.748 37.1747 246.894 37.336C247.056 37.4827 247.136 37.6807 247.136 37.93C247.136 38.2527 247.012 38.5313 246.762 38.766C246.528 39.0007 246.256 39.118 245.948 39.118ZM249.336 39.118C249.087 39.118 248.882 39.0373 248.72 38.876C248.574 38.7147 248.5 38.5167 248.5 38.282C248.5 37.9593 248.618 37.6807 248.852 37.446C249.102 37.2113 249.388 37.094 249.71 37.094C249.945 37.094 250.136 37.1747 250.282 37.336C250.444 37.4827 250.524 37.6733 250.524 37.908C250.524 38.2307 250.4 38.5167 250.15 38.766C249.916 39.0007 249.644 39.118 249.336 39.118ZM256.83 43.386C257.314 42.55 257.944 41.9047 258.722 41.45C259.499 40.9953 260.401 40.768 261.428 40.768L261.142 42.374H260.702C259.646 42.374 258.736 42.6453 257.974 43.188C257.211 43.7307 256.683 44.6253 256.39 45.872L255.136 53H253.596L255.708 40.988H257.248L256.83 43.386ZM273.644 40.988L271.532 53H269.992L270.366 50.888C269.868 51.636 269.222 52.208 268.43 52.604C267.638 53 266.788 53.198 265.878 53.198C264.646 53.198 263.656 52.868 262.908 52.208C262.16 51.5333 261.786 50.558 261.786 49.282C261.786 48.8127 261.823 48.3873 261.896 48.006L263.128 40.988H264.646L263.436 47.83C263.378 48.1673 263.348 48.5193 263.348 48.886C263.348 49.854 263.612 50.5947 264.14 51.108C264.683 51.6067 265.431 51.856 266.384 51.856C267.499 51.856 268.46 51.5187 269.266 50.844C270.073 50.1547 270.616 49.15 270.894 47.83L272.104 40.988H273.644ZM267.088 39.294C266.839 39.294 266.634 39.2133 266.472 39.052C266.326 38.8907 266.252 38.6927 266.252 38.458C266.252 38.1353 266.37 37.8567 266.604 37.622C266.839 37.3873 267.118 37.27 267.44 37.27C267.69 37.27 267.888 37.3507 268.034 37.512C268.196 37.6587 268.276 37.8567 268.276 38.106C268.276 38.4287 268.152 38.7073 267.902 38.942C267.668 39.1767 267.396 39.294 267.088 39.294ZM270.476 39.294C270.227 39.294 270.022 39.2133 269.86 39.052C269.714 38.8907 269.64 38.6927 269.64 38.458C269.64 38.1353 269.758 37.8567 269.992 37.622C270.242 37.3873 270.528 37.27 270.85 37.27C271.085 37.27 271.276 37.3507 271.422 37.512C271.584 37.6587 271.664 37.8493 271.664 38.084C271.664 38.4067 271.54 38.6927 271.29 38.942C271.056 39.1767 270.784 39.294 270.476 39.294ZM282.418 40.768C283.65 40.768 284.633 41.1053 285.366 41.78C286.114 42.44 286.488 43.408 286.488 44.684C286.488 45.1533 286.451 45.5787 286.378 45.96L285.124 53H283.606L284.816 46.136C284.875 45.7987 284.904 45.4393 284.904 45.058C284.904 44.09 284.64 43.3567 284.112 42.858C283.584 42.3593 282.843 42.11 281.89 42.11C280.731 42.11 279.741 42.4767 278.92 43.21C278.099 43.9433 277.563 45.0213 277.314 46.444V46.378L276.148 53H274.608L276.72 40.988H278.26L277.886 43.056C278.399 42.3227 279.052 41.758 279.844 41.362C280.636 40.966 281.494 40.768 282.418 40.768ZM288.442 46.972C288.662 45.74 289.102 44.662 289.762 43.738C290.422 42.7993 291.236 42.0807 292.204 41.582C293.172 41.0687 294.206 40.812 295.306 40.812C296.362 40.812 297.264 41.0687 298.012 41.582C298.775 42.0953 299.288 42.7627 299.552 43.584L300.762 36.72H302.302L299.42 53H297.88L298.364 50.316C297.836 51.152 297.11 51.8413 296.186 52.384C295.262 52.912 294.235 53.176 293.106 53.176C291.654 53.176 290.488 52.7433 289.608 51.878C288.743 50.998 288.31 49.8173 288.31 48.336C288.31 47.9107 288.354 47.456 288.442 46.972ZM298.936 46.994C299.009 46.5833 299.046 46.2167 299.046 45.894C299.046 44.75 298.701 43.8407 298.012 43.166C297.323 42.4913 296.428 42.154 295.328 42.154C294.477 42.154 293.678 42.3447 292.93 42.726C292.197 43.1073 291.573 43.6647 291.06 44.398C290.547 45.1167 290.202 45.9747 290.026 46.972C289.953 47.412 289.916 47.786 289.916 48.094C289.916 49.2527 290.253 50.1693 290.928 50.844C291.617 51.504 292.512 51.834 293.612 51.834C294.433 51.834 295.218 51.636 295.966 51.24C296.729 50.844 297.367 50.2793 297.88 49.546C298.408 48.8127 298.76 47.962 298.936 46.994ZM309.844 40.812C310.856 40.812 311.721 41.01 312.44 41.406C313.158 41.7873 313.701 42.3153 314.068 42.99C314.449 43.6647 314.64 44.4347 314.64 45.3C314.64 45.696 314.61 46.048 314.552 46.356C314.464 46.796 314.376 47.192 314.288 47.544H304.322C304.278 47.8227 304.256 48.0867 304.256 48.336C304.256 49.4653 304.593 50.338 305.268 50.954C305.957 51.57 306.83 51.878 307.886 51.878C308.898 51.878 309.785 51.636 310.548 51.152C311.31 50.668 311.868 50.0153 312.22 49.194H313.87C313.371 50.3673 312.572 51.328 311.472 52.076C310.386 52.8093 309.118 53.176 307.666 53.176C306.17 53.176 304.967 52.7507 304.058 51.9C303.163 51.0347 302.716 49.8613 302.716 48.38C302.716 47.94 302.76 47.478 302.848 46.994C303.068 45.7473 303.508 44.6547 304.168 43.716C304.842 42.7773 305.671 42.0587 306.654 41.56C307.636 41.0613 308.7 40.812 309.844 40.812ZM312.968 46.4C313.041 45.9893 313.078 45.6447 313.078 45.366C313.078 44.3247 312.748 43.5253 312.088 42.968C311.428 42.4107 310.584 42.132 309.558 42.132C308.81 42.132 308.091 42.2933 307.402 42.616C306.712 42.9387 306.111 43.4227 305.598 44.068C305.084 44.7133 304.732 45.4907 304.542 46.4H312.968ZM325.684 46.994L330.37 53H328.28L324.276 47.632L323.33 53H321.79L324.672 36.72H326.212L324.496 46.356L330.304 40.988H332.438L325.684 46.994ZM335.572 40.988L333.46 53H331.92L334.032 40.988H335.572ZM340.511 53.176C339.294 53.176 338.304 52.8973 337.541 52.34C336.779 51.768 336.397 50.9907 336.397 50.008C336.397 49.832 336.405 49.7 336.419 49.612H337.915C337.857 50.316 338.062 50.8807 338.531 51.306C339.001 51.7313 339.69 51.944 340.599 51.944C341.523 51.944 342.264 51.7533 342.821 51.372C343.379 50.976 343.657 50.4553 343.657 49.81C343.657 49.4287 343.54 49.106 343.305 48.842C343.071 48.578 342.777 48.3653 342.425 48.204C342.088 48.028 341.611 47.83 340.995 47.61C340.233 47.3313 339.617 47.0747 339.147 46.84C338.693 46.5907 338.297 46.2533 337.959 45.828C337.637 45.388 337.475 44.838 337.475 44.178C337.475 43.518 337.666 42.9313 338.047 42.418C338.429 41.9047 338.949 41.5087 339.609 41.23C340.284 40.9513 341.047 40.812 341.897 40.812C343.085 40.812 344.053 41.1053 344.801 41.692C345.564 42.2787 345.945 43.056 345.945 44.024C345.945 44.2293 345.938 44.3833 345.923 44.486H344.471C344.486 44.4273 344.493 44.332 344.493 44.2C344.493 43.5547 344.237 43.034 343.723 42.638C343.225 42.242 342.579 42.044 341.787 42.044C340.995 42.044 340.335 42.2347 339.807 42.616C339.294 42.9827 339.037 43.4813 339.037 44.112C339.037 44.5373 339.162 44.8967 339.411 45.19C339.661 45.4687 339.969 45.696 340.335 45.872C340.702 46.048 341.193 46.2533 341.809 46.488C342.543 46.7667 343.129 47.0233 343.569 47.258C344.024 47.4927 344.405 47.8153 344.713 48.226C345.021 48.6367 345.175 49.15 345.175 49.766C345.175 50.8073 344.743 51.636 343.877 52.252C343.012 52.868 341.89 53.176 340.511 53.176ZM347.634 46.972C347.854 45.74 348.294 44.662 348.954 43.738C349.614 42.7993 350.421 42.0807 351.374 41.582C352.342 41.0687 353.376 40.812 354.476 40.812C355.62 40.812 356.559 41.076 357.292 41.604C358.025 42.132 358.502 42.8067 358.722 43.628L359.184 40.988H360.724L358.612 53H357.072L357.534 50.338C357.035 51.1593 356.317 51.8413 355.378 52.384C354.454 52.912 353.42 53.176 352.276 53.176C351.323 53.176 350.487 52.978 349.768 52.582C349.049 52.186 348.492 51.6287 348.096 50.91C347.7 50.1767 347.502 49.3187 347.502 48.336C347.502 47.9107 347.546 47.456 347.634 46.972ZM358.128 46.994C358.201 46.5833 358.238 46.2167 358.238 45.894C358.238 44.75 357.893 43.8407 357.204 43.166C356.515 42.4913 355.62 42.154 354.52 42.154C353.669 42.154 352.87 42.3447 352.122 42.726C351.389 43.1073 350.765 43.6647 350.252 44.398C349.739 45.1167 349.394 45.9747 349.218 46.972C349.145 47.412 349.108 47.786 349.108 48.094C349.108 49.2527 349.445 50.1693 350.12 50.844C350.809 51.504 351.704 51.834 352.804 51.834C353.625 51.834 354.41 51.636 355.158 51.24C355.921 50.844 356.559 50.2793 357.072 49.546C357.6 48.8127 357.952 47.962 358.128 46.994ZM371.74 53.176C370.523 53.176 369.533 52.8973 368.77 52.34C368.007 51.768 367.626 50.9907 367.626 50.008C367.626 49.832 367.633 49.7 367.648 49.612H369.144C369.085 50.316 369.291 50.8807 369.76 51.306C370.229 51.7313 370.919 51.944 371.828 51.944C372.752 51.944 373.493 51.7533 374.05 51.372C374.607 50.976 374.886 50.4553 374.886 49.81C374.886 49.4287 374.769 49.106 374.534 48.842C374.299 48.578 374.006 48.3653 373.654 48.204C373.317 48.028 372.84 47.83 372.224 47.61C371.461 47.3313 370.845 47.0747 370.376 46.84C369.921 46.5907 369.525 46.2533 369.188 45.828C368.865 45.388 368.704 44.838 368.704 44.178C368.704 43.518 368.895 42.9313 369.276 42.418C369.657 41.9047 370.178 41.5087 370.838 41.23C371.513 40.9513 372.275 40.812 373.126 40.812C374.314 40.812 375.282 41.1053 376.03 41.692C376.793 42.2787 377.174 43.056 377.174 44.024C377.174 44.2293 377.167 44.3833 377.152 44.486H375.7C375.715 44.4273 375.722 44.332 375.722 44.2C375.722 43.5547 375.465 43.034 374.952 42.638C374.453 42.242 373.808 42.044 373.016 42.044C372.224 42.044 371.564 42.2347 371.036 42.616C370.523 42.9827 370.266 43.4813 370.266 44.112C370.266 44.5373 370.391 44.8967 370.64 45.19C370.889 45.4687 371.197 45.696 371.564 45.872C371.931 46.048 372.422 46.2533 373.038 46.488C373.771 46.7667 374.358 47.0233 374.798 47.258C375.253 47.4927 375.634 47.8153 375.942 48.226C376.25 48.6367 376.404 49.15 376.404 49.766C376.404 50.8073 375.971 51.636 375.106 52.252C374.241 52.868 373.119 53.176 371.74 53.176ZM391.029 40.988L388.917 53H387.377L387.751 50.888C387.252 51.636 386.607 52.208 385.815 52.604C385.023 53 384.172 53.198 383.263 53.198C382.031 53.198 381.041 52.868 380.293 52.208C379.545 51.5333 379.171 50.558 379.171 49.282C379.171 48.8127 379.208 48.3873 379.281 48.006L380.513 40.988H382.031L380.821 47.83C380.762 48.1673 380.733 48.5193 380.733 48.886C380.733 49.854 380.997 50.5947 381.525 51.108C382.068 51.6067 382.816 51.856 383.769 51.856C384.884 51.856 385.844 51.5187 386.651 50.844C387.458 50.1547 388 49.15 388.279 47.83L389.489 40.988H391.029ZM384.473 39.294C384.224 39.294 384.018 39.2133 383.857 39.052C383.71 38.8907 383.637 38.6927 383.637 38.458C383.637 38.1353 383.754 37.8567 383.989 37.622C384.224 37.3873 384.502 37.27 384.825 37.27C385.074 37.27 385.272 37.3507 385.419 37.512C385.58 37.6587 385.661 37.8567 385.661 38.106C385.661 38.4287 385.536 38.7073 385.287 38.942C385.052 39.1767 384.781 39.294 384.473 39.294ZM387.861 39.294C387.612 39.294 387.406 39.2133 387.245 39.052C387.098 38.8907 387.025 38.6927 387.025 38.458C387.025 38.1353 387.142 37.8567 387.377 37.622C387.626 37.3873 387.912 37.27 388.235 37.27C388.47 37.27 388.66 37.3507 388.807 37.512C388.968 37.6587 389.049 37.8493 389.049 38.084C389.049 38.4067 388.924 38.6927 388.675 38.942C388.44 39.1767 388.169 39.294 387.861 39.294ZM395.227 43.386C395.711 42.55 396.341 41.9047 397.119 41.45C397.896 40.9953 398.798 40.768 399.825 40.768L399.539 42.374H399.099C398.043 42.374 397.133 42.6453 396.371 43.188C395.608 43.7307 395.08 44.6253 394.787 45.872L393.533 53H391.993L394.105 40.988H395.645L395.227 43.386ZM406.871 40.812C407.883 40.812 408.749 41.01 409.467 41.406C410.186 41.7873 410.729 42.3153 411.095 42.99C411.477 43.6647 411.667 44.4347 411.667 45.3C411.667 45.696 411.638 46.048 411.579 46.356C411.491 46.796 411.403 47.192 411.315 47.544H401.349C401.305 47.8227 401.283 48.0867 401.283 48.336C401.283 49.4653 401.621 50.338 402.295 50.954C402.985 51.57 403.857 51.878 404.913 51.878C405.925 51.878 406.813 51.636 407.575 51.152C408.338 50.668 408.895 50.0153 409.247 49.194H410.897C410.399 50.3673 409.599 51.328 408.499 52.076C407.414 52.8093 406.145 53.176 404.693 53.176C403.197 53.176 401.995 52.7507 401.085 51.9C400.191 51.0347 399.743 49.8613 399.743 48.38C399.743 47.94 399.787 47.478 399.875 46.994C400.095 45.7473 400.535 44.6547 401.195 43.716C401.87 42.7773 402.699 42.0587 403.681 41.56C404.664 41.0613 405.727 40.812 406.871 40.812ZM409.995 46.4C410.069 45.9893 410.105 45.6447 410.105 45.366C410.105 44.3247 409.775 43.5253 409.115 42.968C408.455 42.4107 407.612 42.132 406.585 42.132C405.837 42.132 405.119 42.2933 404.429 42.616C403.74 42.9387 403.139 43.4227 402.625 44.068C402.112 44.7133 401.76 45.4907 401.569 46.4H409.995ZM413.121 46.972C413.341 45.74 413.781 44.662 414.441 43.738C415.101 42.7993 415.915 42.0807 416.883 41.582C417.851 41.0687 418.885 40.812 419.985 40.812C421.041 40.812 421.943 41.0687 422.691 41.582C423.454 42.0953 423.967 42.7627 424.231 43.584L425.441 36.72H426.981L424.099 53H422.559L423.043 50.316C422.515 51.152 421.789 51.8413 420.865 52.384C419.941 52.912 418.914 53.176 417.785 53.176C416.333 53.176 415.167 52.7433 414.287 51.878C413.422 50.998 412.989 49.8173 412.989 48.336C412.989 47.9107 413.033 47.456 413.121 46.972ZM423.615 46.994C423.688 46.5833 423.725 46.2167 423.725 45.894C423.725 44.75 423.38 43.8407 422.691 43.166C422.002 42.4913 421.107 42.154 420.007 42.154C419.156 42.154 418.357 42.3447 417.609 42.726C416.876 43.1073 416.252 43.6647 415.739 44.398C415.226 45.1167 414.881 45.9747 414.705 46.972C414.632 47.412 414.595 47.786 414.595 48.094C414.595 49.2527 414.932 50.1693 415.607 50.844C416.296 51.504 417.191 51.834 418.291 51.834C419.112 51.834 419.897 51.636 420.645 51.24C421.408 50.844 422.046 50.2793 422.559 49.546C423.087 48.8127 423.439 47.962 423.615 46.994ZM434.523 40.812C435.535 40.812 436.4 41.01 437.119 41.406C437.837 41.7873 438.38 42.3153 438.747 42.99C439.128 43.6647 439.319 44.4347 439.319 45.3C439.319 45.696 439.289 46.048 439.231 46.356C439.143 46.796 439.055 47.192 438.967 47.544H429.001C428.957 47.8227 428.935 48.0867 428.935 48.336C428.935 49.4653 429.272 50.338 429.947 50.954C430.636 51.57 431.509 51.878 432.565 51.878C433.577 51.878 434.464 51.636 435.227 51.152C435.989 50.668 436.547 50.0153 436.899 49.194H438.549C438.05 50.3673 437.251 51.328 436.151 52.076C435.065 52.8093 433.797 53.176 432.345 53.176C430.849 53.176 429.646 52.7507 428.737 51.9C427.842 51.0347 427.395 49.8613 427.395 48.38C427.395 47.94 427.439 47.478 427.527 46.994C427.747 45.7473 428.187 44.6547 428.847 43.716C429.521 42.7773 430.35 42.0587 431.333 41.56C432.315 41.0613 433.379 40.812 434.523 40.812ZM437.647 46.4C437.72 45.9893 437.757 45.6447 437.757 45.366C437.757 44.3247 437.427 43.5253 436.767 42.968C436.107 42.4107 435.263 42.132 434.237 42.132C433.489 42.132 432.77 42.2933 432.081 42.616C431.391 42.9387 430.79 43.4227 430.277 44.068C429.763 44.7133 429.411 45.4907 429.221 46.4H437.647ZM450.473 53.176C449.255 53.176 448.265 52.8973 447.503 52.34C446.74 51.768 446.359 50.9907 446.359 50.008C446.359 49.832 446.366 49.7 446.381 49.612H447.877C447.818 50.316 448.023 50.8807 448.493 51.306C448.962 51.7313 449.651 51.944 450.561 51.944C451.485 51.944 452.225 51.7533 452.783 51.372C453.34 50.976 453.619 50.4553 453.619 49.81C453.619 49.4287 453.501 49.106 453.267 48.842C453.032 48.578 452.739 48.3653 452.387 48.204C452.049 48.028 451.573 47.83 450.957 47.61C450.194 47.3313 449.578 47.0747 449.109 46.84C448.654 46.5907 448.258 46.2533 447.921 45.828C447.598 45.388 447.437 44.838 447.437 44.178C447.437 43.518 447.627 42.9313 448.009 42.418C448.39 41.9047 448.911 41.5087 449.571 41.23C450.245 40.9513 451.008 40.812 451.859 40.812C453.047 40.812 454.015 41.1053 454.763 41.692C455.525 42.2787 455.907 43.056 455.907 44.024C455.907 44.2293 455.899 44.3833 455.885 44.486H454.433C454.447 44.4273 454.455 44.332 454.455 44.2C454.455 43.5547 454.198 43.034 453.685 42.638C453.186 42.242 452.541 42.044 451.749 42.044C450.957 42.044 450.297 42.2347 449.769 42.616C449.255 42.9827 448.999 43.4813 448.999 44.112C448.999 44.5373 449.123 44.8967 449.373 45.19C449.622 45.4687 449.93 45.696 450.297 45.872C450.663 46.048 451.155 46.2533 451.771 46.488C452.504 46.7667 453.091 47.0233 453.531 47.258C453.985 47.4927 454.367 47.8153 454.675 48.226C454.983 48.6367 455.137 49.15 455.137 49.766C455.137 50.8073 454.704 51.636 453.839 52.252C452.973 52.868 451.851 53.176 450.473 53.176ZM457.595 46.972C457.815 45.74 458.255 44.662 458.915 43.738C459.575 42.7993 460.382 42.0807 461.335 41.582C462.303 41.0687 463.337 40.812 464.437 40.812C465.581 40.812 466.52 41.076 467.253 41.604C467.987 42.132 468.463 42.8067 468.683 43.628L469.145 40.988H470.685L468.573 53H467.033L467.495 50.338C466.997 51.1593 466.278 51.8413 465.339 52.384C464.415 52.912 463.381 53.176 462.237 53.176C461.284 53.176 460.448 52.978 459.729 52.582C459.011 52.186 458.453 51.6287 458.057 50.91C457.661 50.1767 457.463 49.3187 457.463 48.336C457.463 47.9107 457.507 47.456 457.595 46.972ZM468.089 46.994C468.163 46.5833 468.199 46.2167 468.199 45.894C468.199 44.75 467.855 43.8407 467.165 43.166C466.476 42.4913 465.581 42.154 464.481 42.154C463.631 42.154 462.831 42.3447 462.083 42.726C461.35 43.1073 460.727 43.6647 460.213 44.398C459.7 45.1167 459.355 45.9747 459.179 46.972C459.106 47.412 459.069 47.786 459.069 48.094C459.069 49.2527 459.407 50.1693 460.081 50.844C460.771 51.504 461.665 51.834 462.765 51.834C463.587 51.834 464.371 51.636 465.119 51.24C465.882 50.844 466.52 50.2793 467.033 49.546C467.561 48.8127 467.913 47.962 468.089 46.994ZM474.047 40.988L476.313 51.174L482.055 40.988H483.661L473.431 58.654H471.803L475.147 52.912L472.331 40.988H474.047ZM490.391 40.812C491.521 40.812 492.452 41.076 493.185 41.604C493.933 42.132 494.417 42.7993 494.637 43.606L495.099 40.988H496.639L494.483 53.308C494.293 54.408 493.882 55.3833 493.251 56.234C492.635 57.0847 491.858 57.7373 490.919 58.192C489.981 58.6613 488.969 58.896 487.883 58.896C486.343 58.896 485.126 58.5293 484.231 57.796C483.351 57.0627 482.897 56.0653 482.867 54.804H484.385C484.503 55.64 484.884 56.3073 485.529 56.806C486.175 57.3047 487.04 57.554 488.125 57.554C489.313 57.554 490.355 57.1727 491.249 56.41C492.144 55.662 492.709 54.628 492.943 53.308L493.449 50.338C492.951 51.1593 492.232 51.8413 491.293 52.384C490.369 52.912 489.343 53.176 488.213 53.176C486.761 53.176 485.595 52.7433 484.715 51.878C483.85 50.998 483.417 49.8173 483.417 48.336C483.417 47.9107 483.461 47.456 483.549 46.972C483.769 45.74 484.209 44.662 484.869 43.738C485.529 42.7993 486.336 42.0807 487.289 41.582C488.257 41.0687 489.291 40.812 490.391 40.812ZM494.043 46.994C494.117 46.5833 494.153 46.2167 494.153 45.894C494.153 44.75 493.809 43.8407 493.119 43.166C492.43 42.4913 491.535 42.154 490.435 42.154C489.585 42.154 488.785 42.3447 488.037 42.726C487.304 43.1073 486.681 43.6647 486.167 44.398C485.654 45.1167 485.309 45.9747 485.133 46.972C485.06 47.412 485.023 47.786 485.023 48.094C485.023 49.2527 485.361 50.1693 486.035 50.844C486.725 51.504 487.619 51.834 488.719 51.834C489.541 51.834 490.325 51.636 491.073 51.24C491.836 50.844 492.474 50.2793 492.987 49.546C493.515 48.8127 493.867 47.962 494.043 46.994ZM501.255 40.988L499.143 53H497.603L499.715 40.988H501.255ZM510 40.768C511.232 40.768 512.215 41.1053 512.948 41.78C513.696 42.44 514.07 43.408 514.07 44.684C514.07 45.1533 514.034 45.5787 513.96 45.96L512.706 53H511.188L512.398 46.136C512.457 45.7987 512.486 45.4393 512.486 45.058C512.486 44.09 512.222 43.3567 511.694 42.858C511.166 42.3593 510.426 42.11 509.472 42.11C508.314 42.11 507.324 42.4767 506.502 43.21C505.681 43.9433 505.146 45.0213 504.896 46.444V46.378L503.73 53H502.19L504.302 40.988H505.842L505.468 43.056C505.982 42.3227 506.634 41.758 507.426 41.362C508.218 40.966 509.076 40.768 510 40.768ZM3.85 75.65C4.378 74.814 5.104 74.132 6.028 73.604C6.952 73.076 7.97133 72.812 9.086 72.812C10.538 72.812 11.6967 73.2447 12.562 74.11C13.442 74.9607 13.882 76.1193 13.882 77.586C13.882 78.026 13.838 78.488 13.75 78.972C13.53 80.204 13.09 81.2893 12.43 82.228C11.77 83.1667 10.956 83.8927 9.988 84.406C9.03467 84.9193 8.008 85.176 6.908 85.176C5.77867 85.176 4.84733 84.9193 4.114 84.406C3.38067 83.878 2.88933 83.196 2.64 82.36L2.178 85H0.66L3.542 68.72H5.06L3.85 75.65ZM12.188 78.972C12.2613 78.532 12.298 78.158 12.298 77.85C12.298 76.6913 11.9533 75.7893 11.264 75.144C10.5893 74.484 9.69467 74.154 8.58 74.154C7.75867 74.154 6.974 74.352 6.226 74.748C5.478 75.144 4.84 75.7087 4.312 76.442C3.784 77.1753 3.432 78.026 3.256 78.994C3.18267 79.4047 3.146 79.7713 3.146 80.094C3.146 81.238 3.49067 82.1473 4.18 82.822C4.86933 83.4967 5.764 83.834 6.864 83.834C7.71467 83.834 8.50667 83.6433 9.24 83.262C9.988 82.866 10.6187 82.3013 11.132 81.568C11.66 80.82 12.012 79.9547 12.188 78.972ZM18.3657 70.722C18.087 70.722 17.8597 70.6413 17.6837 70.48C17.5077 70.304 17.4197 70.0767 17.4197 69.798C17.4197 69.4167 17.5517 69.1013 17.8157 68.852C18.0797 68.588 18.395 68.456 18.7617 68.456C19.0404 68.456 19.2604 68.5367 19.4217 68.698C19.5977 68.8593 19.6857 69.072 19.6857 69.336C19.6857 69.7173 19.5537 70.0473 19.2897 70.326C19.0257 70.59 18.7177 70.722 18.3657 70.722ZM18.7177 72.988L16.6057 85H15.0657L17.1777 72.988H18.7177ZM22.887 75.386C23.371 74.55 24.0017 73.9047 24.779 73.45C25.5564 72.9953 26.4584 72.768 27.485 72.768L27.199 74.374H26.759C25.703 74.374 24.7937 74.6453 24.031 75.188C23.2684 75.7307 22.7404 76.6253 22.447 77.872L21.193 85H19.653L21.765 72.988H23.305L22.887 75.386ZM35.63 72.988L37.896 83.174L43.638 72.988H45.244L35.014 90.654H33.386L36.73 84.912L33.914 72.988H35.63ZM52.1283 72.812C53.1403 72.812 54.0056 73.01 54.7243 73.406C55.443 73.7873 55.9856 74.3153 56.3523 74.99C56.7336 75.6647 56.9243 76.4347 56.9243 77.3C56.9243 77.696 56.895 78.048 56.8363 78.356C56.7483 78.796 56.6603 79.192 56.5723 79.544H46.6063C46.5623 79.8227 46.5403 80.0867 46.5403 80.336C46.5403 81.4653 46.8776 82.338 47.5523 82.954C48.2416 83.57 49.1143 83.878 50.1703 83.878C51.1823 83.878 52.0696 83.636 52.8323 83.152C53.595 82.668 54.1523 82.0153 54.5043 81.194H56.1543C55.6556 82.3673 54.8563 83.328 53.7563 84.076C52.671 84.8093 51.4023 85.176 49.9503 85.176C48.4543 85.176 47.2516 84.7507 46.3423 83.9C45.4476 83.0347 45.0003 81.8613 45.0003 80.38C45.0003 79.94 45.0443 79.478 45.1323 78.994C45.3523 77.7473 45.7923 76.6547 46.4523 75.716C47.127 74.7773 47.9556 74.0587 48.9383 73.56C49.921 73.0613 50.9843 72.812 52.1283 72.812ZM55.2523 78.4C55.3256 77.9893 55.3623 77.6447 55.3623 77.366C55.3623 76.3247 55.0323 75.5253 54.3723 74.968C53.7123 74.4107 52.869 74.132 51.8423 74.132C51.0943 74.132 50.3756 74.2933 49.6863 74.616C48.997 74.9387 48.3956 75.4227 47.8823 76.068C47.369 76.7133 47.017 77.4907 46.8263 78.4H55.2523ZM61.2599 75.386C61.7439 74.55 62.3745 73.9047 63.1519 73.45C63.9292 72.9953 64.8312 72.768 65.8579 72.768L65.5719 74.374H65.1319C64.0759 74.374 63.1665 74.6453 62.4039 75.188C61.6412 75.7307 61.1132 76.6253 60.8199 77.872L59.5659 85H58.0259L60.1379 72.988H61.6779L61.2599 75.386ZM78.9528 72.812C79.9648 72.812 80.8302 73.01 81.5488 73.406C82.2675 73.7873 82.8102 74.3153 83.1768 74.99C83.5582 75.6647 83.7488 76.4347 83.7488 77.3C83.7488 77.696 83.7195 78.048 83.6608 78.356C83.5728 78.796 83.4848 79.192 83.3968 79.544H73.4308C73.3868 79.8227 73.3648 80.0867 73.3648 80.336C73.3648 81.4653 73.7022 82.338 74.3768 82.954C75.0662 83.57 75.9388 83.878 76.9948 83.878C78.0068 83.878 78.8942 83.636 79.6568 83.152C80.4195 82.668 80.9768 82.0153 81.3288 81.194H82.9788C82.4802 82.3673 81.6808 83.328 80.5808 84.076C79.4955 84.8093 78.2268 85.176 76.7748 85.176C75.2788 85.176 74.0762 84.7507 73.1668 83.9C72.2722 83.0347 71.8248 81.8613 71.8248 80.38C71.8248 79.94 71.8688 79.478 71.9568 78.994C72.1768 77.7473 72.6168 76.6547 73.2768 75.716C73.9515 74.7773 74.7802 74.0587 75.7628 73.56C76.7455 73.0613 77.8088 72.812 78.9528 72.812ZM82.0768 78.4C82.1502 77.9893 82.1868 77.6447 82.1868 77.366C82.1868 76.3247 81.8568 75.5253 81.1968 74.968C80.5368 74.4107 79.6935 74.132 78.6668 74.132C77.9188 74.132 77.2002 74.2933 76.5108 74.616C75.8215 74.9387 75.2202 75.4227 74.7068 76.068C74.1935 76.7133 73.8415 77.4907 73.6508 78.4H82.0768ZM85.2024 78.972C85.4224 77.74 85.8624 76.662 86.5224 75.738C87.1824 74.7993 87.9964 74.0807 88.9644 73.582C89.9324 73.0687 90.9664 72.812 92.0664 72.812C93.1224 72.812 94.0244 73.0687 94.7724 73.582C95.5351 74.0953 96.0484 74.7627 96.3124 75.584L97.5224 68.72H99.0624L96.1804 85H94.6404L95.1244 82.316C94.5964 83.152 93.8704 83.8413 92.9464 84.384C92.0224 84.912 90.9957 85.176 89.8664 85.176C88.4144 85.176 87.2484 84.7433 86.3684 83.878C85.5031 82.998 85.0704 81.8173 85.0704 80.336C85.0704 79.9107 85.1144 79.456 85.2024 78.972ZM95.6964 78.994C95.7697 78.5833 95.8064 78.2167 95.8064 77.894C95.8064 76.75 95.4617 75.8407 94.7724 75.166C94.0831 74.4913 93.1884 74.154 92.0884 74.154C91.2377 74.154 90.4384 74.3447 89.6904 74.726C88.9571 75.1073 88.3337 75.6647 87.8204 76.398C87.3071 77.1167 86.9624 77.9747 86.7864 78.972C86.7131 79.412 86.6764 79.786 86.6764 80.094C86.6764 81.2527 87.0137 82.1693 87.6884 82.844C88.3777 83.504 89.2724 83.834 90.3724 83.834C91.1937 83.834 91.9784 83.636 92.7264 83.24C93.4891 82.844 94.1271 82.2793 94.6404 81.546C95.1684 80.8127 95.5204 79.962 95.6964 78.994ZM102.556 70.722C102.277 70.722 102.05 70.6413 101.874 70.48C101.698 70.304 101.61 70.0767 101.61 69.798C101.61 69.4167 101.742 69.1013 102.006 68.852C102.27 68.588 102.585 68.456 102.952 68.456C103.231 68.456 103.451 68.5367 103.612 68.698C103.788 68.8593 103.876 69.072 103.876 69.336C103.876 69.7173 103.744 70.0473 103.48 70.326C103.216 70.59 102.908 70.722 102.556 70.722ZM102.908 72.988L100.796 85H99.2561L101.368 72.988H102.908ZM111.653 72.768C112.885 72.768 113.868 73.1053 114.601 73.78C115.349 74.44 115.723 75.408 115.723 76.684C115.723 77.1533 115.687 77.5787 115.613 77.96L114.359 85H112.841L114.051 78.136C114.11 77.7987 114.139 77.4393 114.139 77.058C114.139 76.09 113.875 75.3567 113.347 74.858C112.819 74.3593 112.079 74.11 111.125 74.11C109.967 74.11 108.977 74.4767 108.155 75.21C107.334 75.9433 106.799 77.0213 106.549 78.444V78.378L105.383 85H103.843L105.955 72.988H107.495L107.121 75.056C107.635 74.3227 108.287 73.758 109.079 73.362C109.871 72.966 110.729 72.768 111.653 72.768ZM133.803 72.768C135.006 72.768 135.967 73.098 136.685 73.758C137.419 74.418 137.785 75.386 137.785 76.662C137.785 77.058 137.741 77.4907 137.653 77.96L136.399 85H134.881L136.113 78.136C136.187 77.696 136.223 77.3293 136.223 77.036C136.223 76.0827 135.967 75.3567 135.453 74.858C134.94 74.3593 134.214 74.11 133.275 74.11C132.234 74.11 131.317 74.44 130.525 75.1C129.748 75.76 129.205 76.7133 128.897 77.96L127.621 85H126.103L127.335 78.136C127.409 77.696 127.445 77.3293 127.445 77.036C127.445 76.0827 127.189 75.3567 126.675 74.858C126.162 74.3593 125.443 74.11 124.519 74.11C123.405 74.11 122.444 74.4767 121.637 75.21C120.831 75.9287 120.295 76.97 120.031 78.334L118.865 85H117.325L119.437 72.988H120.977L120.603 75.078C121.102 74.33 121.74 73.758 122.517 73.362C123.309 72.966 124.145 72.768 125.025 72.768C126.067 72.768 126.932 73.0173 127.621 73.516C128.311 74.0147 128.743 74.748 128.919 75.716C129.403 74.7627 130.085 74.0367 130.965 73.538C131.845 73.0247 132.791 72.768 133.803 72.768ZM142.679 70.722C142.401 70.722 142.173 70.6413 141.997 70.48C141.821 70.304 141.733 70.0767 141.733 69.798C141.733 69.4167 141.865 69.1013 142.129 68.852C142.393 68.588 142.709 68.456 143.075 68.456C143.354 68.456 143.574 68.5367 143.735 68.698C143.911 68.8593 143.999 69.072 143.999 69.336C143.999 69.7173 143.867 70.0473 143.603 70.326C143.339 70.59 143.031 70.722 142.679 70.722ZM143.031 72.988L140.919 85H139.379L141.491 72.988H143.031ZM151.931 76.486C151.945 76.4273 151.953 76.332 151.953 76.2C151.953 75.5547 151.696 75.034 151.183 74.638C150.684 74.242 150.039 74.044 149.247 74.044C148.455 74.044 147.795 74.2347 147.267 74.616C146.753 74.9827 146.497 75.4813 146.497 76.112C146.497 76.5373 146.621 76.8967 146.871 77.19C147.12 77.4687 147.428 77.696 147.795 77.872C148.161 78.048 148.653 78.2533 149.269 78.488C150.002 78.7667 150.589 79.0233 151.029 79.258C151.483 79.4927 151.865 79.8153 152.173 80.226C152.481 80.6367 152.635 81.15 152.635 81.766C152.635 82.734 152.246 83.526 151.469 84.142C150.691 84.7433 149.679 85.0807 148.433 85.154L148.191 86.474C148.983 86.4447 149.599 86.5767 150.039 86.87C150.479 87.1633 150.699 87.5813 150.699 88.124C150.699 88.212 150.684 88.344 150.655 88.52C150.537 89.18 150.207 89.7007 149.665 90.082C149.137 90.478 148.484 90.676 147.707 90.676H145.507L145.683 89.642H147.575C148.645 89.642 149.232 89.268 149.335 88.52C149.349 88.4613 149.357 88.3807 149.357 88.278C149.357 87.7353 148.895 87.464 147.971 87.464H146.937L147.355 85.154C146.313 85.066 145.47 84.7433 144.825 84.186C144.179 83.6287 143.857 82.9027 143.857 82.008C143.857 81.832 143.864 81.7 143.879 81.612H145.375C145.316 82.316 145.521 82.8807 145.991 83.306C146.46 83.7313 147.149 83.944 148.059 83.944C148.983 83.944 149.723 83.7533 150.281 83.372C150.838 82.976 151.117 82.4553 151.117 81.81C151.117 81.4287 150.999 81.106 150.765 80.842C150.53 80.578 150.237 80.3653 149.885 80.204C149.547 80.028 149.071 79.83 148.455 79.61C147.692 79.3313 147.076 79.0747 146.607 78.84C146.152 78.5907 145.756 78.2533 145.419 77.828C145.096 77.388 144.935 76.838 144.935 76.178C144.935 75.518 145.125 74.9313 145.507 74.418C145.888 73.9047 146.409 73.5087 147.069 73.23C147.743 72.9513 148.506 72.812 149.357 72.812C150.545 72.812 151.513 73.1053 152.261 73.692C153.023 74.2787 153.405 75.056 153.405 76.024C153.405 76.2293 153.397 76.3833 153.383 76.486H151.931ZM157.294 81.744C157.25 82.008 157.228 82.2353 157.228 82.426C157.228 82.8953 157.352 83.2253 157.602 83.416C157.866 83.592 158.291 83.68 158.878 83.68H160.286L160.044 85H158.394C157.484 85 156.802 84.824 156.348 84.472C155.893 84.12 155.666 83.5407 155.666 82.734C155.666 82.4113 155.695 82.0813 155.754 81.744L157.074 74.286H155.402L155.644 72.988H157.316L157.844 69.974H159.384L158.856 72.988H162.178L161.936 74.286H158.614L157.294 81.744ZM165.443 70.722C165.165 70.722 164.937 70.6413 164.761 70.48C164.585 70.304 164.497 70.0767 164.497 69.798C164.497 69.4167 164.629 69.1013 164.893 68.852C165.157 68.588 165.473 68.456 165.839 68.456C166.118 68.456 166.338 68.5367 166.499 68.698C166.675 68.8593 166.763 69.072 166.763 69.336C166.763 69.7173 166.631 70.0473 166.367 70.326C166.103 70.59 165.795 70.722 165.443 70.722ZM165.795 72.988L163.683 85H162.143L164.255 72.988H165.795ZM169.965 75.386C170.449 74.55 171.079 73.9047 171.857 73.45C172.634 72.9953 173.536 72.768 174.563 72.768L174.277 74.374H173.837C172.781 74.374 171.871 74.6453 171.109 75.188C170.346 75.7307 169.818 76.6253 169.525 77.872L168.271 85H166.731L168.843 72.988H170.383L169.965 75.386ZM174.503 85.11C174.225 85.11 173.997 85.022 173.821 84.846C173.645 84.67 173.557 84.4427 173.557 84.164C173.557 83.812 173.689 83.504 173.953 83.24C174.232 82.976 174.547 82.844 174.899 82.844C175.178 82.844 175.405 82.932 175.581 83.108C175.757 83.2693 175.845 83.4893 175.845 83.768C175.845 84.12 175.706 84.4353 175.427 84.714C175.163 84.978 174.855 85.11 174.503 85.11Z" fill="#333333"/>
</svg>
